<?xml version="1.0" standalone="no"?>
<!DOCTYPE svg PUBLIC "-//W3C//DTD SVG 1.1//EN" "http://www.w3.org/Graphics/SVG/1.1/DTD/svg11.dtd" >
<svg>
<metadata>
Created by FontForge 20110222 at Fri Jan  9 20:25:24 2015
 By deploy user
Copyright (c) 2012 by Rene Bieder. All rights reserved.
</metadata>
<defs>
<font id="RBNo2.1a-Bold" horiz-adv-x="401" >
  <font-face 
    font-family="RBNo2.1a-Bold"
    font-weight="400"
    font-stretch="normal"
    units-per-em="1000"
    panose-1="2 0 0 0 0 0 0 0 0 0"
    ascent="800"
    descent="-200"
    x-height="577"
    cap-height="700"
    bbox="-39 -233 882 938"
    underline-thickness="50"
    underline-position="-50"
    unicode-range="U+0020-FB02"
  />
<missing-glyph horiz-adv-x="467" 
d="M0 0v700h467v-700h-467zM253 350l179 -294v587zM213 350l-177 293v-587zM234 319l-172 -284h343zM62 666l172 -285l171 285h-343z" />
    <glyph glyph-name=".notdef" horiz-adv-x="467" 
d="M0 0v700h467v-700h-467zM253 350l179 -294v587zM213 350l-177 293v-587zM234 319l-172 -284h343zM62 666l172 -285l171 285h-343z" />
    <glyph glyph-name=".null" horiz-adv-x="0" 
 />
    <glyph glyph-name="nonmarkingreturn" horiz-adv-x="333" 
 />
    <glyph glyph-name="space" unicode=" " horiz-adv-x="140" 
 />
    <glyph glyph-name="exclam" unicode="!" horiz-adv-x="198" 
d="M67 213l-30 295v192h125v-192l-31 -295h-64zM43 0v143h112v-143h-112z" />
    <glyph glyph-name="quotedbl" unicode="&#x22;" horiz-adv-x="325" 
d="M34 410l-3 290h111v-112l-31 -178h-77zM185 410l-3 290h111v-112l-31 -178h-77z" />
    <glyph glyph-name="numbersign" unicode="#" horiz-adv-x="594" 
d="M68 446l15 92h76l27 162h97l-26 -162h126l26 162h99l-27 -162h94l-15 -92h-95l-33 -208h93l-15 -91h-94l-24 -147h-97l23 147h-126l-23 -147h-97l23 147h-77l14 91h79l33 208h-76zM241 446l-33 -208h126l33 208h-126z" />
    <glyph glyph-name="dollar" unicode="$" horiz-adv-x="417" 
d="M163 -84v81q-81 4 -109 37.5t-28 121.5v82h131v-90q0 -28 10.5 -35.5t34.5 -7.5h18q16 0 24.5 2t14.5 12t6 29v83q0 11 -2 19t-4 12.5t-9.5 9.5t-11 7t-16 7.5t-17.5 7.5l-71 25q-30 12 -44 19t-32 22t-25 39t-7 59v86q0 88 28.5 121.5t108.5 37.5v70h92v-70
q81 -4 109 -37t28 -122v-80h-131v89q0 27 -10.5 34.5t-34.5 7.5h-14q-24 0 -34.5 -7.5t-10.5 -34.5v-55q0 -34 12.5 -46t57.5 -29l66 -23q30 -11 43 -17t30 -21t23.5 -38.5t6.5 -59.5v-108q0 -89 -29.5 -122t-111.5 -37v-81h-92z" />
    <glyph glyph-name="percent" unicode="%" horiz-adv-x="649" 
d="M130 703h34q57 0 78.5 -23t21.5 -77v-200q0 -55 -21.5 -78.5t-78.5 -23.5h-34q-57 0 -78.5 24t-21.5 78v200q0 54 21.5 77t78.5 23zM485 398h34q57 0 78.5 -23t21.5 -77v-200q0 -54 -21.5 -78t-78.5 -24h-34q-57 0 -78.5 23.5t-21.5 78.5v200q0 54 21.5 77t78.5 23z
M515 336h-26q-26 0 -26 -29v-218q0 -28 26 -28h26q13 0 19 6t6 22v218q0 17 -6 23t-19 6zM160 640h-26q-13 0 -19 -6t-6 -22v-219q0 -16 6 -22t19 -6h26q26 0 26 28v219q0 28 -26 28zM155 0l258 700h78l-258 -700h-78z" />
    <glyph glyph-name="ampersand" unicode="&#x26;" horiz-adv-x="492" 
d="M329 680v-109h-104q-21 0 -31 -9t-10 -34v-71q0 -25 9.5 -34t28.5 -10h260v-85l-89 -17v-311h-189q-47 0 -72 2.5t-48 10.5t-32.5 25.5t-15 45t-5.5 72.5v88q0 67 22.5 92.5t71.5 28.5q-40 5 -56.5 31.5t-16.5 87.5v41q0 95 34.5 125t138.5 30h104zM266 106v201h-61
q-21 0 -32 -9t-11 -34v-118q0 -24 10 -32t32 -8h62z" />
    <glyph glyph-name="quotesingle" unicode="'" horiz-adv-x="173" 
d="M34 410l-3 290h111v-112l-31 -178h-77z" />
    <glyph glyph-name="parenleft" unicode="(" horiz-adv-x="218" 
d="M142 581v-543q0 -54 11 -78q4 -9 20.5 -32t18.5 -26l-47 -41q-51 34 -78 69q-36 42 -36 108v543q0 65 36 106q25 32 78 70l47 -42q-37 -52 -39 -57q-11 -26 -11 -77z" />
    <glyph glyph-name="parenright" unicode=")" horiz-adv-x="218" 
d="M75 38v543q0 51 -11 77q-2 5 -39 57l47 42q53 -38 78 -70q36 -41 36 -106v-543q0 -66 -36 -108q-27 -35 -78 -69l-47 41q2 3 18.5 26t20.5 32q11 24 11 78z" />
    <glyph glyph-name="asterisk" unicode="*" horiz-adv-x="347" 
d="M299 420l-50 30l-58 60l12 20l79 -24l50 -30zM145 537l-80 25l-49 30l32 57l50 -31l58 -60zM156 510l-58 -60l-50 -30l-32 56l49 30l80 24zM332 592l-50 -30l-79 -25l-12 21l58 60l50 31zM141 368v58l21 81h23l21 -81v-58h-65zM162 561l-21 81v58h65v-58l-21 -81h-23z
" />
    <glyph glyph-name="plus" unicode="+" horiz-adv-x="347" 
d="M17 316v86h113v111h86v-111h114v-86h-114v-113h-86v113h-113z" />
    <glyph glyph-name="comma" unicode="," horiz-adv-x="173" 
d="M30 0v139h113v-112q0 -44 -14 -74.5t-49 -77.5l-43 25q3 5 7 14q18 35 21.5 47.5t3.5 38.5h-39z" />
    <glyph glyph-name="hyphen" unicode="-" horiz-adv-x="291" 
d="M17 249v103h257v-103h-257z" />
    <glyph glyph-name="period" unicode="." horiz-adv-x="186" 
d="M37 0v139h112v-139h-112z" />
    <glyph glyph-name="slash" unicode="/" horiz-adv-x="260" 
d="M14 -34l147 773h79l-148 -773h-78z" />
    <glyph glyph-name="zero" unicode="0" horiz-adv-x="432" 
d="M203 704h25q104 0 140 -34t36 -132v-375q0 -98 -36 -132.5t-140 -34.5h-25q-104 0 -140 35t-36 132v375q0 98 36 132t140 34zM203 105h25q24 0 34.5 8t10.5 36v402q0 28 -10.5 36t-34.5 8h-25q-23 0 -33.5 -8t-10.5 -36v-402q0 -28 10.5 -36t33.5 -8z" />
    <glyph glyph-name="one" unicode="1" horiz-adv-x="359" 
d="M-8 632l152 68h112v-594h98v-106h-324v106h98v466l-110 -25z" />
    <glyph glyph-name="two" unicode="2" horiz-adv-x="386" 
d="M24 0v176q0 84 63 140l97 90q62 50 62 120v29q0 27 -10.5 35t-34.5 8h-12q-24 0 -34.5 -8t-10.5 -35v-83h-119v72q0 95 37.5 127.5t131.5 32.5h23q88 0 118.5 -36t30.5 -124v-34q0 -56 -17.5 -88.5t-56.5 -69.5l-82 -78q-26 -23 -35 -32t-16.5 -25t-7.5 -38v-73h219v-106
h-346z" />
    <glyph glyph-name="three" unicode="3" horiz-adv-x="403" 
d="M100 303v106h114q17 0 25.5 8.5t8.5 31.5v105q0 28 -10.5 36t-33.5 8h-20q-24 0 -34 -8t-10 -36v-59h-122v49q0 98 34 129t139 31h23q93 0 127.5 -31.5t34.5 -128.5v-65q0 -63 -16.5 -88.5t-58.5 -30.5q43 -5 59 -29t16 -88v-87q0 -55 -10 -88t-34 -48.5t-48.5 -19.5
t-69.5 -4h-23q-105 0 -139 31t-34 129v52h122v-62q0 -28 10 -36t34 -8h20q23 0 33.5 8t10.5 36v117q0 23 -8.5 31.5t-25.5 8.5h-114z" />
    <glyph glyph-name="four" unicode="4" horiz-adv-x="467" 
d="M1 237l172 463h194v-456h89v-99h-89v-145h-128v145h-238v92zM238 592l-105 -348h106v348h-1z" />
    <glyph glyph-name="five" unicode="5" horiz-adv-x="386" 
d="M38 700h315v-112h-199v-149h72q45 0 69.5 -4.5t44.5 -20t27.5 -46t7.5 -82.5v-130q0 -57 -7 -88.5t-30 -48t-51.5 -20t-87.5 -3.5h-31q-91 0 -120.5 31t-29.5 129v69h121v-86q0 -19 6.5 -27t13 -9t25.5 -1h18q15 0 19.5 0.5t12.5 3.5t10.5 11t2.5 22v154q0 24 -9.5 32
t-28.5 8h-178z" />
    <glyph glyph-name="six" unicode="6" horiz-adv-x="396" 
d="M198 416h31q49 0 74.5 -4.5t45.5 -23t26 -52t6 -93.5v-87q0 -98 -33.5 -129t-138.5 -31h-18q-101 0 -137 35.5t-36 124.5v382q0 99 36 132.5t140 33.5h19q81 0 116.5 -33t35.5 -127v-59h-121v69q0 28 -9.5 36t-32.5 8h-15q-23 0 -33 -8t-10 -36v-151q20 13 54 13z
M209 310h-31q-17 0 -25.5 -5.5t-8.5 -22.5v-136q0 -28 11 -36t34 -8h20q23 0 34 8t11 36v117q0 28 -11 37.5t-34 9.5z" />
    <glyph glyph-name="seven" unicode="7" horiz-adv-x="359" 
d="M10 588v112h336v-118l-155 -582h-136l156 569v19h-201z" />
    <glyph glyph-name="eight" unicode="8" horiz-adv-x="412" 
d="M200 -4q-108 0 -147 30t-39 127v89q0 70 19.5 94t72.5 29q-41 6 -58 29.5t-18 79.5v69q0 99 33.5 130t138.5 31h11q106 0 141 -31.5t35 -129.5v-56q0 -64 -17 -90t-62 -32q51 -5 69.5 -30t18.5 -93v-89q0 -97 -39 -127t-147 -30h-12zM222 105q16 0 24.5 1.5t16 11
t7.5 27.5v119q0 27 -10.5 34.5t-34.5 7.5h-41q-22 -1 -31.5 -8.5t-9.5 -33.5v-119q0 -18 7 -27.5t15.5 -11t24.5 -1.5h32zM216 595h-19q-16 0 -24 -2t-14 -11.5t-6 -28.5v-97q0 -26 9 -33t31 -7h27q15 1 22.5 3t13 10.5t5.5 26.5v97q0 27 -10 34.5t-35 7.5z" />
    <glyph glyph-name="nine" unicode="9" horiz-adv-x="404" 
d="M197 268h-27q-50 0 -75.5 4.5t-46 22.5t-27.5 52t-7 94v103q0 98 35 129t141 31h15q101 0 136.5 -35.5t35.5 -124.5v-382q0 -100 -33 -133t-136 -33h-18q-104 0 -135 30.5t-31 129.5v42h120v-49q0 -27 11 -37t33 -10h19q23 0 33.5 9.5t10.5 37.5v131q-19 -12 -54 -12z
M187 374h30q20 0 27 6.5t7 30.5v145q0 27 -10.5 34.5t-33.5 7.5h-20q-16 0 -24 -2t-14.5 -11.5t-6.5 -28.5v-139q0 -27 11 -35t34 -8z" />
    <glyph glyph-name="colon" unicode=":" horiz-adv-x="173" 
d="M32 0v139h112v-139h-112zM32 437v139h112v-139h-112z" />
    <glyph glyph-name="semicolon" unicode=";" horiz-adv-x="173" 
d="M30 0v139h113v-112q0 -44 -14 -74.5t-49 -77.5l-43 25q3 5 7 14q18 35 21.5 47.5t3.5 38.5h-39zM32 437v139h112v-139h-112z" />
    <glyph glyph-name="less" unicode="&#x3c;" horiz-adv-x="334" 
d="M316 444l-177 -82l177 -81v-104l-299 140v90l299 140v-103z" />
    <glyph glyph-name="equal" unicode="=" horiz-adv-x="347" 
d="M17 394v83h313v-83h-313zM17 234v83h313v-83h-313z" />
    <glyph glyph-name="greater" unicode="&#x3e;" horiz-adv-x="334" 
d="M194 362l-177 82v103l299 -140v-90l-299 -140v104z" />
    <glyph glyph-name="question" unicode="?" horiz-adv-x="398" 
d="M194 704h20q94 0 131.5 -32.5t37.5 -127.5v-58q0 -41 -16.5 -65.5t-58.5 -58.5q-12 -10 -29 -23t-22.5 -17.5t-13.5 -12.5t-10 -13.5t-4 -13.5t-2 -20v-50h-100v89q0 11 2.5 21t5 16t11 15.5t11.5 12.5t15.5 14t15.5 14q8 7 21.5 19.5t18.5 17.5t13 14.5t11 16.5
t5.5 16.5t2.5 21.5v56q0 27 -10 34.5t-35 7.5h-24q-24 0 -34.5 -8.5t-10.5 -35.5v-88h-121v78q0 95 37.5 127.5t131.5 32.5zM121 0v142h111v-142h-111z" />
    <glyph glyph-name="at" unicode="@" horiz-adv-x="547" 
d="M280 533q84 0 110 -27t26 -97v-295q0 -27 5 -36t26 -9q28 0 35.5 11.5t7.5 40.5v361q0 62 -22 91.5t-88 29.5h-213q-66 0 -88 -28t-22 -93v-401q0 -61 22.5 -91t87.5 -30h283v-27h-283q-78 0 -110.5 32.5t-32.5 115.5v401q0 83 32.5 116t110.5 33h213q78 0 110.5 -32.5
t32.5 -116.5v-368q0 -52 -19.5 -68.5t-56.5 -16.5q-62 0 -83.5 5t-40.5 25q-11 -10 -15.5 -13t-17.5 -7.5t-30 -4.5h-17q-59 0 -89.5 25t-30.5 86v97q0 62 25 86.5t82 24.5h80v55q0 24 -7.5 31t-24.5 7h-8q-14 0 -19.5 -1t-10.5 -8.5t-5 -23.5v-43h-98v39q0 69 24 96t104 28
h15zM260 127h10q21 0 40 13v135h-50q-13 0 -20 -6t-8.5 -14.5t-1.5 -22.5v-70q0 -35 30 -35z" />
    <glyph glyph-name="A" unicode="A" horiz-adv-x="449" 
d="M326 700l119 -700h-131l-22 129h-135l-21 -129h-132l119 700h203zM221 592l-52 -344h110l-52 344h-6z" />
    <glyph glyph-name="B" unicode="B" horiz-adv-x="417" 
d="M29 0v700h188q104 0 138.5 -30.5t34.5 -125.5v-67q0 -63 -16.5 -88.5t-57.5 -31.5q43 -5 59.5 -30t16.5 -89v-82q0 -45 -5.5 -72.5t-15 -45t-32.5 -25.5t-48 -10.5t-72 -2.5h-190zM160 304v-195h59q21 0 31 7.5t10 32.5v115q0 24 -10.5 32t-32.5 8h-57zM160 591v-185h60
q20 0 29 8t9 32v105q0 24 -10 32t-31 8h-57z" />
    <glyph glyph-name="C" unicode="C" horiz-adv-x="429" 
d="M203 704h23q106 0 141 -31.5t35 -128.5v-128h-131v136q0 27 -10.5 35t-34.5 8h-23q-23 0 -34 -8t-11 -35v-404q0 -27 11 -35t34 -8h23q24 0 34.5 8t10.5 35v156h131v-148q0 -97 -35 -128.5t-141 -31.5h-23q-105 0 -140.5 31.5t-35.5 128.5v388q0 97 35.5 128.5
t140.5 31.5z" />
    <glyph glyph-name="D" unicode="D" horiz-adv-x="423" 
d="M29 0v700h197q103 0 137.5 -31t34.5 -125v-388q0 -94 -34.5 -125t-137.5 -31h-197zM226 591h-65l-1 -482h66q21 0 31 8t10 33v403q0 24 -9.5 31t-31.5 7z" />
    <glyph glyph-name="E" unicode="E" horiz-adv-x="362" 
d="M162 302v-190h182v-112h-313v700h313v-112h-182v-174h165v-112h-165z" />
    <glyph glyph-name="F" unicode="F" horiz-adv-x="349" 
d="M162 278v-278h-131v700h308v-112h-177v-188h160v-122h-160z" />
    <glyph glyph-name="G" unicode="G" horiz-adv-x="426" 
d="M203 704h22q105 0 140.5 -31.5t35.5 -128.5v-78h-131v86q0 27 -11 35t-34 8h-22q-23 0 -34 -8t-11 -35v-407q0 -27 10.5 -33.5t34.5 -6.5h22q17 0 24.5 1.5t14 10.5t6.5 28v126h-61v109h192v-224q0 -97 -35.5 -128.5t-140.5 -31.5h-22q-105 0 -140.5 31.5t-35.5 128.5
v388q0 97 35.5 128.5t140.5 31.5z" />
    <glyph glyph-name="H" unicode="H" horiz-adv-x="435" 
d="M31 0v700h131v-286h111v286h132v-700h-132v295h-111v-295h-131z" />
    <glyph glyph-name="I" unicode="I" horiz-adv-x="193" 
d="M31 0v700h131v-700h-131z" />
    <glyph glyph-name="J" unicode="J" horiz-adv-x="283" 
d="M6 0v112h76q22 0 32 7.5t10 31.5v550h131v-523q0 -66 -6.5 -102t-28.5 -55.5t-51.5 -23t-86.5 -1.5z" />
    <glyph glyph-name="K" unicode="K" horiz-adv-x="432" 
d="M162 274v-274h-131v700h131v-288h42l75 288h141l-100 -354l107 -346h-145l-73 274h-47z" />
    <glyph glyph-name="L" unicode="L" horiz-adv-x="335" 
d="M31 0v700h131v-588h167v-112h-298z" />
    <glyph glyph-name="M" unicode="M" horiz-adv-x="571" 
d="M154 399l6 -399h-129v700h162l92 -399h1l92 399h162v-700h-130l7 399h-3l-80 -399h-96l-80 399h-4z" />
    <glyph glyph-name="N" unicode="N" horiz-adv-x="438" 
d="M31 700h132l121 -386h1v386h123v-700h-137l-111 367h-1v-367h-128v700z" />
    <glyph glyph-name="O" unicode="O" horiz-adv-x="432" 
d="M203 704h25q105 0 140.5 -31.5t35.5 -128.5v-388q0 -97 -35.5 -128.5t-140.5 -31.5h-25q-105 0 -140.5 32t-35.5 128v388q0 97 35.5 128.5t140.5 31.5zM205 105h22q24 0 35 8.5t11 35.5v402q0 27 -11 35.5t-35 8.5h-22q-24 0 -35 -8t-11 -36v-402q0 -28 11 -36t35 -8z
" />
    <glyph glyph-name="P" unicode="P" horiz-adv-x="407" 
d="M29 0v700h195q102 0 136 -30.5t34 -121.5v-169q0 -93 -33.5 -122.5t-136.5 -29.5h-64v-227h-131zM222 591h-62v-255h62q20 0 30 6.5t10 29.5v182q0 23 -10 30t-30 7z" />
    <glyph glyph-name="Q" unicode="Q" horiz-adv-x="432" 
d="M203 704h25q105 0 140.5 -31.5t35.5 -128.5v-388q0 -61 -12.5 -94t-43.5 -48l39 -99h-98l-47 81h-14h-25q-105 0 -140.5 32t-35.5 128v388q0 97 35.5 128.5t140.5 31.5zM205 105h22q24 0 35 8.5t11 35.5v402q0 27 -11 35.5t-35 8.5h-22q-24 0 -35 -8t-11 -36v-402
q0 -28 11 -36t35 -8z" />
    <glyph glyph-name="R" unicode="R" horiz-adv-x="413" 
d="M29 0v700h199q102 0 135.5 -30t33.5 -122v-98q0 -64 -18.5 -88.5t-58.5 -28.5q43 -7 60 -34t17 -92v-207h-132v224q0 50 -39 50h-66v-274h-131zM160 591v-211h68q20 0 28.5 6.5t8.5 30.5v139q0 23 -9 29t-30 6h-66z" />
    <glyph glyph-name="S" unicode="S" horiz-adv-x="413" 
d="M200 704h14q106 0 141 -31.5t35 -128.5v-80h-131v89q0 27 -10.5 34.5t-34.5 7.5h-14q-24 0 -34.5 -7.5t-10.5 -34.5v-55q0 -34 12.5 -46t57.5 -29l66 -23q30 -11 43 -17t30 -21t23.5 -38.5t6.5 -59.5v-108q0 -97 -35.5 -128.5t-140.5 -31.5h-18q-106 0 -141 31.5
t-35 128.5v82h131v-90q0 -28 10.5 -35.5t34.5 -7.5h18q16 0 24.5 2t14.5 12t6 29v83q0 11 -2 19t-4 12.5t-9.5 9.5t-11 7t-16 7.5t-17.5 7.5l-71 25q-30 12 -44 19t-32 22t-25 39t-7 59v86q0 97 35.5 128.5t140.5 31.5z" />
    <glyph glyph-name="T" unicode="T" horiz-adv-x="390" 
d="M261 588v-588h-132v588h-124v112h380v-112h-124z" />
    <glyph glyph-name="U" unicode="U" horiz-adv-x="432" 
d="M27 700h132v-549q0 -29 8 -37.5t30 -8.5h38q22 0 30 8.5t8 37.5v549h131v-544q0 -97 -35.5 -128.5t-140.5 -31.5h-25q-105 0 -140.5 31.5t-35.5 128.5v544z" />
    <glyph glyph-name="V" unicode="V" horiz-adv-x="471" 
d="M463 700l-120 -700h-215l-120 700h132l93 -544h3l95 544h132z" />
    <glyph glyph-name="W" unicode="W" horiz-adv-x="631" 
d="M7 700h133l45 -526h1l61 526h138l60 -526h1l45 526h134l-73 -700h-204l-32 393h-1l-32 -393h-203z" />
    <glyph glyph-name="X" unicode="X" horiz-adv-x="420" 
d="M411 700l-118 -348l122 -352h-132l-74 234l-72 -234h-132l122 352l-119 348h132l69 -228l71 228h131z" />
    <glyph glyph-name="Y" unicode="Y" horiz-adv-x="432" 
d="M150 0v265l-145 435h132l78 -281l80 281h132l-145 -435v-265h-132z" />
    <glyph glyph-name="Z" unicode="Z" horiz-adv-x="363" 
d="M20 587v113h327v-112l-187 -476h187v-112h-331v113l197 474h-193z" />
    <glyph glyph-name="bracketleft" unicode="[" horiz-adv-x="276" 
d="M145 645v-640h122v-92h-233v824h233v-92h-122z" />
    <glyph glyph-name="backslash" unicode="\" horiz-adv-x="260" 
d="M99 739l148 -773h-78l-149 773h79z" />
    <glyph glyph-name="bracketright" unicode="]" horiz-adv-x="276" 
d="M131 5v640h-122v92h233v-824h-233v92h122z" />
    <glyph glyph-name="asciicircum" unicode="^" horiz-adv-x="434" 
d="M292 458l-75 153l-75 -153h-97l127 242h90l126 -242h-96z" />
    <glyph glyph-name="underscore" unicode="_" horiz-adv-x="442" 
d="M-4 -123v86h451v-86h-451z" />
    <glyph glyph-name="grave" unicode="`" horiz-adv-x="500" 
d="M275 712l48 -102h-83l-91 102h126z" />
    <glyph glyph-name="a" unicode="a" horiz-adv-x="392" 
d="M191 581h17q97 1 126.5 -30.5t29.5 -110.5v-430q-115 -14 -185 -14h-24q-67 0 -99 28.5t-32 99.5v113q0 71 29.5 99t95.5 28h90v74q0 25 -8 32t-26 7h-17q-12 0 -18 -1.5t-10.5 -9.5t-4.5 -24v-46h-116v44q0 80 28 110.5t124 30.5zM149 233v-89q0 -20 6.5 -29t23.5 -9h19
q39 0 41 1v166h-60q-30 0 -30 -40z" />
    <glyph glyph-name="b" unicode="b" 
d="M28 0v723h125v-146h96q66 0 95 -26t29 -97v-330q0 -71 -32 -99.5t-99 -28.5h-25zM216 471h-63v-365h63q32 0 32 38v290q0 37 -32 37z" />
    <glyph glyph-name="c" unicode="c" horiz-adv-x="397" 
d="M187 580h23q97 0 128.5 -31t31.5 -109v-100h-124v99q0 22 -8.5 30t-27.5 8h-23q-18 0 -26.5 -8t-8.5 -30v-301q0 -22 8.5 -30t26.5 -8h23q19 0 27.5 8t8.5 30v102h124v-103q0 -78 -31.5 -109.5t-128.5 -31.5h-23q-97 0 -128.5 31.5t-31.5 109.5v303q0 78 31.5 109
t128.5 31z" />
    <glyph glyph-name="d" unicode="d" 
d="M28 124v330q0 71 28.5 97t95.5 26h96v146h125v-723q-114 -4 -189 -4h-25q-67 0 -99 28.5t-32 99.5zM248 106v365h-63q-33 0 -33 -37v-290q0 -38 33 -38h63z" />
    <glyph glyph-name="e" unicode="e" horiz-adv-x="395" 
d="M187 580h22q97 0 128 -31t31 -109v-203l-216 -3v-98q0 -22 8.5 -30t26.5 -8h25q18 0 26.5 8t8.5 30v51h121v-50q0 -78 -31 -109.5t-128 -31.5h-22q-97 0 -128.5 31.5t-31.5 109.5v303q0 78 31.5 109t128.5 31zM187 478q-18 0 -26.5 -8t-8.5 -29v-105h92v105q0 21 -8.5 29
t-26.5 8h-22z" />
    <glyph glyph-name="f" unicode="f" horiz-adv-x="253" 
d="M248 577v-106h-75v-471h-125v471h-40v106h40v26q0 80 29 103.5t118 23.5l55 -5v-99h-55q-22 0 -22 -24v-25h75z" />
    <glyph glyph-name="g" unicode="g" 
d="M28 447q0 71 35 102.5t102 31.5h20l188 -4v-577q0 -88 -30 -115.5t-130 -25.5q-60 2 -94.5 9t-52 27t-22.5 44.5t-5 70.5v19h113v-33q0 -21 7.5 -27t26.5 -6h29q19 0 26 7t7 29v58h-89q-67 0 -99 28t-32 99v263zM248 166v305h-63q-33 0 -33 -37v-230q0 -38 33 -38h63z
" />
    <glyph glyph-name="h" unicode="h" 
d="M247 0v434q0 37 -32 37h-62v-471h-125v723h125v-146h98q66 0 93.5 -26t27.5 -97v-454h-125z" />
    <glyph glyph-name="i" unicode="i" horiz-adv-x="181" 
d="M29 0v577h124v-577h-124zM27 617v97h128v-97h-128z" />
    <glyph glyph-name="j" unicode="j" horiz-adv-x="181" 
d="M46 -126l-73 64q3 4 12.5 16t12 15.5t9 13.5t8 15t5.5 15.5t5 20t2 23.5t1 30v490h125v-503q0 -51 -15.5 -89.5t-35 -60t-56.5 -50.5zM27 617v97h128v-97h-128z" />
    <glyph glyph-name="k" unicode="k" horiz-adv-x="411" 
d="M271 0l-73 246h-45v-246h-125v723h125v-358h44l69 212h136l-91 -272l96 -305h-136z" />
    <glyph glyph-name="l" unicode="l" horiz-adv-x="181" 
d="M28 0v723h125v-723h-125z" />
    <glyph glyph-name="m" unicode="m" horiz-adv-x="613" 
d="M28 0v577q338 4 404 4h22q67 0 99 -28t32 -99v-454h-125v434q0 37 -32 37h-59v-471h-125v447q0 17 -2.5 20.5t-16.5 3.5h-72v-471h-125z" />
    <glyph glyph-name="n" unicode="n" 
d="M247 0v434q0 37 -32 37h-62v-471h-125v577q116 4 189 4h24q67 0 99 -28t32 -99v-454h-125z" />
    <glyph glyph-name="o" unicode="o" horiz-adv-x="399" 
d="M187 581h25q97 0 128.5 -31.5t31.5 -109.5v-303q0 -78 -31.5 -109.5t-128.5 -31.5h-25q-97 0 -128.5 31.5t-31.5 109.5v303q0 78 31.5 109.5t128.5 31.5zM187 100h25q19 0 27 8t8 30l1 302q0 22 -8 29.5t-27 7.5h-25q-19 0 -27 -7.5t-8 -29.5l-1 -302q0 -22 8.5 -30
t26.5 -8z" />
    <glyph glyph-name="p" unicode="p" 
d="M28 -123v700q102 4 189 4h25q66 0 98.5 -31t32.5 -103v-323q0 -72 -29 -99t-95 -27h-25l-71 2v-123h-125zM216 471h-63v-365h63q32 0 32 38v290q0 37 -32 37z" />
    <glyph glyph-name="q" unicode="q" 
d="M28 124v323q0 71 35 102.5t102 31.5h20l188 -4v-700h-125v123q-43 -2 -67 -2h-26q-67 0 -97 27.5t-30 98.5zM248 106v365h-63q-33 0 -33 -37v-290q0 -38 33 -38h63z" />
    <glyph glyph-name="r" unicode="r" horiz-adv-x="288" 
d="M28 0v478q0 49 31 76t79 27h12l135 -6v-97q-84 -9 -103 -10t-24 -7.5t-5 -25.5v-435h-125z" />
    <glyph glyph-name="s" unicode="s" horiz-adv-x="369" 
d="M177 580h7q96 0 124.5 -30.5t28.5 -109.5v-43h-118v48q0 21 -8 27t-27 6h-7q-20 0 -28 -6t-8 -27v-36q0 -11 2 -17.5t9 -12t12.5 -8t22.5 -9.5l72 -27q46 -17 67 -40.5t21 -74.5v-77q0 -79 -31.5 -112.5t-128.5 -33.5h-10q-97 0 -128.5 31.5t-31.5 109.5v52h124v-57
q0 -21 8 -27.5t28 -6.5h10q18 0 26.5 9t8.5 31v59q0 7 -1 12.5t-4 9.5t-4.5 6.5t-7.5 6t-8 4.5t-11 4.5t-11 4.5l-70 28q-24 10 -35 16t-26 18.5t-21 32.5t-6 49v50q0 78 31.5 109t128.5 31z" />
    <glyph glyph-name="t" unicode="t" horiz-adv-x="262" 
d="M249 577v-106h-75v-340q0 -24 22 -24h62v-107l-62 -4q-87 -3 -117 22t-30 106v347h-40v106h40v127h125v-127h75z" />
    <glyph glyph-name="u" unicode="u" horiz-adv-x="399" 
d="M152 577v-433q0 -38 32 -38h62v471h125v-577q-127 -4 -188 -4h-25q-67 0 -99 28.5t-32 99.5v453h125z" />
    <glyph glyph-name="v" unicode="v" horiz-adv-x="404" 
d="M401 577l-105 -577h-188l-105 577h131l65 -426h6l64 426h132z" />
    <glyph glyph-name="w" unicode="w" horiz-adv-x="584" 
d="M321 0l-28 280h-3l-27 -280h-181l-79 577h131l43 -421h2l49 421h128l49 -421h1l44 421h132l-79 -577h-182z" />
    <glyph glyph-name="x" unicode="x" horiz-adv-x="391" 
d="M385 577l-90 -286l90 -291h-132l-57 204l-58 -204h-131l90 291l-90 286h131l58 -196l57 196h132z" />
    <glyph glyph-name="y" unicode="y" horiz-adv-x="405" 
d="M104 7l-106 570h131l70 -426h3l78 426h120l-131 -704h-118l25 134h-72z" />
    <glyph glyph-name="z" unicode="z" horiz-adv-x="352" 
d="M341 108v-108h-331v106l184 362h-177v109h322v-108l-182 -361h184z" />
    <glyph glyph-name="braceleft" unicode="{" horiz-adv-x="256" 
d="M7 279v66l6 3q6 2 12.5 5t14.5 9.5t14 14.5t10.5 20.5t4.5 27.5v156q0 65 36 106q22 28 78 70l44 -35q-33 -51 -36 -58q-11 -24 -11 -83v-156q0 -72 -59 -114q59 -42 59 -112v-161q0 -59 11 -85q3 -6 36 -57l-44 -35q-51 36 -78 69q-36 42 -36 108v161q0 10 -2.5 19.5
t-5.5 16t-8.5 13t-10 10.5t-11 8t-10 6t-8.5 4.5t-6 2.5z" />
    <glyph glyph-name="bar" unicode="|" horiz-adv-x="232" 
d="M67 -73v833h98v-833h-98z" />
    <glyph glyph-name="braceright" unicode="}" horiz-adv-x="256" 
d="M248 345v-66q-1 0 -6 -2.5t-8.5 -4.5t-10 -6t-11 -8t-10 -10.5t-8.5 -13t-5.5 -16t-2.5 -19.5v-161q0 -66 -36 -108q-27 -33 -78 -69l-44 35q33 51 36 57q11 26 11 85v161q0 70 59 112q-59 42 -59 114v156q0 59 -11 83q-3 7 -36 58l44 35q56 -42 78 -70q36 -41 36 -106
v-156q0 -15 4.5 -27.5t10.5 -20.5t14 -14.5t14.5 -9.5t12.5 -5z" />
    <glyph glyph-name="asciitilde" unicode="~" horiz-adv-x="400" 
d="M252 305l-105 62l-1 -61h-69l1 116h70l105 -37l1 36h68l-1 -116h-69z" />
    <glyph glyph-name="uni00A0" unicode="&#xa0;" horiz-adv-x="130" 
 />
    <glyph glyph-name="exclamdown" unicode="&#xa1;" horiz-adv-x="187" 
d="M32 192l30 295h64l31 -295v-192h-125v192zM38 557v143h112v-143h-112z" />
    <glyph glyph-name="cent" unicode="&#xa2;" horiz-adv-x="397" 
d="M152 -66v73q-75 5 -100 37t-25 103v303q0 71 25 102.5t100 36.5v69h92v-69q76 -5 101 -36.5t25 -102.5v-100h-124v99q0 22 -8.5 30t-27.5 8h-23q-18 0 -26.5 -8t-8.5 -30v-301q0 -22 8.5 -30t26.5 -8h23q19 0 27.5 8t8.5 30v102h124v-103q0 -71 -25.5 -103t-100.5 -37
v-73h-92z" />
    <glyph glyph-name="sterling" unicode="&#xa3;" horiz-adv-x="450" 
d="M230 597q-24 0 -34.5 -8t-10.5 -35v-183h176v-103h-176v-163h249v-105h-426v105h46v163h-46v103h46v167q0 98 36 132t140 34h13q105 0 140.5 -31.5t35.5 -128.5v-88h-125v98q0 27 -10 35t-34 8h-20z" />
    <glyph glyph-name="yen" unicode="&#xa5;" horiz-adv-x="432" 
d="M37 286v62h85l-117 352h132l78 -281l80 281h132l-118 -352h84v-62h-104l-7 -21v-24h111v-62h-111v-179h-132v179h-113v62h113v24l-7 21h-106z" />
    <glyph glyph-name="section" unicode="&#xa7;" horiz-adv-x="450" 
d="M373 614h-169q-22 0 -32 -7t-10 -33v-6q0 -8 1.5 -14t3.5 -10.5t7.5 -8t8.5 -5.5t11.5 -4.5t12 -3.5t15.5 -3t16 -3l88 -14q56 -7 78.5 -33.5t23.5 -81.5v-80q0 -49 -44 -78q19 -29 19 -85v-6q0 -92 -38 -117.5t-138 -24.5l-164 4v86h174q19 0 28 1t18 10t9 28v9
q0 9 -2 15.5t-7 11t-9.5 7.5t-14 6t-14.5 4l-17.5 3.5t-18.5 3.5l-88 15q-56 9 -79 34.5t-23 80.5v71q0 58 43 85q-19 33 -19 84v6q0 82 41 113t135 30l154 -4v-86zM265 403l-75 16q-54 10 -65 19q-5 -8 -5 -26v-63v-11.5t1.5 -8.5t2 -6.5t4 -5t5.5 -3.5t8 -3t9 -2.5t12 -3
t15 -3.5l77 -17q58 -13 68 -21q5 6 5 22v67q0 28 -10.5 35.5t-51.5 14.5z" />
    <glyph glyph-name="dieresis" unicode="&#xa8;" horiz-adv-x="500" 
d="M145 616v96h83v-96h-83zM272 616v96h83v-96h-83z" />
    <glyph glyph-name="copyright" unicode="&#xa9;" horiz-adv-x="529" 
d="M186 700h152q150 0 150 -141v-417q0 -142 -150 -142h-152q-149 0 -149 142v417q0 141 149 141zM186 16h152q132 0 132 126v417q0 126 -132 126h-152q-131 0 -131 -126v-417q0 -126 131 -126zM251 609h25q77 0 102.5 -26t25.5 -100v-90h-96v104q0 21 -8 26.5t-26 5.5h-19
q-12 0 -17.5 -1t-11 -8.5t-5.5 -22.5v-297q0 -20 8.5 -27t25.5 -7h19q17 0 25.5 6.5t8.5 27.5v117h96v-105q0 -74 -25.5 -100t-102.5 -26h-25q-76 0 -101 27t-25 102v265q0 75 25 102t101 27z" />
    <glyph glyph-name="ordfeminine" unicode="&#xaa;" horiz-adv-x="262" 
d="M131 704h10q58 1 76 -18t18 -67v-259q-51 -6 -103 -6h-15q-86 0 -86 75v74q0 44 18 60t58 16h52v38q0 15 -5 19.5t-15 4.5h-10q-10 0 -14.5 -4t-4.5 -18v-16h-70v16q0 47 18 66t73 19zM233 309v-72h-204v72h204zM125 420h34v104h-34q-18 0 -18 -27v-56q0 -21 18 -21z" />
    <glyph glyph-name="guillemotleft" unicode="&#xab;" horiz-adv-x="332" 
d="M230 106l-83 176v13l83 176h89l-68 -176v-13l68 -176h-89zM8 282v13l97 176h83l-75 -176v-13l75 -176h-83z" />
    <glyph glyph-name="registered" unicode="&#xae;" horiz-adv-x="346" 
d="M156 465v-102h-53v270h78q42 0 56 -12t14 -50v-37q0 -26 -7.5 -35.5t-27.5 -11.5q20 -3 27.5 -13.5t7.5 -36.5v-74h-54v80q0 22 -14 22h-27zM181 588h-25v-80h27q14 0 14 16v48q0 16 -16 16zM212 300h-72q-53 0 -78 21t-25 78v203q0 57 25 77.5t78 20.5h72
q53 0 78.5 -20.5t25.5 -77.5v-203q0 -57 -25.5 -78t-78.5 -21zM140 311h72q49 0 70.5 18.5t21.5 69.5v203q0 51 -22 69t-70 18h-72q-47 0 -69 -18t-22 -69v-203q0 -50 21.5 -69t69.5 -19z" />
    <glyph glyph-name="macron" unicode="&#xaf;" horiz-adv-x="500" 
d="M138 624v72h224v-72h-224z" />
    <glyph glyph-name="degree" unicode="&#xb0;" horiz-adv-x="263" 
d="M114 704h37q61 0 78 -22.5t17 -81.5v-146q0 -59 -17 -81.5t-78 -22.5h-37q-62 0 -79 22.5t-17 81.5v146q0 59 17 81.5t79 22.5zM148 639h-32q-15 0 -18.5 -5.5t-3.5 -21.5v-168q0 -17 3.5 -23t18.5 -6h32q15 0 19 6.5t4 22.5v168q0 16 -4 21.5t-19 5.5z" />
    <glyph glyph-name="plusminus" unicode="&#xb1;" horiz-adv-x="347" 
d="M17 392v86h113v111h86v-111h114v-86h-114v-113h-86v113h-113zM17 145v86h313v-86h-313z" />
    <glyph glyph-name="acute" unicode="&#xb4;" horiz-adv-x="500" 
d="M176 610l49 102h126l-92 -102h-83z" />
    <glyph glyph-name="paragraph" unicode="&#xb6;" horiz-adv-x="443" 
d="M195 0v308h-71q-44 0 -68 31.5t-24 71.5v187q0 41 22.5 71.5t69.5 30.5h288v-700h-75v613h-67v-613h-75z" />
    <glyph glyph-name="periodcentered" unicode="&#xb7;" horiz-adv-x="178" 
d="M33 268v139h112v-139h-112z" />
    <glyph glyph-name="cedilla" unicode="&#xb8;" horiz-adv-x="500" 
d="M290 0l-25 -122h-92l47 122h70z" />
    <glyph glyph-name="ordmasculine" unicode="&#xba;" horiz-adv-x="268" 
d="M126 704h17q58 0 77 -20t19 -68v-175q0 -47 -19 -67t-77 -20h-17q-58 0 -77 20t-19 67v175q0 48 19 68t77 20zM126 418h17q20 0 20 22v177q0 13 -4.5 17t-15.5 4h-17q-20 0 -20 -21v-177q0 -22 20 -22zM30 237v72h209v-72h-209z" />
    <glyph glyph-name="guillemotright" unicode="&#xbb;" horiz-adv-x="332" 
d="M186 282l-83 -176h-90l68 176v13l-68 176h90l83 -176v-13zM324 295v-13l-96 -176h-83l74 176v13l-74 176h83z" />
    <glyph glyph-name="questiondown" unicode="&#xbf;" horiz-adv-x="398" 
d="M204 -4h-20q-94 0 -131.5 32.5t-37.5 127.5v58q0 41 16.5 65.5t58.5 58.5q12 10 29 23t22.5 17.5t13.5 12.5t10 13.5t4 13.5t2 20v50h100v-89q0 -11 -2.5 -21t-5 -16t-11 -15.5t-11.5 -12.5t-15.5 -14t-15.5 -14q-8 -7 -21.5 -19.5t-18.5 -17.5t-13 -14.5t-11 -16.5
t-5.5 -16.5t-2.5 -21.5v-56q0 -27 10 -34.5t35 -7.5h24q24 0 34.5 8.5t10.5 35.5v88h121v-78q0 -95 -37.5 -127.5t-131.5 -32.5zM277 700v-142h-111v142h111z" />
    <glyph glyph-name="Agrave" unicode="&#xc0;" horiz-adv-x="427" 
d="M316 700l119 -700h-131l-22 129h-135l-21 -129h-132l119 700h203zM211 592l-52 -344h110l-52 344h-6zM209 835l48 -102h-83l-91 102h126z" />
    <glyph glyph-name="Aacute" unicode="&#xc1;" horiz-adv-x="427" 
d="M316 700l119 -700h-131l-22 129h-135l-21 -129h-132l119 700h203zM211 592l-52 -344h110l-52 344h-6zM164 733l49 102h126l-92 -102h-83z" />
    <glyph glyph-name="Acircumflex" unicode="&#xc2;" horiz-adv-x="427" 
d="M316 700l119 -700h-131l-22 129h-135l-21 -129h-132l119 700h203zM211 592l-52 -344h110l-52 344h-6zM91 733l65 102h118l65 -102h-84l-40 49l-40 -49h-84z" />
    <glyph glyph-name="Atilde" unicode="&#xc3;" horiz-adv-x="427" 
d="M316 700l119 -700h-131l-22 129h-135l-21 -129h-132l119 700h203zM211 592l-52 -344h110l-52 344h-6zM258 737l-87 51l-2 -50h-56l1 96h57l87 -31l2 30h57l-2 -96h-57z" />
    <glyph glyph-name="Adieresis" unicode="&#xc4;" horiz-adv-x="427" 
d="M316 700l119 -700h-131l-22 129h-135l-21 -129h-132l119 700h203zM211 592l-52 -344h110l-52 344h-6zM108 739v96h83v-96h-83zM235 739v96h83v-96h-83z" />
    <glyph glyph-name="Aring" unicode="&#xc5;" horiz-adv-x="427" 
d="M316 700l119 -700h-131l-22 129h-135l-21 -129h-132l119 700h203zM211 592l-52 -344h110l-52 344h-6zM203 874h22q44 0 57 -14t13 -54v-15q0 -40 -13 -54t-57 -14h-22q-43 0 -56 14t-13 54v15q0 40 13 54t56 14zM224 838h-19q-21 0 -26 -5t-5 -24v-21q0 -18 5 -23.5
t26 -5.5h19q21 0 26.5 5.5t5.5 23.5v21q0 19 -5.5 24t-26.5 5z" />
    <glyph glyph-name="AE" unicode="&#xc6;" horiz-adv-x="649" 
d="M318 0v135h-140l-40 -135h-130l221 700h402v-112h-181v-174h164v-113h-164v-188h181v-113h-313zM306 588l-98 -340h110v340h-12z" />
    <glyph glyph-name="Ccedilla" unicode="&#xc7;" horiz-adv-x="427" 
d="M203 704h23q106 0 141 -31.5t35 -128.5v-128h-131v136q0 27 -10.5 35t-34.5 8h-23q-23 0 -34 -8t-11 -35v-404q0 -27 11 -35t34 -8h23q24 0 34.5 8t10.5 35v156h131v-148q0 -91 -30.5 -124t-118.5 -35l-24 -119h-92l45 118q-92 2 -123.5 34.5t-31.5 125.5v388
q0 97 35.5 128.5t140.5 31.5z" />
    <glyph glyph-name="Egrave" unicode="&#xc8;" horiz-adv-x="362" 
d="M162 302v-190h182v-112h-313v700h313v-112h-182v-174h165v-112h-165zM202 835l48 -102h-83l-91 102h126z" />
    <glyph glyph-name="Eacute" unicode="&#xc9;" horiz-adv-x="362" 
d="M162 302v-190h182v-112h-313v700h313v-112h-182v-174h165v-112h-165zM130 733l49 102h126l-92 -102h-83z" />
    <glyph glyph-name="Ecircumflex" unicode="&#xca;" horiz-adv-x="362" 
d="M162 302v-190h182v-112h-313v700h313v-112h-182v-174h165v-112h-165zM63 733l65 102h118l65 -102h-84l-40 49l-40 -49h-84z" />
    <glyph glyph-name="Edieresis" unicode="&#xcb;" horiz-adv-x="362" 
d="M162 302v-190h182v-112h-313v700h313v-112h-182v-174h165v-112h-165zM85 739v96h83v-96h-83zM212 739v96h83v-96h-83z" />
    <glyph glyph-name="Igrave" unicode="&#xcc;" horiz-adv-x="193" 
d="M31 0v700h131v-700h-131zM100 835l48 -102h-83l-91 102h126z" />
    <glyph glyph-name="Iacute" unicode="&#xcd;" horiz-adv-x="193" 
d="M31 0v700h131v-700h-131zM45 733l49 102h126l-92 -102h-83z" />
    <glyph glyph-name="Icircumflex" unicode="&#xce;" horiz-adv-x="193" 
d="M-27 733l65 102h118l65 -102h-84l-40 49l-40 -49h-84zM31 0v700h131v-700h-131z" />
    <glyph glyph-name="Idieresis" unicode="&#xcf;" horiz-adv-x="193" 
d="M-8 739v96h83v-96h-83zM119 739v96h83v-96h-83zM31 0v700h131v-700h-131z" />
    <glyph glyph-name="Eth" unicode="&#xd0;" horiz-adv-x="441" 
d="M2 310v92h45v298h197q103 0 137.5 -31t34.5 -125v-388q0 -94 -34.5 -125t-137.5 -31h-197v310h-45zM244 591h-65l-1 -189h49v-92h-49v-201h66q21 0 31 8t10 33v403q0 24 -9.5 31t-31.5 7z" />
    <glyph glyph-name="Ntilde" unicode="&#xd1;" horiz-adv-x="438" 
d="M31 700h132l121 -386h1v386h123v-700h-137l-111 367h-1v-367h-128v700zM262 737l-87 51l-2 -50h-56l1 96h57l87 -31l2 30h57l-2 -96h-57z" />
    <glyph glyph-name="Ograve" unicode="&#xd2;" horiz-adv-x="432" 
d="M203 704h25q105 0 140.5 -31.5t35.5 -128.5v-388q0 -97 -35.5 -128.5t-140.5 -31.5h-25q-105 0 -140.5 32t-35.5 128v388q0 97 35.5 128.5t140.5 31.5zM205 105h22q24 0 35 8.5t11 35.5v402q0 27 -11 35.5t-35 8.5h-22q-24 0 -35 -8t-11 -36v-402q0 -28 11 -36t35 -8z
M216 835l48 -102h-83l-91 102h126z" />
    <glyph glyph-name="Oacute" unicode="&#xd3;" horiz-adv-x="432" 
d="M203 704h25q105 0 140.5 -31.5t35.5 -128.5v-388q0 -97 -35.5 -128.5t-140.5 -31.5h-25q-105 0 -140.5 32t-35.5 128v388q0 97 35.5 128.5t140.5 31.5zM205 105h22q24 0 35 8.5t11 35.5v402q0 27 -11 35.5t-35 8.5h-22q-24 0 -35 -8t-11 -36v-402q0 -28 11 -36t35 -8z
M163 733l49 102h126l-92 -102h-83z" />
    <glyph glyph-name="Ocircumflex" unicode="&#xd4;" horiz-adv-x="432" 
d="M203 704h25q105 0 140.5 -31.5t35.5 -128.5v-388q0 -97 -35.5 -128.5t-140.5 -31.5h-25q-105 0 -140.5 32t-35.5 128v388q0 97 35.5 128.5t140.5 31.5zM205 105h22q24 0 35 8.5t11 35.5v402q0 27 -11 35.5t-35 8.5h-22q-24 0 -35 -8t-11 -36v-402q0 -28 11 -36t35 -8z
M93 733l65 102h118l65 -102h-84l-40 49l-40 -49h-84z" />
    <glyph glyph-name="Otilde" unicode="&#xd5;" horiz-adv-x="432" 
d="M203 704h25q105 0 140.5 -31.5t35.5 -128.5v-388q0 -97 -35.5 -128.5t-140.5 -31.5h-25q-105 0 -140.5 32t-35.5 128v388q0 97 35.5 128.5t140.5 31.5zM205 105h22q24 0 35 8.5t11 35.5v402q0 27 -11 35.5t-35 8.5h-22q-24 0 -35 -8t-11 -36v-402q0 -28 11 -36t35 -8z
M260 737l-87 51l-2 -50h-56l1 96h57l87 -31l2 30h57l-2 -96h-57z" />
    <glyph glyph-name="Odieresis" unicode="&#xd6;" horiz-adv-x="432" 
d="M203 704h25q105 0 140.5 -31.5t35.5 -128.5v-388q0 -97 -35.5 -128.5t-140.5 -31.5h-25q-105 0 -140.5 32t-35.5 128v388q0 97 35.5 128.5t140.5 31.5zM205 105h22q24 0 35 8.5t11 35.5v402q0 27 -11 35.5t-35 8.5h-22q-24 0 -35 -8t-11 -36v-402q0 -28 11 -36t35 -8z
M112 739v96h83v-96h-83zM239 739v96h83v-96h-83z" />
    <glyph glyph-name="multiply" unicode="&#xd7;" horiz-adv-x="340" 
d="M256 505l62 -60l-87 -87l83 -84l-60 -61l-85 84l-86 -86l-60 62l86 85l-83 84l61 61l82 -84z" />
    <glyph glyph-name="Oslash" unicode="&#xd8;" horiz-adv-x="432" 
d="M203 704h25q54 0 88 -7l14 39h70l-26 -69q30 -33 30 -123v-388q0 -97 -35.5 -128.5t-140.5 -31.5h-25q-59 0 -91 8l-15 -38h-69l28 68q-29 35 -29 122v388q0 97 35.5 128.5t140.5 31.5zM159 551v-295l112 315q-7 24 -44 24h-22q-24 0 -35 -8t-11 -36zM205 105h22
q24 0 35 8.5t11 35.5v290l-111 -313q7 -21 43 -21z" />
    <glyph glyph-name="Ugrave" unicode="&#xd9;" horiz-adv-x="432" 
d="M27 700h132v-549q0 -29 8 -37.5t30 -8.5h38q22 0 30 8.5t8 37.5v549h131v-544q0 -97 -35.5 -128.5t-140.5 -31.5h-25q-105 0 -140.5 31.5t-35.5 128.5v544zM229 835l48 -102h-83l-91 102h126z" />
    <glyph glyph-name="Uacute" unicode="&#xda;" horiz-adv-x="432" 
d="M27 700h132v-549q0 -29 8 -37.5t30 -8.5h38q22 0 30 8.5t8 37.5v549h131v-544q0 -97 -35.5 -128.5t-140.5 -31.5h-25q-105 0 -140.5 31.5t-35.5 128.5v544zM165 733l49 102h126l-92 -102h-83z" />
    <glyph glyph-name="Ucircumflex" unicode="&#xdb;" horiz-adv-x="432" 
d="M27 700h132v-549q0 -29 8 -37.5t30 -8.5h38q22 0 30 8.5t8 37.5v549h131v-544q0 -97 -35.5 -128.5t-140.5 -31.5h-25q-105 0 -140.5 31.5t-35.5 128.5v544zM93 733l65 102h118l65 -102h-84l-40 49l-40 -49h-84z" />
    <glyph glyph-name="Udieresis" unicode="&#xdc;" horiz-adv-x="432" 
d="M27 700h132v-549q0 -29 8 -37.5t30 -8.5h38q22 0 30 8.5t8 37.5v549h131v-544q0 -97 -35.5 -128.5t-140.5 -31.5h-25q-105 0 -140.5 31.5t-35.5 128.5v544zM112 739v96h83v-96h-83zM239 739v96h83v-96h-83z" />
    <glyph glyph-name="Yacute" unicode="&#xdd;" horiz-adv-x="432" 
d="M150 0v265l-145 435h132l78 -281l80 281h132l-145 -435v-265h-132zM170 733l49 102h126l-92 -102h-83z" />
    <glyph glyph-name="Thorn" unicode="&#xde;" horiz-adv-x="407" 
d="M29 0v700h131v-112h64q102 0 136 -30.5t34 -122.5v-165q0 -92 -33.5 -122t-136.5 -30h-64v-118h-131zM224 480h-64v-254h64q20 0 29 8.5t9 31.5v174q0 23 -9 31.5t-29 8.5z" />
    <glyph glyph-name="germandbls" unicode="&#xdf;" horiz-adv-x="438" 
d="M215 598q-21 0 -31 -7.5t-10 -32.5v-558h-125v486l-46 10v81h50v19q0 49 37.5 76.5t91.5 27.5h51q104 0 138 -30.5t34 -125.5v-57q0 -63 -18 -88.5t-67 -30.5q54 -5 73.5 -29.5t19.5 -91.5v-91q0 -45 -5.5 -72.5t-15 -45t-32.5 -25.5t-48 -10.5t-72 -2.5h-36v99h43
q21 0 31 9t10 34v129q0 43 -42 43h-42v102h35q21 0 31 9t10 34v99q0 25 -10 32.5t-31 7.5h-24z" />
    <glyph glyph-name="agrave" unicode="&#xe0;" horiz-adv-x="392" 
d="M191 581h17q97 1 126.5 -30.5t29.5 -110.5v-430q-115 -14 -185 -14h-24q-67 0 -99 28.5t-32 99.5v113q0 71 29.5 99t95.5 28h90v74q0 25 -8 32t-26 7h-17q-12 0 -18 -1.5t-10.5 -9.5t-4.5 -24v-46h-116v44q0 80 28 110.5t124 30.5zM149 233v-89q0 -20 6.5 -29t23.5 -9h19
q39 0 41 1v166h-60q-30 0 -30 -40zM216 712l48 -102h-83l-91 102h126z" />
    <glyph glyph-name="aacute" unicode="&#xe1;" horiz-adv-x="392" 
d="M191 581h17q97 1 126.5 -30.5t29.5 -110.5v-430q-115 -14 -185 -14h-24q-67 0 -99 28.5t-32 99.5v113q0 71 29.5 99t95.5 28h90v74q0 25 -8 32t-26 7h-17q-12 0 -18 -1.5t-10.5 -9.5t-4.5 -24v-46h-116v44q0 80 28 110.5t124 30.5zM149 233v-89q0 -20 6.5 -29t23.5 -9h19
q39 0 41 1v166h-60q-30 0 -30 -40zM147 610l49 102h126l-92 -102h-83z" />
    <glyph glyph-name="acircumflex" unicode="&#xe2;" horiz-adv-x="392" 
d="M191 581h17q97 1 126.5 -30.5t29.5 -110.5v-430q-115 -14 -185 -14h-24q-67 0 -99 28.5t-32 99.5v113q0 71 29.5 99t95.5 28h90v74q0 25 -8 32t-26 7h-17q-12 0 -18 -1.5t-10.5 -9.5t-4.5 -24v-46h-116v44q0 80 28 110.5t124 30.5zM149 233v-89q0 -20 6.5 -29t23.5 -9h19
q39 0 41 1v166h-60q-30 0 -30 -40zM76 610l65 102h118l65 -102h-84l-40 49l-40 -49h-84z" />
    <glyph glyph-name="atilde" unicode="&#xe3;" horiz-adv-x="392" 
d="M191 581h17q97 1 126.5 -30.5t29.5 -110.5v-430q-115 -14 -185 -14h-24q-67 0 -99 28.5t-32 99.5v113q0 71 29.5 99t95.5 28h90v74q0 25 -8 32t-26 7h-17q-12 0 -18 -1.5t-10.5 -9.5t-4.5 -24v-46h-116v44q0 80 28 110.5t124 30.5zM149 233v-89q0 -20 6.5 -29t23.5 -9h19
q39 0 41 1v166h-60q-30 0 -30 -40zM243 614l-87 51l-2 -50h-56l1 96h57l87 -31l2 30h57l-2 -96h-57z" />
    <glyph glyph-name="adieresis" unicode="&#xe4;" horiz-adv-x="392" 
d="M191 581h17q97 1 126.5 -30.5t29.5 -110.5v-430q-115 -14 -185 -14h-24q-67 0 -99 28.5t-32 99.5v113q0 71 29.5 99t95.5 28h90v74q0 25 -8 32t-26 7h-17q-12 0 -18 -1.5t-10.5 -9.5t-4.5 -24v-46h-116v44q0 80 28 110.5t124 30.5zM149 233v-89q0 -20 6.5 -29t23.5 -9h19
q39 0 41 1v166h-60q-30 0 -30 -40zM92 616v96h83v-96h-83zM219 616v96h83v-96h-83z" />
    <glyph glyph-name="aring" unicode="&#xe5;" horiz-adv-x="392" 
d="M191 581h17q97 1 126.5 -30.5t29.5 -110.5v-430q-115 -14 -185 -14h-24q-67 0 -99 28.5t-32 99.5v113q0 71 29.5 99t95.5 28h90v74q0 25 -8 32t-26 7h-17q-12 0 -18 -1.5t-10.5 -9.5t-4.5 -24v-46h-116v44q0 80 28 110.5t124 30.5zM149 233v-89q0 -20 6.5 -29t23.5 -9h19
q39 0 41 1v166h-60q-30 0 -30 -40zM183 755h22q44 0 57 -14t13 -54v-15q0 -40 -13 -54t-57 -14h-22q-43 0 -56 14t-13 54v15q0 40 13 54t56 14zM204 719h-19q-21 0 -26 -5t-5 -24v-21q0 -19 5 -24t26 -5h19q21 0 26.5 5.5t5.5 23.5v21q0 19 -5.5 24t-26.5 5z" />
    <glyph glyph-name="ae" unicode="&#xe6;" horiz-adv-x="614" 
d="M199 580h15q70 0 95 -25q27 26 97 26h21q97 0 128.5 -31.5t31.5 -109.5v-216l-217 -3v-87q0 -22 8.5 -30t27.5 -8h29q18 0 26 8t8 30v53h118v-50q0 -76 -30 -108t-122 -33h-29q-61 -1 -90 6.5t-43 32.5q-45 -39 -94 -39h-24q-67 0 -99 28.5t-32 99.5v100q0 71 29.5 99
t95.5 28h97v91q-1 21 -8.5 28t-23.5 7h-25q-17 -1 -24 -8t-7 -29v-44h-112v44q0 79 28.5 109.5t124.5 30.5zM406 481q-36 0 -36 -32v-129h96v123q0 22 -8.5 30t-27.5 8h-24zM246 127v131h-64q-33 0 -33 -46v-68q0 -38 33 -38h16q15 0 48 21z" />
    <glyph glyph-name="ccedilla" unicode="&#xe7;" horiz-adv-x="397" 
d="M187 580h23q97 0 128.5 -31t31.5 -109v-100h-124v99q0 22 -8.5 30t-27.5 8h-23q-18 0 -26.5 -8t-8.5 -30v-301q0 -22 8.5 -30t26.5 -8h23q19 0 27.5 8t8.5 30v102h124v-103q0 -74 -27.5 -105.5t-110.5 -34.5l-24 -119h-92l45 119q-81 4 -107.5 35.5t-26.5 104.5v303
q0 78 31.5 109t128.5 31z" />
    <glyph glyph-name="egrave" unicode="&#xe8;" horiz-adv-x="395" 
d="M187 580h22q97 0 128 -31t31 -109v-203l-216 -3v-98q0 -22 8.5 -30t26.5 -8h25q18 0 26.5 8t8.5 30v51h121v-50q0 -78 -31 -109.5t-128 -31.5h-22q-97 0 -128.5 31.5t-31.5 109.5v303q0 78 31.5 109t128.5 31zM187 478q-18 0 -26.5 -8t-8.5 -29v-105h92v105q0 21 -8.5 29
t-26.5 8h-22zM201 712l48 -102h-83l-91 102h126z" />
    <glyph glyph-name="eacute" unicode="&#xe9;" horiz-adv-x="395" 
d="M187 580h22q97 0 128 -31t31 -109v-203l-216 -3v-98q0 -22 8.5 -30t26.5 -8h25q18 0 26.5 8t8.5 30v51h121v-50q0 -78 -31 -109.5t-128 -31.5h-22q-97 0 -128.5 31.5t-31.5 109.5v303q0 78 31.5 109t128.5 31zM187 478q-18 0 -26.5 -8t-8.5 -29v-105h92v105q0 21 -8.5 29
t-26.5 8h-22zM148 610l49 102h126l-92 -102h-83z" />
    <glyph glyph-name="ecircumflex" unicode="&#xea;" horiz-adv-x="395" 
d="M187 580h22q97 0 128 -31t31 -109v-203l-216 -3v-98q0 -22 8.5 -30t26.5 -8h25q18 0 26.5 8t8.5 30v51h121v-50q0 -78 -31 -109.5t-128 -31.5h-22q-97 0 -128.5 31.5t-31.5 109.5v303q0 78 31.5 109t128.5 31zM187 478q-18 0 -26.5 -8t-8.5 -29v-105h92v105q0 21 -8.5 29
t-26.5 8h-22zM75 610l65 102h118l65 -102h-84l-40 49l-40 -49h-84z" />
    <glyph glyph-name="edieresis" unicode="&#xeb;" horiz-adv-x="395" 
d="M187 580h22q97 0 128 -31t31 -109v-203l-216 -3v-98q0 -22 8.5 -30t26.5 -8h25q18 0 26.5 8t8.5 30v51h121v-50q0 -78 -31 -109.5t-128 -31.5h-22q-97 0 -128.5 31.5t-31.5 109.5v303q0 78 31.5 109t128.5 31zM187 478q-18 0 -26.5 -8t-8.5 -29v-105h92v105q0 21 -8.5 29
t-26.5 8h-22zM94 616v96h83v-96h-83zM221 616v96h83v-96h-83z" />
    <glyph glyph-name="igrave" unicode="&#xec;" horiz-adv-x="181" 
d="M29 0v577h124v-577h-124zM87 712l48 -102h-83l-91 102h126z" />
    <glyph glyph-name="iacute" unicode="&#xed;" horiz-adv-x="181" 
d="M29 0v577h124v-577h-124zM47 610l49 102h126l-92 -102h-83z" />
    <glyph glyph-name="icircumflex" unicode="&#xee;" horiz-adv-x="181" 
d="M-32 610l65 102h118l65 -102h-84l-40 49l-40 -49h-84zM29 0v577h124v-577h-124z" />
    <glyph glyph-name="idieresis" unicode="&#xef;" horiz-adv-x="181" 
d="M-13 616v96h83v-96h-83zM114 616v96h83v-96h-83zM29 0v577h124v-577h-124z" />
    <glyph glyph-name="eth" unicode="&#xf0;" horiz-adv-x="399" 
d="M212 -4h-25q-97 0 -128.5 31t-31.5 108v312q0 73 28.5 103.5t92.5 30.5q86 -3 99 -4v6q0 40 -5 49l-65 -25l-21 49l67 26q-13 19 -47 53l83 28q38 -26 56 -43l61 23l21 -49l-49 -19q24 -37 24 -88v-452q0 -77 -31.5 -108t-128.5 -31zM187 100h25q19 0 27 7.5t8 29.5v334
h-62q-33 0 -33 -37v-297q0 -21 8.5 -29t26.5 -8z" />
    <glyph glyph-name="ntilde" unicode="&#xf1;" 
d="M243 614l-87 51l-2 -50h-56l1 96h57l87 -31l2 30h57l-2 -96h-57zM247 0v434q0 37 -32 37h-62v-471h-125v577q116 4 189 4h24q67 0 99 -28t32 -99v-454h-125z" />
    <glyph glyph-name="ograve" unicode="&#xf2;" horiz-adv-x="399" 
d="M187 581h25q97 0 128.5 -31.5t31.5 -109.5v-303q0 -78 -31.5 -109.5t-128.5 -31.5h-25q-97 0 -128.5 31.5t-31.5 109.5v303q0 78 31.5 109.5t128.5 31.5zM187 100h25q19 0 27 8t8 30l1 302q0 22 -8 29.5t-27 7.5h-25q-19 0 -27 -7.5t-8 -29.5l-1 -302q0 -22 8.5 -30
t26.5 -8zM209 712l48 -102h-83l-91 102h126z" />
    <glyph glyph-name="oacute" unicode="&#xf3;" horiz-adv-x="399" 
d="M187 581h25q97 0 128.5 -31.5t31.5 -109.5v-303q0 -78 -31.5 -109.5t-128.5 -31.5h-25q-97 0 -128.5 31.5t-31.5 109.5v303q0 78 31.5 109.5t128.5 31.5zM187 100h25q19 0 27 8t8 30l1 302q0 22 -8 29.5t-27 7.5h-25q-19 0 -27 -7.5t-8 -29.5l-1 -302q0 -22 8.5 -30
t26.5 -8zM151 610l49 102h126l-92 -102h-83z" />
    <glyph glyph-name="ocircumflex" unicode="&#xf4;" horiz-adv-x="399" 
d="M187 581h25q97 0 128.5 -31.5t31.5 -109.5v-303q0 -78 -31.5 -109.5t-128.5 -31.5h-25q-97 0 -128.5 31.5t-31.5 109.5v303q0 78 31.5 109.5t128.5 31.5zM187 100h25q19 0 27 8t8 30l1 302q0 22 -8 29.5t-27 7.5h-25q-19 0 -27 -7.5t-8 -29.5l-1 -302q0 -22 8.5 -30
t26.5 -8zM77 610l65 102h118l65 -102h-84l-40 49l-40 -49h-84z" />
    <glyph glyph-name="otilde" unicode="&#xf5;" horiz-adv-x="399" 
d="M187 581h25q97 0 128.5 -31.5t31.5 -109.5v-303q0 -78 -31.5 -109.5t-128.5 -31.5h-25q-97 0 -128.5 31.5t-31.5 109.5v303q0 78 31.5 109.5t128.5 31.5zM187 100h25q19 0 27 8t8 30l1 302q0 22 -8 29.5t-27 7.5h-25q-19 0 -27 -7.5t-8 -29.5l-1 -302q0 -22 8.5 -30
t26.5 -8zM244 614l-87 51l-2 -50h-56l1 96h57l87 -31l2 30h57l-2 -96h-57z" />
    <glyph glyph-name="odieresis" unicode="&#xf6;" horiz-adv-x="399" 
d="M187 581h25q97 0 128.5 -31.5t31.5 -109.5v-303q0 -78 -31.5 -109.5t-128.5 -31.5h-25q-97 0 -128.5 31.5t-31.5 109.5v303q0 78 31.5 109.5t128.5 31.5zM187 100h25q19 0 27 8t8 30l1 302q0 22 -8 29.5t-27 7.5h-25q-19 0 -27 -7.5t-8 -29.5l-1 -302q0 -22 8.5 -30
t26.5 -8zM96 616v96h83v-96h-83zM223 616v96h83v-96h-83z" />
    <glyph glyph-name="divide" unicode="&#xf7;" horiz-adv-x="341" 
d="M17 316v86h313v-86h-313zM134 445v93h83v-93h-83zM134 179v93h83v-93h-83z" />
    <glyph glyph-name="oslash" unicode="&#xf8;" horiz-adv-x="399" 
d="M187 581h25q36 0 68 -5l17 41h64l-29 -61q40 -29 40 -116v-303q0 -78 -31.5 -109.5t-128.5 -31.5h-25q-48 0 -82 8l-17 -33h-63l29 60q-27 28 -27 106v303q0 78 31.5 109.5t128.5 31.5zM187 100h25q19 0 27 8t8 30l1 242l-96 -254q4 -26 35 -26zM153 440l-1 -202l88 231
q-8 8 -27 8h-25q-19 0 -27 -7.5t-8 -29.5z" />
    <glyph glyph-name="ugrave" unicode="&#xf9;" horiz-adv-x="399" 
d="M152 577v-433q0 -38 32 -38h62v471h125v-577q-127 -4 -188 -4h-25q-67 0 -99 28.5t-32 99.5v453h125zM209 712l48 -102h-83l-91 102h126z" />
    <glyph glyph-name="uacute" unicode="&#xfa;" horiz-adv-x="399" 
d="M152 577v-433q0 -38 32 -38h62v471h125v-577q-127 -4 -188 -4h-25q-67 0 -99 28.5t-32 99.5v453h125zM147 610l49 102h126l-92 -102h-83z" />
    <glyph glyph-name="ucircumflex" unicode="&#xfb;" horiz-adv-x="399" 
d="M152 577v-433q0 -38 32 -38h62v471h125v-577q-127 -4 -188 -4h-25q-67 0 -99 28.5t-32 99.5v453h125zM76 610l65 102h118l65 -102h-84l-40 49l-40 -49h-84z" />
    <glyph glyph-name="udieresis" unicode="&#xfc;" horiz-adv-x="399" 
d="M152 577v-433q0 -38 32 -38h62v471h125v-577q-127 -4 -188 -4h-25q-67 0 -99 28.5t-32 99.5v453h125zM96 616v96h83v-96h-83zM223 616v96h83v-96h-83z" />
    <glyph glyph-name="yacute" unicode="&#xfd;" horiz-adv-x="405" 
d="M104 7l-106 570h131l70 -426h3l78 426h120l-131 -704h-118l25 134h-72zM156 610l49 102h126l-92 -102h-83z" />
    <glyph glyph-name="thorn" unicode="&#xfe;" 
d="M28 -123v824h125v-124h106q63 0 88.5 -31t25.5 -105v-297q0 -76 -26 -111t-88 -35h-25l-81 2v-123h-125zM216 471h-63v-365h63q32 0 32 38v290q0 37 -32 37z" />
    <glyph glyph-name="ydieresis" unicode="&#xff;" horiz-adv-x="405" 
d="M104 7l-106 570h131l70 -426h3l78 426h120l-131 -704h-118l25 134h-72zM96 616v96h83v-96h-83zM223 616v96h83v-96h-83z" />
    <glyph glyph-name="Amacron" unicode="&#x100;" horiz-adv-x="427" 
d="M316 700l119 -700h-131l-22 129h-135l-21 -129h-132l119 700h203zM211 592l-52 -344h110l-52 344h-6zM103 747v72h224v-72h-224z" />
    <glyph glyph-name="amacron" unicode="&#x101;" horiz-adv-x="392" 
d="M191 581h17q97 1 126.5 -30.5t29.5 -110.5v-430q-115 -14 -185 -14h-24q-67 0 -99 28.5t-32 99.5v113q0 71 29.5 99t95.5 28h90v74q0 25 -8 32t-26 7h-17q-12 0 -18 -1.5t-10.5 -9.5t-4.5 -24v-46h-116v44q0 80 28 110.5t124 30.5zM149 233v-89q0 -20 6.5 -29t23.5 -9h19
q39 0 41 1v166h-60q-30 0 -30 -40zM92 624v72h224v-72h-224z" />
    <glyph glyph-name="Abreve" unicode="&#x102;" horiz-adv-x="427" 
d="M316 700l119 -700h-131l-22 129h-135l-21 -129h-132l119 700h203zM211 592l-52 -344h110l-52 344h-6zM234 730h-38q-59 0 -77.5 19.5t-18.5 75.5v12h76v-20q0 -25 23 -25h32q24 0 24 25v20h74v-12q0 -56 -18.5 -75.5t-76.5 -19.5z" />
    <glyph glyph-name="abreve" unicode="&#x103;" horiz-adv-x="392" 
d="M191 581h17q97 1 126.5 -30.5t29.5 -110.5v-430q-115 -14 -185 -14h-24q-67 0 -99 28.5t-32 99.5v113q0 71 29.5 99t95.5 28h90v74q0 25 -8 32t-26 7h-17q-12 0 -18 -1.5t-10.5 -9.5t-4.5 -24v-46h-116v44q0 80 28 110.5t124 30.5zM149 233v-89q0 -20 6.5 -29t23.5 -9h19
q39 0 41 1v166h-60q-30 0 -30 -40zM223 607h-38q-59 0 -77.5 19.5t-18.5 75.5v12h76v-20q0 -25 23 -25h32q24 0 24 25v20h74v-12q0 -56 -18.5 -75.5t-76.5 -19.5z" />
    <glyph glyph-name="Aogonek" unicode="&#x104;" horiz-adv-x="427" 
d="M411 -48v-16q0 -38 -10 -54.5t-46 -16.5h-58q-38 0 -49 12t-11 46v12q0 16 6 26t12 14t22 13l28 12h-1l-22 129h-135l-21 -129h-132l119 700h203l119 -700h-57l-51 -30l-7.5 -5l-6 -4l-4.5 -3t-3.5 -3t-2 -3t-1.5 -3.5v-4.5v-5v-7.5t1.5 -5t4 -3t6.5 -0.5h22q8 0 9.5 2
t1.5 9v3v15h64zM211 592l-52 -344h110l-52 344h-6z" />
    <glyph glyph-name="aogonek" unicode="&#x105;" horiz-adv-x="392" 
d="M363 -35v-16q0 -38 -10 -54.5t-46 -16.5h-58q-38 0 -49 12t-11 46v12q0 20 7.5 29.5t25.5 19.5q-16 -1 -43 -1h-24q-67 0 -99 28.5t-32 99.5v113q0 71 29.5 99t95.5 28h90v74q0 25 -8 32t-26 7h-17q-12 0 -18 -1.5t-10.5 -9.5t-4.5 -24v-46h-116v44q0 80 28 110.5
t124 30.5h17q97 1 126.5 -30.5t29.5 -110.5v-430q-22 -3 -48 -6l-37 -21l-7.5 -5l-6 -4l-4.5 -3t-3.5 -3t-2 -3t-1.5 -3.5v-4.5v-5v-6t0.5 -4.5t2 -3.5t3.5 -1.5t6 -0.5h22q8 0 9.5 2t1.5 9v3v15h64zM149 233v-89q0 -20 6.5 -29t23.5 -9h19q39 0 41 1v166h-60q-30 0 -30 -40
z" />
    <glyph glyph-name="Cacute" unicode="&#x106;" horiz-adv-x="427" 
d="M203 704h23q106 0 141 -31.5t35 -128.5v-128h-131v136q0 27 -10.5 35t-34.5 8h-23q-23 0 -34 -8t-11 -35v-404q0 -27 11 -35t34 -8h23q24 0 34.5 8t10.5 35v156h131v-148q0 -97 -35 -128.5t-141 -31.5h-23q-105 0 -140.5 31.5t-35.5 128.5v388q0 97 35.5 128.5
t140.5 31.5zM172 733l49 102h126l-92 -102h-83z" />
    <glyph glyph-name="cacute" unicode="&#x107;" horiz-adv-x="403" 
d="M187 580h23q97 0 128.5 -31t31.5 -109v-100h-124v99q0 22 -8.5 30t-27.5 8h-23q-18 0 -26.5 -8t-8.5 -30v-301q0 -22 8.5 -30t26.5 -8h23q19 0 27.5 8t8.5 30v102h124v-103q0 -78 -31.5 -109.5t-128.5 -31.5h-23q-97 0 -128.5 31.5t-31.5 109.5v303q0 78 31.5 109
t128.5 31zM159 610l49 102h126l-92 -102h-83z" />
    <glyph glyph-name="Cdotaccent" unicode="&#x10a;" horiz-adv-x="427" 
d="M203 704h23q106 0 141 -31.5t35 -128.5v-128h-131v136q0 27 -10.5 35t-34.5 8h-23q-23 0 -34 -8t-11 -35v-404q0 -27 11 -35t34 -8h23q24 0 34.5 8t10.5 35v156h131v-148q0 -97 -35 -128.5t-141 -31.5h-23q-105 0 -140.5 31.5t-35.5 128.5v388q0 97 35.5 128.5
t140.5 31.5zM176 743v92h80v-92h-80z" />
    <glyph glyph-name="cdotaccent" unicode="&#x10b;" horiz-adv-x="397" 
d="M187 580h23q97 0 128.5 -31t31.5 -109v-100h-124v99q0 22 -8.5 30t-27.5 8h-23q-18 0 -26.5 -8t-8.5 -30v-301q0 -22 8.5 -30t26.5 -8h23q19 0 27.5 8t8.5 30v102h124v-103q0 -78 -31.5 -109.5t-128.5 -31.5h-23q-97 0 -128.5 31.5t-31.5 109.5v303q0 78 31.5 109
t128.5 31zM160 620v92h80v-92h-80z" />
    <glyph glyph-name="Ccaron" unicode="&#x10c;" horiz-adv-x="427" 
d="M203 704h23q106 0 141 -31.5t35 -128.5v-128h-131v136q0 27 -10.5 35t-34.5 8h-23q-23 0 -34 -8t-11 -35v-404q0 -27 11 -35t34 -8h23q24 0 34.5 8t10.5 35v156h131v-148q0 -97 -35 -128.5t-141 -31.5h-23q-105 0 -140.5 31.5t-35.5 128.5v388q0 97 35.5 128.5
t140.5 31.5zM157 733l-65 102h84l40 -49l40 49h84l-65 -102h-118z" />
    <glyph glyph-name="ccaron" unicode="&#x10d;" horiz-adv-x="397" 
d="M187 580h23q97 0 128.5 -31t31.5 -109v-100h-124v99q0 22 -8.5 30t-27.5 8h-23q-18 0 -26.5 -8t-8.5 -30v-301q0 -22 8.5 -30t26.5 -8h23q19 0 27.5 8t8.5 30v102h124v-103q0 -78 -31.5 -109.5t-128.5 -31.5h-23q-97 0 -128.5 31.5t-31.5 109.5v303q0 78 31.5 109
t128.5 31zM141 610l-65 102h84l40 -49l40 49h84l-65 -102h-118z" />
    <glyph glyph-name="Dcaron" unicode="&#x10e;" horiz-adv-x="423" 
d="M29 0v700h197q103 0 137.5 -31t34.5 -125v-388q0 -94 -34.5 -125t-137.5 -31h-197zM226 591h-65l-1 -482h66q21 0 31 8t10 33v403q0 24 -9.5 31t-31.5 7zM153 733l-65 102h84l40 -49l40 49h84l-65 -102h-118z" />
    <glyph glyph-name="dcaron" unicode="&#x10f;" horiz-adv-x="404" 
d="M396 635v89h68v-77q0 -27 -9.5 -46.5t-32.5 -49.5l-29 14l9.5 19t7 13.5t4.5 10t3 11.5t1 16h-22zM28 124v330q0 71 28.5 97t95.5 26h96v146h125v-723q-114 -4 -189 -4h-25q-67 0 -99 28.5t-32 99.5zM248 106v365h-63q-33 0 -33 -37v-290q0 -38 33 -38h63z" />
    <glyph glyph-name="Dcroat" unicode="&#x110;" horiz-adv-x="441" 
d="M2 310v92h45v298h197q103 0 137.5 -31t34.5 -125v-388q0 -94 -34.5 -125t-137.5 -31h-197v310h-45zM244 591h-65l-1 -189h49v-92h-49v-201h66q21 0 31 8t10 33v403q0 24 -9.5 31t-31.5 7z" />
    <glyph glyph-name="dcroat" unicode="&#x111;" horiz-adv-x="409" 
d="M176 625v59h72v39h125v-39h29v-59h-29v-625q-114 -4 -189 -4h-25q-67 0 -99 28.5t-32 99.5v330q0 71 28.5 97t95.5 26h96v48h-72zM248 106v365h-63q-33 0 -33 -37v-290q0 -38 33 -38h63z" />
    <glyph glyph-name="Emacron" unicode="&#x112;" horiz-adv-x="362" 
d="M162 302v-190h182v-112h-313v700h313v-112h-182v-174h165v-112h-165zM74 747v72h224v-72h-224z" />
    <glyph glyph-name="emacron" unicode="&#x113;" horiz-adv-x="395" 
d="M187 580h22q97 0 128 -31t31 -109v-203l-216 -3v-98q0 -22 8.5 -30t26.5 -8h25q18 0 26.5 8t8.5 30v51h121v-50q0 -78 -31 -109.5t-128 -31.5h-22q-97 0 -128.5 31.5t-31.5 109.5v303q0 78 31.5 109t128.5 31zM187 478q-18 0 -26.5 -8t-8.5 -29v-105h92v105q0 21 -8.5 29
t-26.5 8h-22zM87 624v72h224v-72h-224z" />
    <glyph glyph-name="Ebreve" unicode="&#x114;" horiz-adv-x="362" 
d="M162 302v-190h182v-112h-313v700h313v-112h-182v-174h165v-112h-165zM207 730h-38q-59 0 -77.5 19.5t-18.5 75.5v12h76v-20q0 -25 23 -25h32q24 0 24 25v20h74v-12q0 -56 -18.5 -75.5t-76.5 -19.5z" />
    <glyph glyph-name="ebreve" unicode="&#x115;" horiz-adv-x="395" 
d="M187 580h22q97 0 128 -31t31 -109v-203l-216 -3v-98q0 -22 8.5 -30t26.5 -8h25q18 0 26.5 8t8.5 30v51h121v-50q0 -78 -31 -109.5t-128 -31.5h-22q-97 0 -128.5 31.5t-31.5 109.5v303q0 78 31.5 109t128.5 31zM187 478q-18 0 -26.5 -8t-8.5 -29v-105h92v105q0 21 -8.5 29
t-26.5 8h-22zM218 607h-38q-59 0 -77.5 19.5t-18.5 75.5v12h76v-20q0 -25 23 -25h32q24 0 24 25v20h74v-12q0 -56 -18.5 -75.5t-76.5 -19.5z" />
    <glyph glyph-name="Edotaccent" unicode="&#x116;" horiz-adv-x="362" 
d="M162 302v-190h182v-112h-313v700h313v-112h-182v-174h165v-112h-165zM148 743v92h80v-92h-80z" />
    <glyph glyph-name="edotaccent" unicode="&#x117;" horiz-adv-x="395" 
d="M187 580h22q97 0 128 -31t31 -109v-203l-216 -3v-98q0 -22 8.5 -30t26.5 -8h25q18 0 26.5 8t8.5 30v51h121v-50q0 -78 -31 -109.5t-128 -31.5h-22q-97 0 -128.5 31.5t-31.5 109.5v303q0 78 31.5 109t128.5 31zM187 478q-18 0 -26.5 -8t-8.5 -29v-105h92v105q0 21 -8.5 29
t-26.5 8h-22zM159 620v92h80v-92h-80z" />
    <glyph glyph-name="Eogonek" unicode="&#x118;" horiz-adv-x="362" 
d="M162 302v-190h182v-112l-51 -30l-7.5 -5l-6 -4l-4.5 -3t-3.5 -3t-2 -3t-1.5 -3.5v-4.5v-5v-7.5t1.5 -5t4 -3t6.5 -0.5h22q8 0 9.5 2t1.5 9v3v15h64v-16q0 -38 -10 -54.5t-46 -16.5h-58q-38 0 -49 12t-11 46v12q0 16 6 26t12 14t22 13l28 12h-240v700h313v-112h-182v-174
h165v-112h-165z" />
    <glyph glyph-name="eogonek" unicode="&#x119;" horiz-adv-x="395" 
d="M187 580h22q97 0 128 -31t31 -109v-203l-216 -3v-98q0 -22 8.5 -30t26.5 -8h25q18 0 26.5 8t8.5 30v51h121v-50q0 -68 -22.5 -100t-89.5 -39l-48 -28l-7.5 -5l-6 -4l-4.5 -3t-3.5 -3t-2 -3t-1.5 -3.5v-4.5v-5v-7.5t1.5 -5t3.5 -3t7 -0.5h22q8 0 9.5 2t1.5 9v3v15h64v-16
q0 -38 -10 -54.5t-46 -16.5h-58q-38 0 -49 12t-11 46v12q0 16 6 26t12 14t22 13l20 8q-91 1 -121 33t-30 108v303q0 78 31.5 109t128.5 31zM187 478q-18 0 -26.5 -8t-8.5 -29v-105h92v105q0 21 -8.5 29t-26.5 8h-22z" />
    <glyph glyph-name="Ecaron" unicode="&#x11a;" horiz-adv-x="362" 
d="M162 302v-190h182v-112h-313v700h313v-112h-182v-174h165v-112h-165zM130 733l-65 102h84l40 -49l40 49h84l-65 -102h-118z" />
    <glyph glyph-name="ecaron" unicode="&#x11b;" horiz-adv-x="395" 
d="M187 580h22q97 0 128 -31t31 -109v-203l-216 -3v-98q0 -22 8.5 -30t26.5 -8h25q18 0 26.5 8t8.5 30v51h121v-50q0 -78 -31 -109.5t-128 -31.5h-22q-97 0 -128.5 31.5t-31.5 109.5v303q0 78 31.5 109t128.5 31zM187 478q-18 0 -26.5 -8t-8.5 -29v-105h92v105q0 21 -8.5 29
t-26.5 8h-22zM140 610l-65 102h84l40 -49l40 49h84l-65 -102h-118z" />
    <glyph glyph-name="gcircumflex" unicode="&#x11d;" 
d="M28 447q0 71 35 102.5t102 31.5h20l188 -4v-577q0 -88 -30 -115.5t-130 -25.5q-60 2 -94.5 9t-52 27t-22.5 44.5t-5 70.5v19h113v-33q0 -21 7.5 -27t26.5 -6h29q19 0 26 7t7 29v58h-89q-67 0 -99 28t-32 99v263zM248 166v305h-63q-33 0 -33 -37v-230q0 -38 33 -38h63z
M81 610l65 102h118l65 -102h-84l-40 49l-40 -49h-84z" />
    <glyph glyph-name="Gbreve" unicode="&#x11e;" horiz-adv-x="426" 
d="M203 704h22q105 0 140.5 -31.5t35.5 -128.5v-78h-131v86q0 27 -11 35t-34 8h-22q-23 0 -34 -8t-11 -35v-407q0 -27 10.5 -33.5t34.5 -6.5h22q17 0 24.5 1.5t14 10.5t6.5 28v126h-61v109h192v-224q0 -97 -35.5 -128.5t-140.5 -31.5h-22q-105 0 -140.5 31.5t-35.5 128.5
v388q0 97 35.5 128.5t140.5 31.5zM233 730h-38q-59 0 -77.5 19.5t-18.5 75.5v12h76v-20q0 -25 23 -25h32q24 0 24 25v20h74v-12q0 -56 -18.5 -75.5t-76.5 -19.5z" />
    <glyph glyph-name="gbreve" unicode="&#x11f;" 
d="M28 447q0 71 35 102.5t102 31.5h20l188 -4v-577q0 -88 -30 -115.5t-130 -25.5q-60 2 -94.5 9t-52 27t-22.5 44.5t-5 70.5v19h113v-33q0 -21 7.5 -27t26.5 -6h29q19 0 26 7t7 29v58h-89q-67 0 -99 28t-32 99v263zM248 166v305h-63q-33 0 -33 -37v-230q0 -38 33 -38h63z
M220 607h-38q-59 0 -77.5 19.5t-18.5 75.5v12h76v-20q0 -25 23 -25h32q24 0 24 25v20h74v-12q0 -56 -18.5 -75.5t-76.5 -19.5z" />
    <glyph glyph-name="Gdotaccent" unicode="&#x120;" horiz-adv-x="426" 
d="M203 704h22q105 0 140.5 -31.5t35.5 -128.5v-78h-131v86q0 27 -11 35t-34 8h-22q-23 0 -34 -8t-11 -35v-407q0 -27 10.5 -33.5t34.5 -6.5h22q17 0 24.5 1.5t14 10.5t6.5 28v126h-61v109h192v-224q0 -97 -35.5 -128.5t-140.5 -31.5h-22q-105 0 -140.5 31.5t-35.5 128.5
v388q0 97 35.5 128.5t140.5 31.5zM174 743v92h80v-92h-80z" />
    <glyph glyph-name="gdotaccent" unicode="&#x121;" 
d="M28 447q0 71 35 102.5t102 31.5h20l188 -4v-577q0 -88 -30 -115.5t-130 -25.5q-60 2 -94.5 9t-52 27t-22.5 44.5t-5 70.5v19h113v-33q0 -21 7.5 -27t26.5 -6h29q19 0 26 7t7 29v58h-89q-67 0 -99 28t-32 99v263zM248 166v305h-63q-33 0 -33 -37v-230q0 -38 33 -38h63z
M161 620v92h80v-92h-80z" />
    <glyph glyph-name="Gcommaaccent" unicode="&#x122;" horiz-adv-x="426" 
d="M176 -136v100h82v-86q0 -30 -10 -52.5t-36 -58.5l-34 18q5 11 10.5 22.5t7 15t3.5 10.5t2.5 13t0.5 18h-26zM203 704h22q105 0 140.5 -31.5t35.5 -128.5v-78h-131v86q0 27 -11 35t-34 8h-22q-23 0 -34 -8t-11 -35v-407q0 -27 10.5 -33.5t34.5 -6.5h22q17 0 24.5 1.5
t14 10.5t6.5 28v126h-61v109h192v-224q0 -97 -35.5 -128.5t-140.5 -31.5h-22q-105 0 -140.5 31.5t-35.5 128.5v388q0 97 35.5 128.5t140.5 31.5z" />
    <glyph glyph-name="gcommaaccent" unicode="&#x123;" 
d="M246 718v-100h-82v86q0 30 10 52.5t36 58.5l34 -18q-5 -11 -10.5 -22.5t-7 -15t-3.5 -10.5t-2.5 -13t-0.5 -18h26zM28 447q0 71 35 102.5t102 31.5h20l188 -4v-577q0 -88 -30 -115.5t-130 -25.5q-60 2 -94.5 9t-52 27t-22.5 44.5t-5 70.5v19h113v-33q0 -21 7.5 -27
t26.5 -6h29q19 0 26 7t7 29v58h-89q-67 0 -99 28t-32 99v263zM248 166v305h-63q-33 0 -33 -37v-230q0 -38 33 -38h63z" />
    <glyph glyph-name="Hbar" unicode="&#x126;" horiz-adv-x="449" 
d="M1 523v86h36v91h131v-91h111v91h132v-91h38v-86h-38v-523h-132v295h-111v-295h-131v523h-36zM168 414h111v109h-111v-109z" />
    <glyph glyph-name="hbar" unicode="&#x127;" horiz-adv-x="407" 
d="M1 607v59h33v57h125v-57h87v-59h-87v-30h98q66 0 93.5 -26t27.5 -97v-454h-125v434q0 37 -32 37h-62v-471h-125v607h-33z" />
    <glyph glyph-name="Imacron" unicode="&#x12a;" horiz-adv-x="193" 
d="M31 0v700h131v-700h-131zM-15 747v72h224v-72h-224z" />
    <glyph glyph-name="imacron" unicode="&#x12b;" horiz-adv-x="181" 
d="M29 0v577h124v-577h-124zM-20 624v72h224v-72h-224z" />
    <glyph glyph-name="Ibreve" unicode="&#x12c;" horiz-adv-x="193" 
d="M117 730h-38q-59 0 -77.5 19.5t-18.5 75.5v12h76v-20q0 -25 23 -25h32q24 0 24 25v20h74v-12q0 -56 -18.5 -75.5t-76.5 -19.5zM31 0v700h131v-700h-131z" />
    <glyph glyph-name="ibreve" unicode="&#x12d;" horiz-adv-x="181" 
d="M111 607h-38q-59 0 -77.5 19.5t-18.5 75.5v12h76v-20q0 -25 23 -25h32q24 0 24 25v20h74v-12q0 -56 -18.5 -75.5t-76.5 -19.5zM29 0v577h124v-577h-124z" />
    <glyph glyph-name="Iogonek" unicode="&#x12e;" horiz-adv-x="193" 
d="M31 0v700h131v-700h-28l-51 -30l-7.5 -5l-6 -4l-4.5 -3t-3.5 -3t-2 -3t-1.5 -3.5v-4.5v-5v-7.5t1.5 -5t4 -3t6.5 -0.5h22q8 0 9.5 2t1.5 9v3v15h64v-16q0 -38 -10 -54.5t-46 -16.5h-58q-38 0 -49 12t-11 46v12q0 16 6 26t12 14t22 13l28 12h-30z" />
    <glyph glyph-name="iogonek" unicode="&#x12f;" horiz-adv-x="181" 
d="M29 0v577h124v-577h-23l-51 -30l-7.5 -5l-6 -4l-4.5 -3t-3.5 -3t-2 -3t-1.5 -3.5v-4.5v-5v-7.5t1.5 -5t4 -3t6.5 -0.5h22q8 0 9.5 2t1.5 9v3v15h64v-16q0 -38 -10 -54.5t-46 -16.5h-58q-38 0 -49 12t-11 46v12q0 16 6 26t12 14t22 13l28 12h-28zM27 617v97h128v-97h-128z
" />
    <glyph glyph-name="Idotaccent" unicode="&#x130;" horiz-adv-x="193" 
d="M57 743v92h80v-92h-80zM31 0v700h131v-700h-131z" />
    <glyph glyph-name="dotlessi" unicode="&#x131;" horiz-adv-x="181" 
d="M29 0v577h124v-577h-124z" />
    <glyph glyph-name="Kcommaaccent" unicode="&#x136;" horiz-adv-x="432" 
d="M171 -136v100h82v-86q0 -30 -10 -52.5t-36 -58.5l-34 18q5 11 10.5 22.5t7 15t3.5 10.5t2.5 13t0.5 18h-26zM162 274v-274h-131v700h131v-288h42l75 288h141l-100 -354l107 -346h-145l-73 274h-47z" />
    <glyph glyph-name="kcommaaccent" unicode="&#x137;" horiz-adv-x="411" 
d="M156 -136v100h82v-86q0 -30 -10 -52.5t-36 -58.5l-34 18q5 11 10.5 22.5t7 15t3.5 10.5t2.5 13t0.5 18h-26zM271 0l-73 246h-45v-246h-125v723h125v-358h44l69 212h136l-91 -272l96 -305h-136z" />
    <glyph glyph-name="Lacute" unicode="&#x139;" horiz-adv-x="335" 
d="M31 0v700h131v-588h167v-112h-298zM50 733l49 102h126l-92 -102h-83z" />
    <glyph glyph-name="lacute" unicode="&#x13a;" horiz-adv-x="181" 
d="M28 0v723h125v-723h-125zM47 746l49 102h126l-92 -102h-83z" />
    <glyph glyph-name="Lcommaaccent" unicode="&#x13b;" horiz-adv-x="335" 
d="M133 -136v100h82v-86q0 -30 -10 -52.5t-36 -58.5l-34 18q5 11 10.5 22.5t7 15t3.5 10.5t2.5 13t0.5 18h-26zM31 0v700h131v-588h167v-112h-298z" />
    <glyph glyph-name="lcommaaccent" unicode="&#x13c;" horiz-adv-x="181" 
d="M51 -136v100h82v-86q0 -30 -10 -52.5t-36 -58.5l-34 18q5 11 10.5 22.5t7 15t3.5 10.5t2.5 13t0.5 18h-26zM28 0v723h125v-723h-125z" />
    <glyph glyph-name="Lcaron" unicode="&#x13d;" horiz-adv-x="335" 
d="M238 611v89h68v-77q0 -27 -9.5 -46.5t-32.5 -49.5l-29 14l9.5 19t7 13.5t4.5 10t3 11.5t1 16h-22zM31 0v700h131v-588h167v-112h-298z" />
    <glyph glyph-name="lcaron" unicode="&#x13e;" horiz-adv-x="180" 
d="M197 635v89h68v-77q0 -27 -9.5 -46.5t-32.5 -49.5l-29 14l9.5 19t7 13.5t4.5 10t3 11.5t1 16h-22zM28 0v723h125v-723h-125z" />
    <glyph glyph-name="Ldot" unicode="&#x13f;" horiz-adv-x="335" 
d="M31 0v700h131v-588h167v-112h-298zM211 312v92h80v-92h-80z" />
    <glyph glyph-name="ldot" unicode="&#x140;" horiz-adv-x="267" 
d="M180 312v92h80v-92h-80zM28 0v723h125v-723h-125z" />
    <glyph glyph-name="Lslash" unicode="&#x141;" horiz-adv-x="351" 
d="M2 242v109l46 23v326h131v-261l73 36v-110l-73 -36v-217h167v-112h-298v264z" />
    <glyph glyph-name="lslash" unicode="&#x142;" horiz-adv-x="196" 
d="M0 258v110l34 18v337h125v-271l37 20v-117l-37 -19v-336h-125v275z" />
    <glyph glyph-name="Nacute" unicode="&#x143;" horiz-adv-x="438" 
d="M31 700h132l121 -386h1v386h123v-700h-137l-111 367h-1v-367h-128v700zM173 733l49 102h126l-92 -102h-83z" />
    <glyph glyph-name="nacute" unicode="&#x144;" 
d="M247 0v434q0 37 -32 37h-62v-471h-125v577q116 4 189 4h24q67 0 99 -28t32 -99v-454h-125zM144 610l49 102h126l-92 -102h-83z" />
    <glyph glyph-name="Ncommaaccent" unicode="&#x145;" horiz-adv-x="438" 
d="M172 -136v100h82v-86q0 -30 -10 -52.5t-36 -58.5l-34 18q5 11 10.5 22.5t7 15t3.5 10.5t2.5 13t0.5 18h-26zM31 700h132l121 -386h1v386h123v-700h-137l-111 367h-1v-367h-128v700z" />
    <glyph glyph-name="ncommaaccent" unicode="&#x146;" 
d="M160 -136v100h82v-86q0 -30 -10 -52.5t-36 -58.5l-34 18q5 11 10.5 22.5t7 15t3.5 10.5t2.5 13t0.5 18h-26zM247 0v434q0 37 -32 37h-62v-471h-125v577q116 4 189 4h24q67 0 99 -28t32 -99v-454h-125z" />
    <glyph glyph-name="Ncaron" unicode="&#x147;" horiz-adv-x="438" 
d="M31 700h132l121 -386h1v386h123v-700h-137l-111 367h-1v-367h-128v700zM161 733l-65 102h84l40 -49l40 49h84l-65 -102h-118z" />
    <glyph glyph-name="ncaron" unicode="&#x148;" 
d="M247 0v434q0 37 -32 37h-62v-471h-125v577q116 4 189 4h24q67 0 99 -28t32 -99v-454h-125zM142 610l-65 102h84l40 -49l40 49h84l-65 -102h-118z" />
    <glyph glyph-name="Omacron" unicode="&#x14c;" horiz-adv-x="432" 
d="M203 704h25q105 0 140.5 -31.5t35.5 -128.5v-388q0 -97 -35.5 -128.5t-140.5 -31.5h-25q-105 0 -140.5 32t-35.5 128v388q0 97 35.5 128.5t140.5 31.5zM205 105h22q24 0 35 8.5t11 35.5v402q0 27 -11 35.5t-35 8.5h-22q-24 0 -35 -8t-11 -36v-402q0 -28 11 -36t35 -8z
M105 747v72h224v-72h-224z" />
    <glyph glyph-name="omacron" unicode="&#x14d;" horiz-adv-x="399" 
d="M187 581h25q97 0 128.5 -31.5t31.5 -109.5v-303q0 -78 -31.5 -109.5t-128.5 -31.5h-25q-97 0 -128.5 31.5t-31.5 109.5v303q0 78 31.5 109.5t128.5 31.5zM187 100h25q19 0 27 8t8 30l1 302q0 22 -8 29.5t-27 7.5h-25q-19 0 -27 -7.5t-8 -29.5l-1 -302q0 -22 8.5 -30
t26.5 -8zM89 624v72h224v-72h-224z" />
    <glyph glyph-name="Obreve" unicode="&#x14e;" horiz-adv-x="432" 
d="M203 704h25q105 0 140.5 -31.5t35.5 -128.5v-388q0 -97 -35.5 -128.5t-140.5 -31.5h-25q-105 0 -140.5 32t-35.5 128v388q0 97 35.5 128.5t140.5 31.5zM205 105h22q24 0 35 8.5t11 35.5v402q0 27 -11 35.5t-35 8.5h-22q-24 0 -35 -8t-11 -36v-402q0 -28 11 -36t35 -8z
M236 730h-38q-59 0 -77.5 19.5t-18.5 75.5v12h76v-20q0 -25 23 -25h32q24 0 24 25v20h74v-12q0 -56 -18.5 -75.5t-76.5 -19.5z" />
    <glyph glyph-name="obreve" unicode="&#x14f;" horiz-adv-x="399" 
d="M187 581h25q97 0 128.5 -31.5t31.5 -109.5v-303q0 -78 -31.5 -109.5t-128.5 -31.5h-25q-97 0 -128.5 31.5t-31.5 109.5v303q0 78 31.5 109.5t128.5 31.5zM187 100h25q19 0 27 8t8 30l1 302q0 22 -8 29.5t-27 7.5h-25q-19 0 -27 -7.5t-8 -29.5l-1 -302q0 -22 8.5 -30
t26.5 -8zM220 607h-38q-59 0 -77.5 19.5t-18.5 75.5v12h76v-20q0 -25 23 -25h32q24 0 24 25v20h74v-12q0 -56 -18.5 -75.5t-76.5 -19.5z" />
    <glyph glyph-name="Ohungarumlaut" unicode="&#x150;" horiz-adv-x="432" 
d="M203 704h25q105 0 140.5 -31.5t35.5 -128.5v-388q0 -97 -35.5 -128.5t-140.5 -31.5h-25q-105 0 -140.5 32t-35.5 128v388q0 97 35.5 128.5t140.5 31.5zM205 105h22q24 0 35 8.5t11 35.5v402q0 27 -11 35.5t-35 8.5h-22q-24 0 -35 -8t-11 -36v-402q0 -28 11 -36t35 -8z
M113 733l62 102h106l-85 -102h-83zM236 733l63 102h126l-105 -102h-84z" />
    <glyph glyph-name="ohungarumlaut" unicode="&#x151;" horiz-adv-x="399" 
d="M187 581h25q97 0 128.5 -31.5t31.5 -109.5v-303q0 -78 -31.5 -109.5t-128.5 -31.5h-25q-97 0 -128.5 31.5t-31.5 109.5v303q0 78 31.5 109.5t128.5 31.5zM187 100h25q19 0 27 8t8 30l1 302q0 22 -8 29.5t-27 7.5h-25q-19 0 -27 -7.5t-8 -29.5l-1 -302q0 -22 8.5 -30
t26.5 -8zM99 610l62 102h106l-85 -102h-83zM222 610l63 102h126l-105 -102h-84z" />
    <glyph glyph-name="OE" unicode="&#x152;" horiz-adv-x="601" 
d="M585 0h-382q-104 0 -140 34.5t-36 131.5v368q0 98 36 132t140 34h382v-112h-181v-174h165v-112h-165v-190h181v-112zM203 595q-22 0 -33 -9.5t-11 -37.5v-396q0 -27 11 -36.5t33 -9.5h69v489h-69z" />
    <glyph glyph-name="oe" unicode="&#x153;" horiz-adv-x="616" 
d="M187 581h25q62 0 98 -14q33 13 97 13h22q97 0 128 -31t31 -109v-203l-216 -3v-97v-1q0 -22 8.5 -30t26.5 -8h25q18 0 26.5 8t8.5 30v51h121v-50q0 -78 -31 -109.5t-128 -31.5h-22q-63 0 -98 13q-33 -13 -97 -13h-25q-97 0 -128.5 31.5t-31.5 109.5v303q0 78 31.5 109.5
t128.5 31.5zM187 100h25q17 0 25.5 6.5t9.5 24.5v6v1v302v14q-5 23 -34 23h-25q-19 0 -27 -7.5t-8 -29.5l-1 -302q0 -22 8.5 -30t26.5 -8zM407 478q-34 0 -35 -31v-7v-104h92v105q0 21 -8.5 29t-26.5 8h-22z" />
    <glyph glyph-name="Racute" unicode="&#x154;" horiz-adv-x="413" 
d="M29 0v700h199q102 0 135.5 -30t33.5 -122v-98q0 -64 -18.5 -88.5t-58.5 -28.5q43 -7 60 -34t17 -92v-207h-132v224q0 50 -39 50h-66v-274h-131zM160 591v-211h68q20 0 28.5 6.5t8.5 30.5v139q0 23 -9 29t-30 6h-66zM151 733l49 102h126l-92 -102h-83z" />
    <glyph glyph-name="racute" unicode="&#x155;" horiz-adv-x="288" 
d="M28 0v478q0 49 31 76t79 27h12l135 -6v-97q-84 -9 -103 -10t-24 -7.5t-5 -25.5v-435h-125zM91 610l49 102h126l-92 -102h-83z" />
    <glyph glyph-name="Rcommaaccent" unicode="&#x156;" horiz-adv-x="413" 
d="M175 -136v100h82v-86q0 -30 -10 -52.5t-36 -58.5l-34 18q5 11 10.5 22.5t7 15t3.5 10.5t2.5 13t0.5 18h-26zM29 0v700h199q102 0 135.5 -30t33.5 -122v-98q0 -64 -18.5 -88.5t-58.5 -28.5q43 -7 60 -34t17 -92v-207h-132v224q0 50 -39 50h-66v-274h-131zM160 591v-211h68
q20 0 28.5 6.5t8.5 30.5v139q0 23 -9 29t-30 6h-66z" />
    <glyph glyph-name="rcommaaccent" unicode="&#x157;" horiz-adv-x="288" 
d="M50 -136v100h82v-86q0 -30 -10 -52.5t-36 -58.5l-34 18q5 11 10.5 22.5t7 15t3.5 10.5t2.5 13t0.5 18h-26zM28 0v478q0 49 31 76t79 27h12l135 -6v-97q-84 -9 -103 -10t-24 -7.5t-5 -25.5v-435h-125z" />
    <glyph glyph-name="Rcaron" unicode="&#x158;" horiz-adv-x="413" 
d="M29 0v700h199q102 0 135.5 -30t33.5 -122v-98q0 -64 -18.5 -88.5t-58.5 -28.5q43 -7 60 -34t17 -92v-207h-132v224q0 50 -39 50h-66v-274h-131zM160 591v-211h68q20 0 28.5 6.5t8.5 30.5v139q0 23 -9 29t-30 6h-66zM149 733l-65 102h84l40 -49l40 49h84l-65 -102h-118z
" />
    <glyph glyph-name="rcaron" unicode="&#x159;" horiz-adv-x="288" 
d="M28 0v478q0 49 31 76t79 27h12l135 -6v-97q-84 -9 -103 -10t-24 -7.5t-5 -25.5v-435h-125zM86 610l-65 102h84l40 -49l40 49h84l-65 -102h-118z" />
    <glyph glyph-name="Sacute" unicode="&#x15a;" horiz-adv-x="413" 
d="M200 704h14q106 0 141 -31.5t35 -128.5v-80h-131v89q0 27 -10.5 34.5t-34.5 7.5h-14q-24 0 -34.5 -7.5t-10.5 -34.5v-55q0 -34 12.5 -46t57.5 -29l66 -23q30 -11 43 -17t30 -21t23.5 -38.5t6.5 -59.5v-108q0 -97 -35.5 -128.5t-140.5 -31.5h-18q-106 0 -141 31.5
t-35 128.5v82h131v-90q0 -28 10.5 -35.5t34.5 -7.5h18q16 0 24.5 2t14.5 12t6 29v83q0 11 -2 19t-4 12.5t-9.5 9.5t-11 7t-16 7.5t-17.5 7.5l-71 25q-30 12 -44 19t-32 22t-25 39t-7 59v86q0 97 35.5 128.5t140.5 31.5zM157 733l49 102h126l-92 -102h-83z" />
    <glyph glyph-name="sacute" unicode="&#x15b;" horiz-adv-x="369" 
d="M177 580h7q96 0 124.5 -30.5t28.5 -109.5v-43h-118v48q0 21 -8 27t-27 6h-7q-20 0 -28 -6t-8 -27v-36q0 -11 2 -17.5t9 -12t12.5 -8t22.5 -9.5l72 -27q46 -17 67 -40.5t21 -74.5v-77q0 -79 -31.5 -112.5t-128.5 -33.5h-10q-97 0 -128.5 31.5t-31.5 109.5v52h124v-57
q0 -21 8 -27.5t28 -6.5h10q18 0 26.5 9t8.5 31v59q0 7 -1 12.5t-4 9.5t-4.5 6.5t-7.5 6t-8 4.5t-11 4.5t-11 4.5l-70 28q-24 10 -35 16t-26 18.5t-21 32.5t-6 49v50q0 78 31.5 109t128.5 31zM130 610l49 102h126l-92 -102h-83z" />
    <glyph glyph-name="Scedilla" unicode="&#x15e;" horiz-adv-x="413" 
d="M200 704h14q106 0 141 -31.5t35 -128.5v-80h-131v89q0 27 -10.5 34.5t-34.5 7.5h-14q-24 0 -34.5 -7.5t-10.5 -34.5v-55q0 -34 12.5 -46t57.5 -29l66 -23q30 -11 43 -17t30 -21t23.5 -38.5t6.5 -59.5v-108q0 -93 -33 -125.5t-128 -34.5l-24 -118h-92l46 119
q-82 4 -110.5 37t-28.5 122v82h131v-90q0 -28 10.5 -35.5t34.5 -7.5h18q16 0 24.5 2t14.5 12t6 29v83q0 11 -2 19t-4 12.5t-9.5 9.5t-11 7t-16 7.5t-17.5 7.5l-71 25q-30 12 -44 19t-32 22t-25 39t-7 59v86q0 97 35.5 128.5t140.5 31.5z" />
    <glyph glyph-name="scedilla" unicode="&#x15f;" horiz-adv-x="369" 
d="M177 580h7q96 0 124.5 -30.5t28.5 -109.5v-43h-118v48q0 21 -8 27t-27 6h-7q-20 0 -28 -6t-8 -27v-36q0 -11 2 -17.5t9 -12t12.5 -8t22.5 -9.5l72 -27q46 -17 67 -40.5t21 -74.5v-77q0 -72 -25.5 -105.5t-100.5 -38.5l-24 -121h-92l46 120q-81 4 -107.5 35t-26.5 105v52
h124v-57q0 -21 8 -27.5t28 -6.5h10q18 0 26.5 9t8.5 31v59q0 7 -1 12.5t-4 9.5t-4.5 6.5t-7.5 6t-8 4.5t-11 4.5t-11 4.5l-70 28q-24 10 -35 16t-26 18.5t-21 32.5t-6 49v50q0 78 31.5 109t128.5 31z" />
    <glyph glyph-name="Scaron" unicode="&#x160;" horiz-adv-x="413" 
d="M200 704h14q106 0 141 -31.5t35 -128.5v-80h-131v89q0 27 -10.5 34.5t-34.5 7.5h-14q-24 0 -34.5 -7.5t-10.5 -34.5v-55q0 -34 12.5 -46t57.5 -29l66 -23q30 -11 43 -17t30 -21t23.5 -38.5t6.5 -59.5v-108q0 -97 -35.5 -128.5t-140.5 -31.5h-18q-106 0 -141 31.5
t-35 128.5v82h131v-90q0 -28 10.5 -35.5t34.5 -7.5h18q16 0 24.5 2t14.5 12t6 29v83q0 11 -2 19t-4 12.5t-9.5 9.5t-11 7t-16 7.5t-17.5 7.5l-71 25q-30 12 -44 19t-32 22t-25 39t-7 59v86q0 97 35.5 128.5t140.5 31.5zM149 733l-65 102h84l40 -49l40 49h84l-65 -102h-118z
" />
    <glyph glyph-name="scaron" unicode="&#x161;" horiz-adv-x="369" 
d="M177 580h7q96 0 124.5 -30.5t28.5 -109.5v-43h-118v48q0 21 -8 27t-27 6h-7q-20 0 -28 -6t-8 -27v-36q0 -11 2 -17.5t9 -12t12.5 -8t22.5 -9.5l72 -27q46 -17 67 -40.5t21 -74.5v-77q0 -79 -31.5 -112.5t-128.5 -33.5h-10q-97 0 -128.5 31.5t-31.5 109.5v52h124v-57
q0 -21 8 -27.5t28 -6.5h10q18 0 26.5 9t8.5 31v59q0 7 -1 12.5t-4 9.5t-4.5 6.5t-7.5 6t-8 4.5t-11 4.5t-11 4.5l-70 28q-24 10 -35 16t-26 18.5t-21 32.5t-6 49v50q0 78 31.5 109t128.5 31zM130 610l-65 102h84l40 -49l40 49h84l-65 -102h-118z" />
    <glyph glyph-name="Tcommaaccent" unicode="&#x162;" horiz-adv-x="390" 
d="M153 -136v100h82v-86q0 -30 -10 -52.5t-36 -58.5l-34 18q5 11 10.5 22.5t7 15t3.5 10.5t2.5 13t0.5 18h-26zM261 588v-588h-132v588h-124v112h380v-112h-124z" />
    <glyph glyph-name="tcommaaccent" unicode="&#x163;" horiz-adv-x="262" 
d="M104 -136v100h82v-86q0 -30 -10 -52.5t-36 -58.5l-34 18q5 11 10.5 22.5t7 15t3.5 10.5t2.5 13t0.5 18h-26zM249 577v-106h-75v-340q0 -24 22 -24h62v-107l-62 -4q-87 -3 -117 22t-30 106v347h-40v106h40v127h125v-127h75z" />
    <glyph glyph-name="Tcaron" unicode="&#x164;" horiz-adv-x="390" 
d="M261 588v-588h-132v588h-124v112h380v-112h-124zM137 733l-65 102h84l40 -49l40 49h84l-65 -102h-118z" />
    <glyph glyph-name="tcaron" unicode="&#x165;" horiz-adv-x="269" 
d="M229 665v89h68v-77q0 -27 -9.5 -46.5t-32.5 -49.5l-29 14l9.5 19t7 13.5t4.5 10t3 11.5t1 16h-22zM249 577v-106h-75v-340q0 -24 22 -24h62v-107l-62 -4q-87 -3 -117 22t-30 106v347h-40v106h40v127h125v-127h75z" />
    <glyph glyph-name="Umacron" unicode="&#x16a;" horiz-adv-x="432" 
d="M27 700h132v-549q0 -29 8 -37.5t30 -8.5h38q22 0 30 8.5t8 37.5v549h131v-544q0 -97 -35.5 -128.5t-140.5 -31.5h-25q-105 0 -140.5 31.5t-35.5 128.5v544zM105 747v72h224v-72h-224z" />
    <glyph glyph-name="umacron" unicode="&#x16b;" horiz-adv-x="399" 
d="M152 577v-433q0 -38 32 -38h62v471h125v-577q-127 -4 -188 -4h-25q-67 0 -99 28.5t-32 99.5v453h125zM89 624v72h224v-72h-224z" />
    <glyph glyph-name="Ubreve" unicode="&#x16c;" horiz-adv-x="432" 
d="M27 700h132v-549q0 -29 8 -37.5t30 -8.5h38q22 0 30 8.5t8 37.5v549h131v-544q0 -97 -35.5 -128.5t-140.5 -31.5h-25q-105 0 -140.5 31.5t-35.5 128.5v544zM236 730h-38q-59 0 -77.5 19.5t-18.5 75.5v12h76v-20q0 -25 23 -25h32q24 0 24 25v20h74v-12q0 -56 -18.5 -75.5
t-76.5 -19.5z" />
    <glyph glyph-name="ubreve" unicode="&#x16d;" horiz-adv-x="399" 
d="M220 607h-38q-59 0 -77.5 19.5t-18.5 75.5v12h76v-20q0 -25 23 -25h32q24 0 24 25v20h74v-12q0 -56 -18.5 -75.5t-76.5 -19.5zM152 577v-433q0 -38 32 -38h62v471h125v-577q-127 -4 -188 -4h-25q-67 0 -99 28.5t-32 99.5v453h125z" />
    <glyph glyph-name="Uring" unicode="&#x16e;" horiz-adv-x="432" 
d="M205 878h22q44 0 57 -14t13 -54v-15q0 -40 -13 -54t-57 -14h-22q-43 0 -56 14t-13 54v15q0 40 13 54t56 14zM226 842h-19q-21 0 -26 -5t-5 -24v-21q0 -18 5 -23.5t26 -5.5h19q21 0 26.5 5.5t5.5 23.5v21q0 19 -5.5 24t-26.5 5zM27 700h132v-549q0 -29 8 -37.5t30 -8.5h38
q22 0 30 8.5t8 37.5v549h131v-544q0 -97 -35.5 -128.5t-140.5 -31.5h-25q-105 0 -140.5 31.5t-35.5 128.5v544z" />
    <glyph glyph-name="uring" unicode="&#x16f;" horiz-adv-x="399" 
d="M152 577v-433q0 -38 32 -38h62v471h125v-577q-127 -4 -188 -4h-25q-67 0 -99 28.5t-32 99.5v453h125zM189 755h22q44 0 57 -14t13 -54v-15q0 -40 -13 -54t-57 -14h-22q-43 0 -56 14t-13 54v15q0 40 13 54t56 14zM210 719h-19q-21 0 -26 -5t-5 -24v-21q0 -19 5 -24t26 -5
h19q21 0 26.5 5.5t5.5 23.5v21q0 19 -5.5 24t-26.5 5z" />
    <glyph glyph-name="Uhungarumlaut" unicode="&#x170;" horiz-adv-x="432" 
d="M27 700h132v-549q0 -29 8 -37.5t30 -8.5h38q22 0 30 8.5t8 37.5v549h131v-544q0 -97 -35.5 -128.5t-140.5 -31.5h-25q-105 0 -140.5 31.5t-35.5 128.5v544zM110 733l62 102h106l-85 -102h-83zM233 733l63 102h126l-105 -102h-84z" />
    <glyph glyph-name="uhungarumlaut" unicode="&#x171;" horiz-adv-x="399" 
d="M152 577v-433q0 -38 32 -38h62v471h125v-577q-127 -4 -188 -4h-25q-67 0 -99 28.5t-32 99.5v453h125zM218 610l63 102h126l-105 -102h-84zM95 610l62 102h106l-85 -102h-83z" />
    <glyph glyph-name="Uogonek" unicode="&#x172;" horiz-adv-x="432" 
d="M27 700h132v-549q0 -29 8 -37.5t30 -8.5h38q22 0 30 8.5t8 37.5v549h131v-544q0 -90 -30 -123t-114 -36l-38 -23l-7.5 -5l-6 -4l-4.5 -3t-3.5 -3t-2 -3t-1.5 -3.5v-4.5v-5v-7.5t1.5 -5t3.5 -3t7 -0.5h22q8 0 9.5 2t1.5 9v3v15h64v-16q0 -38 -10 -54.5t-46 -16.5h-58
q-38 0 -49 12t-11 46v12q0 16 6 26t12 14t22 13l10 4q-92 2 -123.5 34.5t-31.5 125.5v544z" />
    <glyph glyph-name="uogonek" unicode="&#x173;" horiz-adv-x="399" 
d="M152 577v-433q0 -38 32 -38h62v471h125v-577q-19 -1 -41 -1l-43 -26l-7.5 -5l-6 -4l-4.5 -3t-3.5 -3t-2 -3t-1.5 -3.5v-4.5v-5v-7.5t1.5 -5t4 -3t6.5 -0.5h22q8 0 9.5 2t1.5 9v3v15h64v-16q0 -38 -10 -54.5t-46 -16.5h-58q-38 0 -49 12t-11 46v12q0 16 6 26t12 14t22 13
q2 1 7 2.5t8 3.5q-26 -1 -69 -1h-25q-67 0 -99 28.5t-32 99.5v453h125z" />
    <glyph glyph-name="Wcircumflex" unicode="&#x174;" horiz-adv-x="631" 
d="M7 700h133l45 -526h1l61 526h138l60 -526h1l45 526h134l-73 -700h-204l-32 393h-1l-32 -393h-203zM191 733l65 102h118l65 -102h-84l-40 49l-40 -49h-84z" />
    <glyph glyph-name="wcircumflex" unicode="&#x175;" horiz-adv-x="584" 
d="M321 0l-28 280h-3l-27 -280h-181l-79 577h131l43 -421h2l49 421h128l49 -421h1l44 421h132l-79 -577h-182zM168 610l65 102h118l65 -102h-84l-40 49l-40 -49h-84z" />
    <glyph glyph-name="Ycircumflex" unicode="&#x176;" horiz-adv-x="432" 
d="M150 0v265l-145 435h132l78 -281l80 281h132l-145 -435v-265h-132zM93 733l65 102h118l65 -102h-84l-40 49l-40 -49h-84z" />
    <glyph glyph-name="ycircumflex" unicode="&#x177;" horiz-adv-x="405" 
d="M104 7l-106 570h131l70 -426h3l78 426h120l-131 -704h-118l25 134h-72zM79 610l65 102h118l65 -102h-84l-40 49l-40 -49h-84z" />
    <glyph glyph-name="Ydieresis" unicode="&#x178;" horiz-adv-x="432" 
d="M150 0v265l-145 435h132l78 -281l80 281h132l-145 -435v-265h-132zM112 739v96h83v-96h-83zM239 739v96h83v-96h-83z" />
    <glyph glyph-name="Zacute" unicode="&#x179;" horiz-adv-x="363" 
d="M20 587v113h327v-112l-187 -476h187v-112h-331v113l197 474h-193zM129 733l49 102h126l-92 -102h-83z" />
    <glyph glyph-name="zacute" unicode="&#x17a;" horiz-adv-x="352" 
d="M341 108v-108h-331v106l184 362h-177v109h322v-108l-182 -361h184zM120 610l49 102h126l-92 -102h-83z" />
    <glyph glyph-name="Zdotaccent" unicode="&#x17b;" horiz-adv-x="363" 
d="M20 587v113h327v-112l-187 -476h187v-112h-331v113l197 474h-193zM156 743v92h80v-92h-80z" />
    <glyph glyph-name="zdotaccent" unicode="&#x17c;" horiz-adv-x="352" 
d="M341 108v-108h-331v106l184 362h-177v109h322v-108l-182 -361h184zM151 620v92h80v-92h-80z" />
    <glyph glyph-name="Zcaron" unicode="&#x17d;" horiz-adv-x="363" 
d="M20 587v113h327v-112l-187 -476h187v-112h-331v113l197 474h-193zM124 733l-65 102h84l40 -49l40 49h84l-65 -102h-118z" />
    <glyph glyph-name="zcaron" unicode="&#x17e;" horiz-adv-x="352" 
d="M341 108v-108h-331v106l184 362h-177v109h322v-108l-182 -361h184zM118 610l-65 102h84l40 -49l40 49h84l-65 -102h-118z" />
    <glyph glyph-name="Aringacute" unicode="&#x1fa;" horiz-adv-x="427" 
d="M203 818h22q44 0 57 -14t13 -54v-15q0 -21 -3 -35h24l119 -700h-131l-22 129h-135l-21 -129h-132l119 700h24q-3 9 -3 35v15q0 40 13 54t56 14zM211 592l-52 -344h110l-52 344h-6zM167 836l49 102h126l-92 -102h-83zM224 782h-19q-21 0 -26 -5t-5 -24v-21q0 -18 5 -23.5
t26 -5.5h19q21 0 26.5 5.5t5.5 23.5v21q0 19 -5.5 24t-26.5 5z" />
    <glyph glyph-name="aringacute" unicode="&#x1fb;" horiz-adv-x="392" 
d="M191 581h17q97 1 126.5 -30.5t29.5 -110.5v-430q-115 -14 -185 -14h-24q-67 0 -99 28.5t-32 99.5v113q0 71 29.5 99t95.5 28h90v74q0 25 -8 32t-26 7h-17q-12 0 -18 -1.5t-10.5 -9.5t-4.5 -24v-46h-116v44q0 80 28 110.5t124 30.5zM149 233v-89q0 -20 6.5 -29t23.5 -9h19
q39 0 41 1v166h-60q-30 0 -30 -40zM153 777l49 102h126l-92 -102h-83zM185 755h22q44 0 57 -14t13 -54v-15q0 -40 -13 -54t-57 -14h-22q-43 0 -56 14t-13 54v15q0 40 13 54t56 14zM206 719h-19q-21 0 -26 -5t-5 -24v-21q0 -19 5 -24t26 -5h19q21 0 26.5 5.5t5.5 23.5v21
q0 19 -5.5 24t-26.5 5z" />
    <glyph glyph-name="AEacute" unicode="&#x1fc;" horiz-adv-x="649" 
d="M318 0v135h-140l-40 -135h-130l221 700h402v-112h-181v-174h164v-113h-164v-188h181v-113h-313zM306 588l-98 -340h110v340h-12zM351 733l49 102h126l-92 -102h-83z" />
    <glyph glyph-name="aeacute" unicode="&#x1fd;" horiz-adv-x="614" 
d="M199 580h15q70 0 95 -25q27 26 97 26h21q97 0 128.5 -31.5t31.5 -109.5v-216l-217 -3v-87q0 -22 8.5 -30t27.5 -8h29q18 0 26 8t8 30v53h118v-50q0 -76 -30 -108t-122 -33h-29q-61 -1 -90 6.5t-43 32.5q-45 -39 -94 -39h-24q-67 0 -99 28.5t-32 99.5v100q0 71 29.5 99
t95.5 28h97v91q-1 21 -8.5 28t-23.5 7h-25q-17 -1 -24 -8t-7 -29v-44h-112v44q0 79 28.5 109.5t124.5 30.5zM406 481q-36 0 -36 -32v-129h96v123q0 22 -8.5 30t-27.5 8h-24zM246 127v131h-64q-33 0 -33 -46v-68q0 -38 33 -38h16q15 0 48 21zM266 610l49 102h126l-92 -102
h-83z" />
    <glyph glyph-name="Oslashacute" unicode="&#x1fe;" horiz-adv-x="432" 
d="M203 704h25q54 0 88 -7l14 39h70l-26 -69q30 -33 30 -123v-388q0 -97 -35.5 -128.5t-140.5 -31.5h-25q-59 0 -91 8l-15 -38h-69l28 68q-29 35 -29 122v388q0 97 35.5 128.5t140.5 31.5zM159 551v-306l112 326q-7 24 -44 24h-22q-24 0 -35 -8t-11 -36zM205 105h22
q24 0 35 8.5t11 35.5v305l-112 -327q7 -22 44 -22zM167 733l49 102h126l-92 -102h-83z" />
    <glyph glyph-name="oslashacute" unicode="&#x1ff;" horiz-adv-x="399" 
d="M187 581h25q36 0 68 -5l17 41h64l-29 -61q40 -29 40 -116v-303q0 -78 -31.5 -109.5t-128.5 -31.5h-25q-48 0 -82 8l-17 -33h-63l29 60q-27 28 -27 106v303q0 78 31.5 109.5t128.5 31.5zM187 100h25q19 0 27 8t8 30l1 254l-96 -264q2 -16 10 -22t25 -6zM153 440l-1 -209
l88 238q-8 8 -27 8h-25q-19 0 -27 -7.5t-8 -29.5zM153 610l49 102h126l-92 -102h-83z" />
    <glyph glyph-name="Scommaaccent" unicode="&#x218;" horiz-adv-x="413" 
d="M200 704h14q106 0 141 -31.5t35 -128.5v-80h-131v89q0 27 -10.5 34.5t-34.5 7.5h-14q-24 0 -34.5 -7.5t-10.5 -34.5v-55q0 -34 12.5 -46t57.5 -29l66 -23q30 -11 43 -17t30 -21t23.5 -38.5t6.5 -59.5v-108q0 -97 -35.5 -128.5t-140.5 -31.5h-18q-106 0 -141 31.5
t-35 128.5v82h131v-90q0 -28 10.5 -35.5t34.5 -7.5h18q16 0 24.5 2t14.5 12t6 29v83q0 11 -2 19t-4 12.5t-9.5 9.5t-11 7t-16 7.5t-17.5 7.5l-71 25q-30 12 -44 19t-32 22t-25 39t-7 59v86q0 97 35.5 128.5t140.5 31.5zM163 -136v100h82v-86q0 -30 -10 -52.5t-36 -58.5
l-34 18q5 11 10.5 22.5t7 15t3.5 10.5t2.5 13t0.5 18h-26z" />
    <glyph glyph-name="scommaaccent" unicode="&#x219;" horiz-adv-x="369" 
d="M177 580h7q96 0 124.5 -30.5t28.5 -109.5v-43h-118v48q0 21 -8 27t-27 6h-7q-20 0 -28 -6t-8 -27v-36q0 -11 2 -17.5t9 -12t12.5 -8t22.5 -9.5l72 -27q46 -17 67 -40.5t21 -74.5v-77q0 -79 -31.5 -112.5t-128.5 -33.5h-10q-97 0 -128.5 31.5t-31.5 109.5v52h124v-57
q0 -21 8 -27.5t28 -6.5h10q18 0 26.5 9t8.5 31v59q0 7 -1 12.5t-4 9.5t-4.5 6.5t-7.5 6t-8 4.5t-11 4.5t-11 4.5l-70 28q-24 10 -35 16t-26 18.5t-21 32.5t-6 49v50q0 78 31.5 109t128.5 31zM138 -136v100h82v-86q0 -30 -10 -52.5t-36 -58.5l-34 18q5 11 10.5 22.5t7 15
t3.5 10.5t2.5 13t0.5 18h-26z" />
    <glyph glyph-name="circumflex" unicode="&#x2c6;" horiz-adv-x="500" 
d="M126 610l65 102h118l65 -102h-84l-40 49l-40 -49h-84z" />
    <glyph glyph-name="caron" unicode="&#x2c7;" horiz-adv-x="500" 
d="M191 610l-65 102h84l40 -49l40 49h84l-65 -102h-118z" />
    <glyph glyph-name="breve" unicode="&#x2d8;" horiz-adv-x="500" 
d="M269 607h-38q-59 0 -77.5 19.5t-18.5 75.5v12h76v-20q0 -25 23 -25h32q24 0 24 25v20h74v-12q0 -56 -18.5 -75.5t-76.5 -19.5z" />
    <glyph glyph-name="dotaccent" unicode="&#x2d9;" horiz-adv-x="500" 
d="M210 620v92h80v-92h-80z" />
    <glyph glyph-name="ring" unicode="&#x2da;" horiz-adv-x="500" 
d="M238 755h22q44 0 57 -14t13 -54v-15q0 -40 -13 -54t-57 -14h-22q-43 0 -56 14t-13 54v15q0 40 13 54t56 14zM259 719h-19q-21 0 -26 -5t-5 -24v-21q0 -19 5.5 -24t25.5 -5h19q21 0 26.5 5.5t5.5 23.5v21q0 19 -5.5 24t-26.5 5z" />
    <glyph glyph-name="ogonek" unicode="&#x2db;" horiz-adv-x="500" 
d="M340 -55v-16q0 -38 -10 -54.5t-46 -16.5h-58q-38 0 -49 12t-11 46v12q0 16 6 26t12 14t22 13l42 19h59v-7l-51 -30l-7.5 -5l-6 -4l-4.5 -3t-3.5 -3t-2 -3t-1.5 -3.5v-4.5v-5v-6t0.5 -4.5t2 -3.5t3.5 -1.5t6 -0.5h22q8 0 9.5 2t1.5 9v3v15h64z" />
    <glyph glyph-name="tilde" unicode="&#x2dc;" horiz-adv-x="500" 
d="M291 614l-87 51l-2 -50h-56l1 96h57l87 -31l2 30h57l-2 -96h-57z" />
    <glyph glyph-name="hungarumlaut" unicode="&#x2dd;" horiz-adv-x="500" 
d="M121 610l62 102h106l-85 -102h-83zM244 610l63 102h126l-105 -102h-84z" />
    <glyph glyph-name="Wgrave" unicode="&#x1e80;" horiz-adv-x="631" 
d="M7 700h133l45 -526h1l61 526h138l60 -526h1l45 526h134l-73 -700h-204l-32 393h-1l-32 -393h-203zM317 835l48 -102h-83l-91 102h126z" />
    <glyph glyph-name="wgrave" unicode="&#x1e81;" horiz-adv-x="584" 
d="M321 0l-28 280h-3l-27 -280h-181l-79 577h131l43 -421h2l49 421h128l49 -421h1l44 421h132l-79 -577h-182zM294 712l48 -102h-83l-91 102h126z" />
    <glyph glyph-name="Wacute" unicode="&#x1e82;" horiz-adv-x="631" 
d="M7 700h133l45 -526h1l61 526h138l60 -526h1l45 526h134l-73 -700h-204l-32 393h-1l-32 -393h-203zM271 733l49 102h126l-92 -102h-83z" />
    <glyph glyph-name="wacute" unicode="&#x1e83;" horiz-adv-x="584" 
d="M321 0l-28 280h-3l-27 -280h-181l-79 577h131l43 -421h2l49 421h128l49 -421h1l44 421h132l-79 -577h-182zM248 610l49 102h126l-92 -102h-83z" />
    <glyph glyph-name="Wdieresis" unicode="&#x1e84;" horiz-adv-x="631" 
d="M7 700h133l45 -526h1l61 526h138l60 -526h1l45 526h134l-73 -700h-204l-32 393h-1l-32 -393h-203zM213 739v96h83v-96h-83zM340 739v96h83v-96h-83z" />
    <glyph glyph-name="wdieresis" unicode="&#x1e85;" horiz-adv-x="584" 
d="M321 0l-28 280h-3l-27 -280h-181l-79 577h131l43 -421h2l49 421h128l49 -421h1l44 421h132l-79 -577h-182zM190 616v96h83v-96h-83zM317 616v96h83v-96h-83z" />
    <glyph glyph-name="Ygrave" unicode="&#x1ef2;" horiz-adv-x="432" 
d="M150 0v265l-145 435h132l78 -281l80 281h132l-145 -435v-265h-132zM219 835l48 -102h-83l-91 102h126z" />
    <glyph glyph-name="ygrave" unicode="&#x1ef3;" horiz-adv-x="405" 
d="M104 7l-106 570h131l70 -426h3l78 426h120l-131 -704h-118l25 134h-72zM205 712l48 -102h-83l-91 102h126z" />
    <glyph glyph-name="endash" unicode="&#x2013;" horiz-adv-x="399" 
d="M13 256v89h373v-89h-373z" />
    <glyph glyph-name="emdash" unicode="&#x2014;" horiz-adv-x="576" 
d="M13 256v89h550v-89h-550z" />
    <glyph glyph-name="quoteleft" unicode="&#x2018;" horiz-adv-x="173" 
d="M142 578v-139h-113v112q0 44 14 74.5t49 77.5l43 -25q-3 -5 -7 -14q-18 -35 -21.5 -47.5t-3.5 -38.5h39z" />
    <glyph glyph-name="quoteright" unicode="&#x2019;" horiz-adv-x="173" 
d="M30 561v139h113v-112q0 -44 -14 -74.5t-49 -77.5l-43 25q3 5 7 14q18 35 21.5 47.5t3.5 38.5h-39z" />
    <glyph glyph-name="quotesinglbase" unicode="&#x201a;" horiz-adv-x="173" 
d="M30 0v139h113v-112q0 -44 -14 -74.5t-49 -77.5l-43 25q3 5 7 14q18 35 21.5 47.5t3.5 38.5h-39z" />
    <glyph glyph-name="quotedblleft" unicode="&#x201c;" horiz-adv-x="317" 
d="M142 578v-139h-113v112q0 44 14 74.5t49 77.5l43 -25q-3 -5 -7 -14q-18 -35 -21.5 -47.5t-3.5 -38.5h39zM285 578v-139h-113v112q0 44 14 74.5t49 77.5l43 -25q-3 -5 -7 -14q-18 -35 -21.5 -47.5t-3.5 -38.5h39z" />
    <glyph glyph-name="quotedblright" unicode="&#x201d;" horiz-adv-x="317" 
d="M30 561v139h113v-112q0 -44 -14 -74.5t-49 -77.5l-43 25q3 5 7 14q18 35 21.5 47.5t3.5 38.5h-39zM173 561v139h113v-112q0 -44 -14 -74.5t-49 -77.5l-43 25q3 5 7 14q18 35 21.5 47.5t3.5 38.5h-39z" />
    <glyph glyph-name="quotedblbase" unicode="&#x201e;" horiz-adv-x="317" 
d="M30 0v139h113v-112q0 -44 -14 -74.5t-49 -77.5l-43 25q3 5 7 14q18 35 21.5 47.5t3.5 38.5h-39zM173 0v139h113v-112q0 -44 -14 -74.5t-49 -77.5l-43 25q3 5 7 14q18 35 21.5 47.5t3.5 38.5h-39z" />
    <glyph glyph-name="dagger" unicode="&#x2020;" horiz-adv-x="346" 
d="M162 561l-21 81v58h65v-58l-21 -81h-23zM281 566h58v-65h-58l-81 21v24zM146 522l-81 -21h-58v65h58l81 -20v-24zM162 232l-21 151l21 124h23l21 -124l-21 -151h-23z" />
    <glyph glyph-name="daggerdbl" unicode="&#x2021;" horiz-adv-x="346" 
d="M162 313l-21 96l21 98h23l21 -97l-21 -97h-23zM65 566l81 -20v-24l-81 -21h-58v65h58zM141 119v58l21 81h23l21 -81v-58h-65zM339 501h-58l-81 21v24l81 20h58v-65zM65 318l81 -21v-23l-81 -21h-58v65h58zM162 561l-21 81v58h65v-58l-21 -81h-23zM200 297l81 21h58v-65
h-58l-81 21v23z" />
    <glyph glyph-name="bullet" unicode="&#x2022;" horiz-adv-x="281" 
d="M129 483h24q57 0 71.5 -17t14.5 -71v-84q0 -53 -14.5 -70t-71.5 -17h-24q-58 0 -73 17t-15 70v84q0 54 14.5 71t73.5 17z" />
    <glyph glyph-name="ellipsis" unicode="&#x2026;" horiz-adv-x="519" 
d="M30 0v139h113v-139h-113zM203 0v139h113v-139h-113zM376 0v139h113v-139h-113z" />
    <glyph glyph-name="perthousand" unicode="&#x2030;" horiz-adv-x="913" 
d="M130 703h34q57 0 78.5 -23t21.5 -77v-200q0 -55 -21.5 -78.5t-78.5 -23.5h-34q-57 0 -78.5 24t-21.5 78v200q0 54 21.5 77t78.5 23zM485 398h34q57 0 78.5 -23t21.5 -77v-200q0 -54 -21.5 -78t-78.5 -24h-34q-57 0 -78.5 23.5t-21.5 78.5v200q0 54 21.5 77t78.5 23z
M748 398h34q57 0 78.5 -23t21.5 -77v-200q0 -55 -21.5 -78.5t-78.5 -23.5h-34q-57 0 -78.5 24t-21.5 78v200q0 54 21.5 77t78.5 23zM515 336h-26q-26 0 -26 -29v-218q0 -28 26 -28h26q13 0 19 6t6 22v218q0 17 -6 23t-19 6zM160 640h-26q-13 0 -19 -6t-6 -22v-219
q0 -16 6 -22t19 -6h26q26 0 26 28v219q0 28 -26 28zM778 336h-26q-26 0 -26 -29v-218q0 -28 26 -28h26q26 0 26 28v218q0 29 -26 29zM155 0l258 700h78l-258 -700h-78z" />
    <glyph glyph-name="guilsinglleft" unicode="&#x2039;" horiz-adv-x="201" 
d="M105 106l-97 176v13l97 176h83l-75 -176v-13l75 -176h-83z" />
    <glyph glyph-name="guilsinglright" unicode="&#x203a;" horiz-adv-x="201" 
d="M192 282l-97 -176h-83l75 176v13l-75 176h83l97 -176v-13z" />
    <glyph glyph-name="fraction" unicode="&#x2044;" horiz-adv-x="220" 
d="M-32 0l206 700h78l-206 -700h-78z" />
    <glyph glyph-name="Euro" unicode="&#x20ac;" horiz-adv-x="450" 
d="M224 598q-22 0 -33 -10t-11 -37v-103h194v-62h-194v-48h194v-62h-194v-127q0 -27 11 -37t33 -10h28q23 0 33.5 9.5t10.5 37.5v82h127v-75q0 -97 -35 -128.5t-140 -31.5h-24q-104 0 -139.5 31.5t-35.5 128.5v120h-41v62h41v48h-41v62h41v96q0 97 35 128.5t140 31.5h21
q105 0 140 -31.5t35 -128.5v-48h-127v55q0 27 -11 37t-33 10h-25z" />
    <glyph glyph-name="afii61352" unicode="&#x2116;" horiz-adv-x="837" 
d="M626 704h25q97 0 128.5 -31.5t31.5 -109.5v-275q0 -78 -31.5 -109.5t-128.5 -31.5h-25q-98 0 -129 31.5t-31 109.5v275q0 78 31 109.5t129 31.5zM626 255h25q19 0 27 7.5t8 29.5v266q0 22 -8.5 30t-26.5 8h-25q-19 0 -27 -8t-8 -30v-266q0 -22 8 -29.5t27 -7.5zM466 0
v107h345v-107h-345zM31 700h132l121 -386h1v386h123v-700h-137l-111 367h-1v-367h-128v700z" />
    <glyph glyph-name="trademark" unicode="&#x2122;" horiz-adv-x="496" 
d="M274 578l3 -228h-64v350h91l37 -211h1l36 211h92v-350h-64l4 228h-3l-39 -228h-53l-39 228h-2zM8 643v57h190v-57h-62v-293h-66v293h-62z" />
    <glyph glyph-name="arrowleft" unicode="&#x2190;" horiz-adv-x="400" 
d="M156 113l-127 175v14l127 176l61 -42l-67 -98h224v-86h-224l67 -98z" />
    <glyph glyph-name="arrowup" unicode="&#x2191;" horiz-adv-x="400" 
d="M194 467h13l175 -127l-41 -62l-98 68v-224h-85v224l-99 -68l-41 62z" />
    <glyph glyph-name="arrowright" unicode="&#x2192;" horiz-adv-x="400" 
d="M373 288l-127 -175l-61 41l67 98h-224v86h224l-67 98l61 42l127 -176v-14z" />
    <glyph glyph-name="arrowdown" unicode="&#x2193;" horiz-adv-x="400" 
d="M207 120h-13l-176 127l41 62l99 -68v224h85v-224l98 68l41 -62z" />
    <glyph glyph-name="uni2196" unicode="&#x2196;" horiz-adv-x="400" 
d="M38 198l35 214l10 9l213 35l15 -73l-117 -22l158 -158l-60 -61l-158 159l-23 -118z" />
    <glyph glyph-name="uni2197" unicode="&#x2197;" horiz-adv-x="400" 
d="M322 412l35 -214l-73 -15l-23 118l-158 -159l-60 61l158 158l-117 22l15 73l213 -35z" />
    <glyph glyph-name="uni2198" unicode="&#x2198;" horiz-adv-x="400" 
d="M357 395l-35 -214l-10 -9l-213 -35l-15 73l117 22l-158 158l60 61l158 -159l23 118z" />
    <glyph glyph-name="uni2199" unicode="&#x2199;" horiz-adv-x="400" 
d="M73 181l-35 214l73 15l23 -118l158 159l60 -61l-158 -158l117 -22l-15 -73l-213 35z" />
    <glyph glyph-name="minus" unicode="&#x2212;" horiz-adv-x="347" 
d="M17 316v86h313v-86h-313z" />
    <glyph glyph-name="commaaccent" unicode="&#xf6c3;" horiz-adv-x="500" 
d="M211 -20v100h82v-86q0 -30 -10 -52.5t-36 -58.5l-34 18q5 11 10.5 22.5t7 15t3.5 10.5t2.5 13t0.5 18h-26z" />
    <glyph glyph-name="fi" unicode="&#xfb01;" horiz-adv-x="434" 
d="M280 734v-108h-85q-22 0 -22 -24v-25h233v-577h-125v471h-108v-471h-125v471h-40v106h40v29q0 81 29 104.5t118 23.5h85z" />
    <glyph glyph-name="fl" unicode="&#xfb02;" horiz-adv-x="434" 
d="M195 734h211v-734h-125v633h-86q-22 0 -22 -25v-31h62v-106h-62v-471h-125v471h-40v106h40v29q0 81 29 104.5t118 23.5z" />
    <glyph glyph-name="abreve.alt" 
d="M159 581h26l188 -4v-577q-116 -4 -190 -4h-24q-67 0 -99 28.5t-32 99.5v330q0 71 32 99t99 28zM185 106h63v365h-63q-33 0 -33 -37v-290q0 -38 33 -38zM225 607h-38q-59 0 -77.5 19.5t-18.5 75.5v12h76v-20q0 -25 23 -25h32q24 0 24 25v20h74v-12q0 -56 -18.5 -75.5
t-76.5 -19.5z" />
    <glyph glyph-name="guilsinglleft.case" horiz-adv-x="201" 
d="M105 172l-97 176v13l97 176h83l-75 -176v-13l75 -176h-83z" />
    <glyph glyph-name="gcommaaccent.alt" horiz-adv-x="414" 
d="M206 581h216v-70l-42 -11q15 -23 15 -60v-143q0 -78 -31 -109.5t-129 -31.5h-29q-22 0 -35 4q-24 -2 -24 -17q0 -11 5.5 -14t23.5 -3h83q56 0 82 -3t43.5 -17t21 -36t3.5 -68v-5q0 -78 -31.5 -109.5t-128.5 -31.5h-90q-98 0 -122 27t-5 101q10 32 39 65q-20 5 -29.5 17
t-11 24.5t-1.5 39.5q0 37 46 59q-29 29 -29 108v143q0 88 29 114.5t131 26.5zM206 264h29q19 0 27.5 8t8.5 29v135q0 22 -8.5 29.5t-27.5 7.5h-29q-19 0 -27 -7.5t-8 -29.5v-135q0 -21 8.5 -29t26.5 -8zM262 718v-100h-82v86q0 30 10 52.5t36 58.5l34 -18
q-5 -11 -10.5 -22.5t-7 -15t-3.5 -10.5t-2.5 -13t-0.5 -18h26zM171 -38h81q19 0 27 7.5t8 29.5v10q0 18 -4 24t-21 6h-91q-11 -11 -15 -39q-5 -23 -3 -30.5t18 -7.5z" />
    <glyph glyph-name="gdotaccent.alt" horiz-adv-x="414" 
d="M206 581h216v-70l-42 -11q15 -23 15 -60v-143q0 -78 -31 -109.5t-129 -31.5h-29q-22 0 -35 4q-24 -2 -24 -17q0 -11 5.5 -14t23.5 -3h83q56 0 82 -3t43.5 -17t21 -36t3.5 -68v-5q0 -78 -31.5 -109.5t-128.5 -31.5h-90q-98 0 -122 27t-5 101q10 32 39 65q-20 5 -29.5 17
t-11 24.5t-1.5 39.5q0 37 46 59q-29 29 -29 108v143q0 88 29 114.5t131 26.5zM206 264h29q19 0 27.5 8t8.5 29v135q0 22 -8.5 29.5t-27.5 7.5h-29q-19 0 -27 -7.5t-8 -29.5v-135q0 -21 8.5 -29t26.5 -8zM171 -38h81q19 0 27 7.5t8 29.5v10q0 18 -4 24t-21 6h-91
q-11 -11 -15 -39q-5 -23 -3 -30.5t18 -7.5zM181 620v92h80v-92h-80z" />
    <glyph glyph-name="g.alt" horiz-adv-x="414" 
d="M206 581h216v-70l-42 -11q15 -23 15 -60v-143q0 -78 -31 -109.5t-129 -31.5h-29q-22 0 -35 4q-24 -2 -24 -17q0 -11 5.5 -14t23.5 -3h83q56 0 82 -3t43.5 -17t21 -36t3.5 -68v-5q0 -78 -31.5 -109.5t-128.5 -31.5h-90q-98 0 -122 27t-5 101q10 32 39 65q-20 5 -29.5 17
t-11 24.5t-1.5 39.5q0 37 46 59q-29 29 -29 108v143q0 88 29 114.5t131 26.5zM206 264h29q19 0 27.5 8t8.5 29v135q0 22 -8.5 29.5t-27.5 7.5h-29q-19 0 -27 -7.5t-8 -29.5v-135q0 -21 8.5 -29t26.5 -8zM171 -38h81q19 0 27 7.5t8 29.5v10q0 18 -4 24t-21 6h-91
q-11 -11 -15 -39q-5 -23 -3 -30.5t18 -7.5z" />
    <glyph glyph-name="yacute.alt" 
d="M373 0q-4 -89 -35 -116t-125 -25q-60 2 -94.5 9t-52 27t-22.5 44.5t-5 70.5v19h113v-33q0 -21 7.5 -27t26.5 -6h29q17 0 24.5 6t8.5 24v61h-96q-66 0 -95 27.5t-29 98.5v397h124v-377q0 -37 33 -37h63v414h125v-577zM151 610l49 102h126l-92 -102h-83z" />
    <glyph glyph-name="gbreve.alt" horiz-adv-x="414" 
d="M206 581h216v-70l-42 -11q15 -23 15 -60v-143q0 -78 -31 -109.5t-129 -31.5h-29q-22 0 -35 4q-24 -2 -24 -17q0 -11 5.5 -14t23.5 -3h83q56 0 82 -3t43.5 -17t21 -36t3.5 -68v-5q0 -78 -31.5 -109.5t-128.5 -31.5h-90q-98 0 -122 27t-5 101q10 32 39 65q-20 5 -29.5 17
t-11 24.5t-1.5 39.5q0 37 46 59q-29 29 -29 108v143q0 88 29 114.5t131 26.5zM206 264h29q19 0 27.5 8t8.5 29v135q0 22 -8.5 29.5t-27.5 7.5h-29q-19 0 -27 -7.5t-8 -29.5v-135q0 -21 8.5 -29t26.5 -8zM241 607h-38q-59 0 -77.5 19.5t-18.5 75.5v12h76v-20q0 -25 23 -25h32
q24 0 24 25v20h74v-12q0 -56 -18.5 -75.5t-76.5 -19.5zM171 -38h81q19 0 27 7.5t8 29.5v10q0 18 -4 24t-21 6h-91q-11 -11 -15 -39q-5 -23 -3 -30.5t18 -7.5z" />
    <glyph glyph-name="y.alt" 
d="M373 0q-4 -89 -35 -116t-125 -25q-60 2 -94.5 9t-52 27t-22.5 44.5t-5 70.5v19h113v-33q0 -21 7.5 -27t26.5 -6h29q17 0 24.5 6t8.5 24v61h-96q-66 0 -95 27.5t-29 98.5v397h124v-377q0 -37 33 -37h63v414h125v-577z" />
    <glyph glyph-name="ydieresis.alt" 
d="M373 0q-4 -89 -35 -116t-125 -25q-60 2 -94.5 9t-52 27t-22.5 44.5t-5 70.5v19h113v-33q0 -21 7.5 -27t26.5 -6h29q17 0 24.5 6t8.5 24v61h-96q-66 0 -95 27.5t-29 98.5v397h124v-377q0 -37 33 -37h63v414h125v-577zM96 616v96h83v-96h-83zM223 616v96h83v-96h-83z" />
    <glyph glyph-name="ycircumflex.alt" 
d="M373 0q-4 -89 -35 -116t-125 -25q-60 2 -94.5 9t-52 27t-22.5 44.5t-5 70.5v19h113v-33q0 -21 7.5 -27t26.5 -6h29q17 0 24.5 6t8.5 24v61h-96q-66 0 -95 27.5t-29 98.5v397h124v-377q0 -37 33 -37h63v414h125v-577zM77 610l65 102h118l65 -102h-84l-40 49l-40 -49h-84z
" />
    <glyph glyph-name="ygrave.alt" 
d="M373 0q-4 -89 -35 -116t-125 -25q-60 2 -94.5 9t-52 27t-22.5 44.5t-5 70.5v19h113v-33q0 -21 7.5 -27t26.5 -6h29q17 0 24.5 6t8.5 24v61h-96q-66 0 -95 27.5t-29 98.5v397h124v-377q0 -37 33 -37h63v414h125v-577zM203 712l48 -102h-83l-91 102h126z" />
    <glyph glyph-name="RB" horiz-adv-x="900" 
d="M450 706q147 0 251.5 -104.5t104.5 -251.5t-104.5 -251.5t-251.5 -104.5t-251.5 104.5t-104.5 251.5t104.5 251.5t251.5 104.5zM420 241l-49 65q32 8 55.5 31.5t30.5 54.5q10 37 -9.5 63.5t-57.5 26.5h-90l-61 -241h181zM646 422q7 23 -7 40.5t-39 19.5h-108l-59 -241
h125q27 0 51.5 19t30.5 46q6 23 -6 40.5t-37 20.5q39 14 49 55z" />
    <glyph glyph-name="registered.alt" horiz-adv-x="529" 
d="M134 91v515h146q76 0 100.5 -22t24.5 -89v-78q0 -49 -12 -66t-50 -20q38 -5 50 -24t12 -68v-148h-97v158q0 41 -31 41h-46v-199h-97zM231 525v-158h49q14 0 21 6t7 23v100q0 17 -6.5 23t-21.5 6h-49zM186 700h152q150 0 150 -141v-417q0 -142 -150 -142h-152
q-149 0 -149 142v417q0 141 149 141zM186 16h152q132 0 132 126v417q0 126 -132 126h-152q-131 0 -131 -126v-417q0 -126 131 -126z" />
    <glyph glyph-name="published" horiz-adv-x="529" 
d="M142 91v515h146q75 0 99.5 -22t24.5 -89v-118q0 -68 -24.5 -90.5t-99.5 -22.5h-49v-173h-97zM239 525v-180h49q14 0 21 6t7 24v121q0 17 -7 23t-21 6h-49zM186 700h152q150 0 150 -141v-417q0 -142 -150 -142h-152q-149 0 -149 142v417q0 141 149 141zM186 16h152
q132 0 132 126v417q0 126 -132 126h-152q-131 0 -131 -126v-417q0 -126 131 -126z" />
    <glyph glyph-name="parenleft.case" horiz-adv-x="218" 
d="M142 620v-543q0 -54 11 -78q4 -9 20.5 -32t18.5 -26l-47 -41q-51 34 -78 69q-36 42 -36 108v543q0 65 36 106q25 32 78 70l47 -42q-37 -52 -39 -57q-11 -26 -11 -77z" />
    <glyph glyph-name="parenright.case" horiz-adv-x="218" 
d="M75 77v543q0 51 -11 77q-2 5 -39 57l47 42q53 -38 78 -70q36 -41 36 -106v-543q0 -66 -36 -108q-27 -35 -78 -69l-47 41q2 3 18.5 26t20.5 32q11 24 11 78z" />
    <glyph glyph-name="hyphen.case" horiz-adv-x="291" 
d="M17 304v103h257v-103h-257z" />
    <glyph glyph-name="bracketleft.case" horiz-adv-x="276" 
d="M145 676v-640h122v-92h-233v824h233v-92h-122z" />
    <glyph glyph-name="bracketright.case" horiz-adv-x="276" 
d="M131 36v640h-122v92h233v-824h-233v92h122z" />
    <glyph glyph-name="braceleft.case" horiz-adv-x="256" 
d="M7 318v66l6 2q6 3 12.5 6t14.5 9.5t14 14.5t10.5 20.5t4.5 27.5v156q0 65 36 106q22 28 78 70l44 -35q-33 -51 -36 -58q-11 -24 -11 -83v-156q0 -72 -59 -114q59 -42 59 -112v-161q0 -59 11 -85q3 -6 36 -57l-44 -35q-51 36 -78 69q-36 42 -36 108v161q0 10 -2.5 19.5
t-5.5 16t-8.5 13t-10 10.5t-11 8t-10 6t-8.5 4.5t-6 2.5z" />
    <glyph glyph-name="bar.case" horiz-adv-x="232" 
d="M67 -73v833h98v-833h-98z" />
    <glyph glyph-name="braceright.case" horiz-adv-x="256" 
d="M248 384v-66q-1 0 -6 -2.5t-8.5 -4.5t-10 -6t-11 -8t-10 -10.5t-8.5 -13t-5.5 -16t-2.5 -19.5v-161q0 -66 -36 -108q-27 -33 -78 -69l-44 35q33 51 36 57q11 26 11 85v161q0 70 59 112q-59 42 -59 114v156q0 59 -11 83q-3 7 -36 58l44 35q56 -42 78 -70q36 -41 36 -106
v-156q0 -15 4.5 -27.5t10.5 -20.5t14 -14.5t14.5 -9.5t12.5 -6z" />
    <glyph glyph-name="gcircumflex.alt" horiz-adv-x="414" 
d="M206 581h216v-70l-42 -11q15 -23 15 -60v-143q0 -78 -31 -109.5t-129 -31.5h-29q-22 0 -35 4q-24 -2 -24 -17q0 -11 5.5 -14t23.5 -3h83q56 0 82 -3t43.5 -17t21 -36t3.5 -68v-5q0 -78 -31.5 -109.5t-128.5 -31.5h-90q-98 0 -122 27t-5 101q10 32 39 65q-20 5 -29.5 17
t-11 24.5t-1.5 39.5q0 37 46 59q-29 29 -29 108v143q0 88 29 114.5t131 26.5zM206 264h29q19 0 27.5 8t8.5 29v135q0 22 -8.5 29.5t-27.5 7.5h-29q-19 0 -27 -7.5t-8 -29.5v-135q0 -21 8.5 -29t26.5 -8zM99 610l65 102h118l65 -102h-84l-40 49l-40 -49h-84zM171 -38h81
q19 0 27 7.5t8 29.5v10q0 18 -4 24t-21 6h-91q-11 -11 -15 -39q-5 -23 -3 -30.5t18 -7.5z" />
    <glyph glyph-name="guilsinglright.case" horiz-adv-x="201" 
d="M192 348l-97 -176h-83l75 176v13l-75 176h83l97 -176v-13z" />
    <glyph glyph-name="guillemotleft.case" horiz-adv-x="332" 
d="M230 172l-83 176v13l83 176h89l-68 -176v-13l68 -176h-89zM8 348v13l97 176h83l-75 -176v-13l75 -176h-83z" />
    <glyph glyph-name="guillemotright.case" horiz-adv-x="332" 
d="M185 348l-83 -176h-89l68 176v13l-68 176h89l83 -176v-13zM324 361v-13l-97 -176h-83l75 176v13l-75 176h83z" />
    <glyph glyph-name="endash.case" horiz-adv-x="399" 
d="M13 309v89h373v-89h-373z" />
    <glyph glyph-name="emdash.case" horiz-adv-x="576" 
d="M13 309v89h550v-89h-550z" />
    <glyph glyph-name="bullet.case" horiz-adv-x="281" 
d="M129 483h24q57 0 71.5 -17t14.5 -71v-84q0 -53 -14.5 -70t-71.5 -17h-24q-58 0 -73 17t-15 70v84q0 54 14.5 71t73.5 17z" />
    <glyph glyph-name="periodcentered.case" horiz-adv-x="178" 
d="M33 287v139h112v-139h-112z" />
    <glyph glyph-name="germandbls.case" horiz-adv-x="818" 
d="M202 704h14q106 0 141 -31.5t35 -128.5v-80h-131v89q0 27 -10.5 34.5t-34.5 7.5h-14q-24 0 -34.5 -7.5t-10.5 -34.5v-55q0 -34 12.5 -46t57.5 -29l66 -23q30 -11 43 -17t30 -21t23.5 -38.5t6.5 -59.5v-108q0 -97 -35.5 -128.5t-140.5 -31.5h-18q-106 0 -141 31.5
t-35 128.5v82h131v-90q0 -28 10.5 -35.5t34.5 -7.5h18q16 0 24.5 2t14.5 12t6 29v83q0 11 -2 19t-4 12.5t-9.5 9.5t-11 7t-16 7.5t-17.5 7.5l-71 25q-30 12 -44 19t-32 22t-25 39t-7 59v86q0 97 35.5 128.5t140.5 31.5zM603 704h14q106 0 141 -31.5t35 -128.5v-80h-131v89
q0 27 -10.5 34.5t-34.5 7.5h-14q-24 0 -34.5 -7.5t-10.5 -34.5v-55q0 -34 12.5 -46t57.5 -29l66 -23q30 -11 43 -17t30 -21t23.5 -38.5t6.5 -59.5v-108q0 -97 -35.5 -128.5t-140.5 -31.5h-18q-106 0 -141 31.5t-35 128.5v82h131v-90q0 -28 10.5 -35.5t34.5 -7.5h18
q16 0 24.5 2t14.5 12t6 29v83q0 11 -2 19t-4 12.5t-9.5 9.5t-11 7t-16 7.5t-17.5 7.5l-71 25q-30 12 -44 19t-32 22t-25 39t-7 59v86q0 97 35.5 128.5t140.5 31.5z" />
    <glyph glyph-name="i.dot" horiz-adv-x="181" 
d="M29 0v577h124v-577h-124zM33 620v92h116v-92h-116z" />
    <glyph glyph-name="caron.alt" horiz-adv-x="500" 
d="M218 670v89h68v-77q0 -27 -9.5 -46.5t-32.5 -49.5l-29 14l9.5 19t7 13.5t4.5 10t3 11.5t1 16h-22z" />
    <glyph glyph-name="aring.alt" 
d="M188 755h22q44 0 57 -14t13 -54v-15q0 -40 -13 -54t-57 -14h-22q-43 0 -56 14t-13 54v15q0 40 13 54t56 14zM209 719h-19q-21 0 -26 -5t-5 -24v-21q0 -19 5.5 -24t25.5 -5h19q21 0 26.5 5.5t5.5 23.5v21q0 19 -5.5 24t-26.5 5zM159 581h26l188 -4v-577q-116 -4 -190 -4
h-24q-67 0 -99 28.5t-32 99.5v330q0 71 32 99t99 28zM185 106h63v365h-63q-33 0 -33 -37v-290q0 -38 33 -38z" />
    <glyph glyph-name="atilde.alt" 
d="M159 581h26l188 -4v-577q-116 -4 -190 -4h-24q-67 0 -99 28.5t-32 99.5v330q0 71 32 99t99 28zM185 106h63v365h-63q-33 0 -33 -37v-290q0 -38 33 -38zM242 614l-87 51l-2 -50h-56l1 96h57l87 -31l2 30h57l-2 -96h-57z" />
    <glyph glyph-name="aringacute.alt" 
d="M159 581h26l188 -4v-577q-116 -4 -190 -4h-24q-67 0 -99 28.5t-32 99.5v330q0 71 32 99t99 28zM185 106h63v365h-63q-33 0 -33 -37v-290q0 -38 33 -38zM191 755h22q44 0 57 -14t13 -54v-15q0 -40 -13 -54t-57 -14h-22q-43 0 -56 14t-13 54v15q0 40 13 54t56 14zM157 783
l49 102h126l-92 -102h-83zM212 719h-19q-21 0 -26 -5t-5 -24v-21q0 -19 5 -24t26 -5h19q21 0 26.5 5.5t5.5 23.5v21q0 19 -5.5 24t-26.5 5z" />
    <glyph glyph-name="aogonek.alt" 
d="M372 -35v-16q0 -38 -10 -54.5t-46 -16.5h-58q-38 0 -49 12t-11 46v12q0 20 7.5 29.5t23.5 18.5h-46h-24q-67 0 -99 28.5t-32 99.5v330q0 71 32 99t99 28h26l188 -4v-577q-27 -1 -60 -2l-25 -15l-7.5 -5l-6 -4l-4.5 -3t-3.5 -3t-2 -3t-1.5 -3.5v-4.5v-5v-6t0.5 -4.5
t2 -3.5t3.5 -1.5t6 -0.5h22q8 0 9.5 2t1.5 9v3v15h64zM185 106h63v365h-63q-33 0 -33 -37v-290q0 -38 33 -38z" />
    <glyph glyph-name="idotaccent" horiz-adv-x="181" 
d="M29 0v577h124v-577h-124zM27 617v87h128v-87h-128z" />
    <glyph glyph-name="aacute.alt" 
d="M159 581h26l188 -4v-577q-116 -4 -190 -4h-24q-67 0 -99 28.5t-32 99.5v330q0 71 32 99t99 28zM185 106h63v365h-63q-33 0 -33 -37v-290q0 -38 33 -38zM150 610l49 102h126l-92 -102h-83z" />
    <glyph glyph-name="a.alt" 
d="M159 581h26l188 -4v-577q-116 -4 -190 -4h-24q-67 0 -99 28.5t-32 99.5v330q0 71 32 99t99 28zM185 106h63v365h-63q-33 0 -33 -37v-290q0 -38 33 -38z" />
    <glyph glyph-name="acircumflex.alt" 
d="M159 581h26l188 -4v-577q-116 -4 -190 -4h-24q-67 0 -99 28.5t-32 99.5v330q0 71 32 99t99 28zM185 106h63v365h-63q-33 0 -33 -37v-290q0 -38 33 -38zM78 610l65 102h118l65 -102h-84l-40 49l-40 -49h-84z" />
    <glyph glyph-name="adieresis.alt" 
d="M159 581h26l188 -4v-577q-116 -4 -190 -4h-24q-67 0 -99 28.5t-32 99.5v330q0 71 32 99t99 28zM185 106h63v365h-63q-33 0 -33 -37v-290q0 -38 33 -38zM102 616v96h83v-96h-83zM229 616v96h83v-96h-83z" />
    <glyph glyph-name="agrave.alt" 
d="M159 581h26l188 -4v-577q-116 -4 -190 -4h-24q-67 0 -99 28.5t-32 99.5v330q0 71 32 99t99 28zM185 106h63v365h-63q-33 0 -33 -37v-290q0 -38 33 -38zM225 712l48 -102h-83l-91 102h126z" />
    <glyph glyph-name="amacron.alt" 
d="M159 581h26l188 -4v-577q-116 -4 -190 -4h-24q-67 0 -99 28.5t-32 99.5v330q0 71 32 99t99 28zM185 106h63v365h-63q-33 0 -33 -37v-290q0 -38 33 -38zM91 624v72h224v-72h-224z" />
  </font>
</defs>
</svg>
