<?xml version="1.0" encoding="UTF-8" standalone="no"?>
<svg width="114px" height="30px" viewBox="0 0 114 30" version="1.1" xmlns="http://www.w3.org/2000/svg" xmlns:xlink="http://www.w3.org/1999/xlink">
    <!-- Generator: Sketch 3.7.2 (28276) - http://www.bohemiancoding.com/sketch -->
    <title>FUSE.</title>
    <desc>Created with Sketch.</desc>
    <defs></defs>
    <g id="Page-1" stroke="none" stroke-width="1" fill="none" fill-rule="evenodd">
        <path d="M0,0.72 L19,0.72 L19,6.48 L6.24,6.48 L6.24,12.24 L18.04,12.24 L18.04,18 L6.24,18 L6.24,29.04 L0,29.04 L0,0.72 Z M48.6171429,18.12 C48.6171429,19.8000084 48.3638121,21.3466596 47.8571429,22.76 C47.3504737,24.1733404 46.5971479,25.3999948 45.5971429,26.44 C44.5971379,27.4800052 43.3504837,28.2933304 41.8571429,28.88 C40.3638021,29.4666696 38.6438193,29.76 36.6971429,29.76 C34.7237997,29.76 32.9904837,29.4666696 31.4971429,28.88 C30.0038021,28.2933304 28.7571479,27.4800052 27.7571429,26.44 C26.7571379,25.3999948 26.0038121,24.1733404 25.4971429,22.76 C24.9904737,21.3466596 24.7371429,19.8000084 24.7371429,18.12 L24.7371429,0.72 L30.9771429,0.72 L30.9771429,17.88 C30.9771429,18.7600044 31.1171415,19.5733296 31.3971429,20.32 C31.6771443,21.0666704 32.0704737,21.7133306 32.5771429,22.26 C33.0838121,22.8066694 33.6904727,23.2333318 34.3971429,23.54 C35.1038131,23.8466682 35.8704721,24 36.6971429,24 C37.5238137,24 38.2838061,23.8466682 38.9771429,23.54 C39.6704797,23.2333318 40.2704737,22.8066694 40.7771429,22.26 C41.2838121,21.7133306 41.6771415,21.0666704 41.9571429,20.32 C42.2371443,19.5733296 42.3771429,18.7600044 42.3771429,17.88 L42.3771429,0.72 L48.6171429,0.72 L48.6171429,18.12 Z M69.6342858,7.64 C69.1276166,6.9999968 68.4409568,6.5266682 67.5742858,6.22 C66.7076148,5.9133318 65.887623,5.76 65.1142858,5.76 C64.6609502,5.76 64.1942882,5.8133328 63.7142858,5.92 C63.2342834,6.0266672 62.7809546,6.1933322 62.3542858,6.42 C61.927617,6.6466678 61.5809538,6.9466648 61.3142858,7.32 C61.0476178,7.6933352 60.9142858,8.146664 60.9142858,8.68 C60.9142858,9.5333376 61.2342826,10.1866644 61.8742858,10.64 C62.514289,11.0933356 63.3209476,11.4799984 64.2942858,11.8 C65.267624,12.1200016 66.3142802,12.4399984 67.4342858,12.76 C68.5542914,13.0800016 69.6009476,13.5333304 70.5742858,14.12 C71.547624,14.7066696 72.3542826,15.4933284 72.9942858,16.48 C73.634289,17.4666716 73.9542858,18.7866584 73.9542858,20.44 C73.9542858,22.0133412 73.6609554,23.3866608 73.0742858,24.56 C72.4876162,25.7333392 71.6942908,26.7066628 70.6942858,27.48 C69.6942808,28.2533372 68.5342924,28.8266648 67.2142858,29.2 C65.8942792,29.5733352 64.5009598,29.76 63.0342858,29.76 C61.1942766,29.76 59.487627,29.4800028 57.9142858,28.92 C56.3409446,28.3599972 54.8742926,27.4533396 53.5142858,26.2 L57.9542858,21.32 C58.594289,22.1733376 59.4009476,22.833331 60.3742858,23.3 C61.347624,23.766669 62.3542806,24 63.3942858,24 C63.900955,24 64.4142832,23.9400006 64.9342858,23.82 C65.4542884,23.6999994 65.9209504,23.5200012 66.3342858,23.28 C66.7476212,23.0399988 67.0809512,22.7333352 67.3342858,22.36 C67.5876204,21.9866648 67.7142858,21.5466692 67.7142858,21.04 C67.7142858,20.1866624 67.3876224,19.5133358 66.7342858,19.02 C66.0809492,18.5266642 65.2609574,18.1066684 64.2742858,17.76 C63.2876142,17.4133316 62.2209582,17.0666684 61.0742858,16.72 C59.9276134,16.3733316 58.8609574,15.9066696 57.8742858,15.32 C56.8876142,14.7333304 56.0676224,13.9600048 55.4142858,13 C54.7609492,12.0399952 54.4342858,10.7733412 54.4342858,9.2 C54.4342858,7.6799924 54.7342828,6.3466724 55.3342858,5.2 C55.9342888,4.0533276 56.7342808,3.0933372 57.7342858,2.32 C58.7342908,1.5466628 59.8876126,0.9666686 61.1942858,0.58 C62.500959,0.1933314 63.8476122,0 65.2342858,0 C66.8342938,0 68.380945,0.2266644 69.8742858,0.68 C71.3676266,1.1333356 72.7142798,1.893328 73.9142858,2.96 L69.6342858,7.64 Z M80.0914287,0.72 L99.3314287,0.72 L99.3314287,6.48 L86.3314287,6.48 L86.3314287,11.76 L98.6114287,11.76 L98.6114287,17.52 L86.3314287,17.52 L86.3314287,23.28 L100.051429,23.28 L100.051429,29.04 L80.0914287,29.04 L80.0914287,0.72 Z M105.668572,25.6 C105.668572,25.0933308 105.761904,24.6133356 105.948572,24.16 C106.135239,23.7066644 106.395237,23.313335 106.728572,22.98 C107.061907,22.646665 107.455236,22.3866676 107.908572,22.2 C108.361907,22.0133324 108.841902,21.92 109.348572,21.92 C109.855241,21.92 110.335236,22.0133324 110.788572,22.2 C111.241907,22.3866676 111.635237,22.646665 111.968572,22.98 C112.301907,23.313335 112.561904,23.7066644 112.748572,24.16 C112.935239,24.6133356 113.028572,25.0933308 113.028572,25.6 C113.028572,26.1066692 112.935239,26.5866644 112.748572,27.04 C112.561904,27.4933356 112.301907,27.886665 111.968572,28.22 C111.635237,28.553335 111.241907,28.8133324 110.788572,29 C110.335236,29.1866676 109.855241,29.28 109.348572,29.28 C108.841902,29.28 108.361907,29.1866676 107.908572,29 C107.455236,28.8133324 107.061907,28.553335 106.728572,28.22 C106.395237,27.886665 106.135239,27.4933356 105.948572,27.04 C105.761904,26.5866644 105.668572,26.1066692 105.668572,25.6 L105.668572,25.6 Z" id="FUSE." fill="#FFFFFF"></path>
    </g>
</svg>