<?xml version="1.0" encoding="UTF-8" standalone="no"?>
<svg width="225px" height="30px" viewBox="0 0 225 30" version="1.1" xmlns="http://www.w3.org/2000/svg" xmlns:xlink="http://www.w3.org/1999/xlink">
    <!-- Generator: Sketch 3.8.3 (29802) - http://www.bohemiancoding.com/sketch -->
    <title>Logo</title>
    <desc>Created with Sketch.</desc>
    <defs>
        <polygon id="path-1" points="0 0.417612439 224.032399 0.417612439 224.032399 17.9190081 0 17.9190081"></polygon>
        <polygon id="path-3" points="0 0.417612439 224.032399 0.417612439 224.032399 17.9190081 0 17.9190081"></polygon>
        <polygon id="path-5" points="0 0.417612439 224.032399 0.417612439 224.032399 17.9190081 0 17.9190081"></polygon>
    </defs>
    <g id="Page-1" stroke="none" stroke-width="1" fill="none" fill-rule="evenodd">
        <g id="Styles-Mobile-Global-Elements" transform="translate(-132.000000, -162.000000)">
            <g id="Group-18" transform="translate(112.000000, 145.000000)">
                <g id="Logo" transform="translate(20.000000, 16.000000)">
                    <text id="Car-research-made-ea" font-family="Helvetica-Light, Helvetica" font-size="9" font-weight="300" line-spacing="10" fill="#FFFFFF">
                        <tspan x="124" y="28.068">Car research made easy</tspan>
                    </text>
                    <g id="Page-1" transform="translate(0.000000, 0.974579)">
                        <polygon id="Fill-1" fill="#FFFFFF" points="0 0.862352265 0 6.1340249 2.53056214 6.1340249 2.53056214 3.69753755 4.98994601 3.69753755 4.98994601 14.9198141 3.16320268 14.9198141 3.16320268 17.5902441 10.0042818 17.5902441 10.0042818 14.9198141 8.17654295 14.9198141 8.17654295 3.69753755 10.6364246 3.69753755 10.6364246 6.1340249 13.166489 6.1340249 13.166489 0.862352265"></polygon>
                        <g id="Group-32">
                            <path d="M18.1941147,6.95416795 C18.6002788,6.25184238 19.1234143,5.71676089 19.7640189,5.34942122 C20.4041257,4.9825793 21.1303432,4.79940722 21.9426716,4.79940722 C22.6768532,4.79940722 23.344834,4.95918504 23.9461163,5.27973619 C24.5469008,5.59978958 25.058588,6.04925804 25.4806802,6.62615055 C25.9490632,7.26675509 26.2377583,7.90337763 26.3472633,8.53601816 C26.4567684,9.16816095 26.5115209,9.85953601 26.5115209,10.6091478 L26.5115209,14.9196648 L28.1277159,14.9196648 L28.1277159,17.5905925 L22.0367464,17.5905925 L22.0367464,14.9196648 L23.6534391,14.9196648 L23.6534391,11.3821539 C23.6534391,10.9301967 23.6449774,10.4797328 23.6295471,10.0347441 C23.6141169,9.59025314 23.4807198,9.16417895 23.2313469,8.75851251 C22.9655483,8.35234833 22.6340467,8.0596712 22.2358465,7.87948561 C21.8371486,7.70029553 21.4115721,7.61020274 20.9591172,7.61020274 C20.537025,7.61020274 20.1388248,7.69681128 19.7640189,7.86853511 C19.3887152,8.04025894 19.0686618,8.29012955 18.8033609,8.6176492 C18.4907738,9.00838313 18.311086,9.40708106 18.2647952,9.81324524 C18.2175089,10.2194094 18.1941147,10.6559364 18.1941147,11.1243193 L18.1941147,14.9196648 L19.8108074,14.9196648 L19.8108074,17.5905925 L13.7198379,17.5905925 L13.7198379,14.9196648 L15.3360329,14.9196648 L15.3360329,3.53412615 L13.7198379,3.53412615 L13.7198379,0.86270069 L18.1941147,0.86270069 L18.1941147,6.95416795 Z" id="Fill-2" fill="#FFFFFF"></path>
                            <path d="M38.3661394,10.2116445 C38.1162688,9.30524136 37.6314601,8.58698778 36.9137042,8.05588829 C36.1949529,7.52528655 35.367692,7.25849243 34.4299306,7.25849243 C34.0083362,7.25849243 33.5986877,7.33763472 33.1999898,7.49343054 C32.8017896,7.64972411 32.4389297,7.86027246 32.1109123,8.12557333 C31.7823972,8.39137195 31.501666,8.70346134 31.2672257,9.062837 C31.0332831,9.42271041 30.8685277,9.80548034 30.7754484,10.2116445 L38.3661394,10.2116445 Z M40.5447921,13.9129152 C40.2949215,14.5067312 39.9708861,15.049279 39.5726859,15.5410562 C39.1744857,16.0328334 38.717551,16.4549256 38.2018818,16.8058395 C37.6867103,17.1567534 37.1282346,17.4310138 36.5269523,17.6261319 C35.92567,17.8207522 35.2970115,17.918809 34.6409767,17.918809 C33.7191433,17.918809 32.8605241,17.7505694 32.063626,17.4155835 C31.2672257,17.0791044 30.5723664,16.6181877 29.9785503,16.0328334 C29.3847343,15.4469814 28.9168491,14.7566018 28.5729037,13.959206 C28.229456,13.1623079 28.0577322,12.3036887 28.0577322,11.382353 C28.0577322,10.4605196 28.221492,9.59393649 28.5495094,8.78160812 C28.8780246,7.97027526 29.3344615,7.26346994 29.9203136,6.66168991 C30.5061656,6.06090539 31.1930609,5.58406068 31.981995,5.23314677 C32.7704314,4.88123736 33.6335302,4.70553153 34.5707939,4.70553153 C35.4453411,4.70553153 36.2925119,4.88472161 37.1123066,5.24409727 C37.9325989,5.60347294 38.6468705,6.09525016 39.2566145,6.71992669 C39.8807933,7.37645924 40.329764,8.09869481 40.6035266,8.88762892 C40.8767915,9.67606528 41.0131751,10.5157699 41.0131751,11.4052496 L40.919598,12.4136915 L30.7988427,12.4136915 C30.8924198,12.8502185 31.0561796,13.2524006 31.2906199,13.6202381 C31.5250603,13.9865822 31.8097734,14.3036491 32.1457548,14.56895 C32.4817362,14.8342509 32.8525601,15.041315 33.2587243,15.1901423 C33.6648885,15.3389696 34.0939492,15.4116411 34.5473997,15.4116411 C35.1715784,15.4116411 35.7424979,15.2911856 36.2576694,15.049279 C36.7728409,14.8068746 37.2103634,14.4280867 37.5692413,13.9129152 L40.5447921,13.9129152 Z" id="Fill-4" fill="#FFFFFF"></path>
                            <path d="M62.1448622,6.13412445 C61.9109196,5.74388827 61.6217268,5.38899236 61.2782791,5.06844122 C60.9343337,4.74888557 60.5600255,4.47910495 60.1538613,4.26009485 C59.7476972,4.04208025 59.3221207,3.87384068 58.877132,3.75637162 C58.4321433,3.63890257 57.9826749,3.58066579 57.5302199,3.58066579 C56.7333218,3.58066579 56.0031222,3.72152911 55.3391234,4.00226024 C54.6751246,4.28299136 54.0972366,4.67024104 53.6059571,5.16201826 C53.1141799,5.65429323 52.7309122,6.24014525 52.4576474,6.91857881 C52.1838847,7.59800786 52.0475012,8.32920294 52.0475012,9.10917755 C52.0475012,9.85978489 52.1883645,10.5665902 52.4695934,11.230589 C52.7503245,11.8935923 53.1370764,12.4799421 53.6293514,12.9871496 C54.1211286,13.4948548 54.6985189,13.893055 55.3625177,14.1822478 C56.0265165,14.4719385 56.7333218,14.6157883 57.4829336,14.6157883 C58.4510578,14.6157883 59.3489992,14.3967782 60.1772556,13.9592557 C61.0050142,13.5227288 61.676977,12.896559 62.1921485,12.0852261 L65.6365801,12.0852261 C65.3548534,12.944343 64.9447073,13.7287974 64.4061415,14.4395847 C63.867078,15.1513675 63.2344375,15.7636003 62.5077222,16.2787718 C61.7820023,16.794441 60.989584,17.1956277 60.1304671,17.4853183 C59.2713502,17.7740135 58.396803,17.9188588 57.5068256,17.9188588 C56.3819101,17.9188588 55.2764069,17.6874049 54.1908136,17.2279815 C53.1057182,16.7670648 52.1644725,16.1379085 51.3685699,15.3420059 C50.5403135,14.498817 49.911655,13.5376613 49.4825943,12.4605298 C49.0520403,11.3824028 48.8380077,10.2584828 48.8380077,9.08677879 C48.8380077,7.91507476 49.0605021,6.806585 49.5054908,5.75931853 C49.9509772,4.71304756 50.5602235,3.79121414 51.3327318,2.99481378 C52.1062357,2.19891117 53.0116434,1.56975489 54.0509458,1.10834043 C55.0892528,0.648419218 56.2022223,0.417960864 57.3888588,0.417960864 C58.3734088,0.417960864 59.3106725,0.58620044 60.2011476,0.921684092 C61.091125,1.25716774 61.8795614,1.77681898 62.5674522,2.4796423 L62.5674522,0.793264534 L65.1905959,0.793264534 L65.1905959,6.13412445 L62.1448622,6.13412445 Z" id="Fill-6" fill="#F2C600"></path>
                            <g id="Group-10">
                                <mask id="mask-2" fill="white">
                                    <use xlink:href="#path-1"></use>
                                </mask>
                                <g id="Clip-9"></g>
                                <path d="M72.8776015,15.1308104 C73.4082032,15.1308104 73.9084422,15.0297671 74.3778207,14.8256896 C74.8452081,14.6231052 75.25187,14.3463561 75.59482,13.9944467 C75.9387654,13.6435328 76.2075505,13.2328888 76.4036641,12.7645059 C76.5992799,12.2961229 76.6963412,11.7963817 76.6963412,11.2652822 C76.6963412,10.7501107 76.5948002,10.2662975 76.3922158,9.81284704 C76.1881382,9.36039208 75.9193531,8.96567616 75.5833717,8.62969475 C75.2468925,8.29371335 74.8486924,8.02841248 74.3887712,7.83279664 C73.9278544,7.63817631 73.4395615,7.53962176 72.9248877,7.53962176 C72.3927928,7.53962176 71.8970335,7.64215831 71.4366146,7.8442449 C70.9756979,8.04782474 70.5774977,8.32507162 70.242014,8.67598553 C69.9060326,9.02789493 69.6407318,9.43804112 69.4451159,9.90642408 C69.2499978,10.374807 69.1524388,10.8745483 69.1524388,11.4056478 C69.1524388,11.9218147 69.2499978,12.4021437 69.4451159,12.8471324 C69.6407318,13.2916234 69.9100146,13.6863393 70.25396,14.0292892 C70.5969099,14.3737324 70.9951101,14.6425175 71.4485606,14.8381333 C71.9010155,15.0337492 72.3778602,15.1308104 72.8776015,15.1308104 L72.8776015,15.1308104 Z M76.6495527,15.9038165 C76.1966,16.6066399 75.618712,17.1178293 74.9163864,17.4388782 C74.2130653,17.7584339 73.4475255,17.9192072 72.6202646,17.9192072 C71.7292917,17.9192072 70.8940668,17.7459901 70.1130967,17.4025425 C69.3316289,17.0595926 68.6526976,16.5922051 68.0748095,15.9968958 C67.4969215,15.4050708 67.0394891,14.7127003 66.7045032,13.9242639 C66.3685218,13.1358275 66.20078,12.2961229 66.20078,11.4056478 C66.20078,10.5002401 66.3725038,9.64510521 66.7159514,8.84074085 C67.0593991,8.03687424 67.5242978,7.32957117 68.1101498,6.71982714 C68.6960018,6.11107861 69.3863814,5.63074965 70.1837773,5.27933799 C70.9796799,4.92742858 71.8387968,4.7522205 72.7601324,4.7522205 C73.571963,4.7522205 74.3146064,4.93190833 74.9860714,5.29128399 C75.6575365,5.65016191 76.212528,6.17329739 76.6495527,6.8601927 L76.6495527,5.0802379 L81.1243272,5.0802379 L81.1243272,7.75116561 L79.5549207,7.75116561 L79.5549207,14.9197644 L81.1243272,14.9197644 L81.1243272,17.5901943 L76.6495527,17.5901943 L76.6495527,15.9038165 Z" id="Fill-8" fill="#F2C600" mask="url(#mask-2)"></path>
                            </g>
                            <path d="M86.1890353,7.21175369 C86.548411,6.46214185 87.0596004,5.90416385 87.724097,5.53732193 C88.387598,5.16998226 89.1252639,4.97088217 89.9375922,4.94002166 L89.9375922,7.86828623 C89.4846395,7.89914675 89.0510991,7.98177329 88.6369709,8.1146726 C88.2238382,8.24707416 87.8370863,8.46907076 87.4782084,8.7816579 C87.0093277,9.18881758 86.7131663,9.63679278 86.5872355,10.1290678 C86.4623002,10.620845 86.4005791,11.1643882 86.4005791,11.7572087 L86.4005791,14.9199137 L88.0167741,14.9199137 L88.0167741,17.5903436 L81.9258046,17.5903436 L81.9258046,14.9199137 L83.5419996,14.9199137 L83.5419996,7.75131493 L81.9258046,7.75131493 L81.9258046,5.08038722 L86.1890353,5.08038722 L86.1890353,7.21175369 Z" id="Fill-11" fill="#F2C600"></path>
                            <path d="M109.174494,6.13412445 C108.940551,5.74388827 108.651856,5.38949011 108.30791,5.06893897 C107.963965,4.74888557 107.588661,4.47910495 107.183493,4.26009485 C106.776831,4.04208025 106.351752,3.87384068 105.906266,3.75736712 C105.461277,3.63890257 105.012306,3.58066579 104.559354,3.58066579 C103.762455,3.58066579 103.032256,3.72152911 102.368755,4.00325574 C101.704258,4.28299136 101.126868,4.67024104 100.635091,5.16201826 C100.142816,5.65479098 99.7600459,6.240643 99.4872787,6.91857881 C99.2140139,7.59800786 99.0766348,8.32920294 99.0766348,9.10917755 C99.0766348,9.85978489 99.2174981,10.5665902 99.498727,11.230589 C99.7804536,11.8935923 100.166708,12.4799421 100.658983,12.9871496 C101.15076,13.4958503 101.72815,13.893055 102.391651,14.1822478 C103.056148,14.4719385 103.762455,14.6157883 104.513063,14.6157883 C105.480689,14.6157883 106.378631,14.3967782 107.206887,13.9602512 C108.034646,13.5227288 108.707106,12.896559 109.22178,12.0852261 L112.666211,12.0852261 C112.384485,12.944343 111.974339,13.7287974 111.435773,14.4405802 C110.896709,15.1513675 110.264069,15.7636003 109.537851,16.2787718 C108.811634,16.794441 108.019215,17.1956277 107.159601,17.4853183 C106.300982,17.7740135 105.426434,17.9188588 104.535959,17.9188588 C103.411044,17.9188588 102.306038,17.6874049 101.220445,17.2279815 C100.134852,16.7670648 99.1946016,16.1379085 98.3982012,15.3420059 C97.5699449,14.498817 96.9407886,13.5376613 96.5122256,12.4605298 C96.0816717,11.3824028 95.8676391,10.2584828 95.8676391,9.08677879 C95.8676391,7.91507476 96.0901334,6.80708275 96.5346244,5.75981628 C96.9806086,4.71304756 97.5898549,3.79121414 98.362861,2.99481378 C99.1353693,2.19891117 100.040777,1.56975489 101.080079,1.10834043 C102.118386,0.648419218 103.231854,0.417960864 104.418988,0.417960864 C105.40304,0.417960864 106.339806,0.58620044 107.230281,0.922181842 C108.120756,1.25716774 108.909193,1.77681898 109.596586,2.48014005 L109.596586,0.793264534 L112.220725,0.793264534 L112.220725,6.13412445 L109.174494,6.13412445 Z" id="Fill-13" fill="#FFFFFF"></path>
                            <path d="M119.76627,15.107466 C120.282437,15.107466 120.769734,15.0104047 121.230651,14.8147888 C121.691568,14.6201685 122.093252,14.3503879 122.437695,14.0069402 C122.781143,13.6639903 123.049928,13.2613104 123.245046,12.7993982 C123.44116,12.3389792 123.538221,11.8516817 123.538221,11.3355148 C123.538221,10.8203433 123.444644,10.3320503 123.257988,9.87113359 C123.070336,9.41021688 122.808022,9.00455045 122.47204,8.65313879 C122.137054,8.30222488 121.742338,8.02497801 121.289386,7.82139816 C120.835935,7.61931157 120.352122,7.51727278 119.836453,7.51727278 C119.321779,7.51727278 118.832988,7.61433407 118.372569,7.80994991 C117.911653,8.00556575 117.50947,8.27086662 117.166023,8.60635027 C116.822575,8.94282942 116.548813,9.3410296 116.346228,9.80144856 C116.143146,10.2613698 116.042103,10.7501605 116.042103,11.265332 C116.042103,11.7805035 116.13568,12.2727784 116.322336,12.7411614 C116.509988,13.2095444 116.771307,13.6201883 117.107786,13.9711022 C117.44327,14.3230116 117.837488,14.6007562 118.290441,14.8033406 C118.743393,15.0064227 119.235668,15.107466 119.76627,15.107466 M119.76627,17.9187592 C118.844934,17.9187592 117.990297,17.7430534 117.201363,17.3921395 C116.412429,17.0402301 115.721552,16.5648786 115.127736,15.9630986 C114.53392,15.3613186 114.069519,14.6594908 113.734035,13.8541309 C113.398054,13.0502643 113.229814,12.1946316 113.229814,11.2887262 C113.229814,10.3828208 113.406018,9.52868144 113.757429,8.72282382 C114.108343,7.91845946 114.580708,7.22111139 115.174524,6.62580212 C115.76834,6.03347935 116.467181,5.56459864 117.271546,5.22115099 C118.07591,4.87820108 118.930547,4.70548175 119.836453,4.70548175 C120.742358,4.70548175 121.590027,4.88168533 122.379459,5.23309699 C123.167397,5.5840109 123.85479,6.05637587 124.440642,6.64969413 C125.025997,7.2440079 125.490895,7.93787172 125.833845,8.73576533 C126.178288,9.53166794 126.350012,10.3748568 126.350012,11.265332 C126.350012,12.1871654 126.178288,13.0502643 125.833845,13.8541309 C125.490895,14.6594908 125.022015,15.3613186 124.429194,15.9630986 C123.835378,16.5648786 123.140021,17.0402301 122.344118,17.3921395 C121.547718,17.7430534 120.687606,17.9187592 119.76627,17.9187592" id="Fill-15" fill="#FFFFFF"></path>
                            <path d="M128.156099,7.75181268 L126.539904,7.75181268 L126.539904,5.08038722 L131.013683,5.08038722 L131.013683,6.86034203 C131.388987,6.15801646 131.90366,5.63886298 132.560691,5.30238382 C133.21573,4.96739792 133.933984,4.79915835 134.715949,4.79915835 C135.403342,4.79915835 136.063359,4.93205766 136.695502,5.19735853 C137.32864,5.4636549 137.87069,5.84592707 138.323643,6.3456683 C138.573016,6.62590167 138.772116,6.91210805 138.920943,7.20030543 C139.06977,7.48999606 139.174796,7.78217545 139.23801,8.07883458 C139.299731,8.37648921 139.338555,8.68509435 139.354483,9.00465 C139.370411,9.32470339 139.378375,9.6646668 139.378375,10.0240425 L139.378375,14.9199137 L140.995068,14.9199137 L140.995068,17.5903436 L134.903601,17.5903436 L134.903601,14.9199137 L136.519796,14.9199137 L136.519796,10.8667336 C136.519796,10.4769952 136.500384,10.0902432 136.461061,9.70797107 C136.422237,9.32470339 136.276894,8.96234123 136.027521,8.61740032 C135.76222,8.27445042 135.434203,8.0205978 135.043967,7.85683798 C134.652735,7.69208266 134.246571,7.61094937 133.825972,7.61094937 C133.387454,7.61094937 132.966357,7.69706016 132.560691,7.86828623 C132.154029,8.04001006 131.818047,8.30531093 131.552746,8.6646866 C131.287446,9.02406226 131.131152,9.4456567 131.084861,9.92996767 C131.037575,10.4147764 131.013683,10.8667336 131.013683,11.2888258 L131.013683,14.9199137 L132.629878,14.9199137 L132.629878,17.5903436 L126.539904,17.5903436 L126.539904,14.9199137 L128.156099,14.9199137 L128.156099,7.75181268 Z" id="Fill-17" fill="#FFFFFF"></path>
                            <path d="M142.973874,7.75181268 L141.357679,7.75181268 L141.357679,5.08038722 L145.832454,5.08038722 L145.832454,6.86034203 C146.206762,6.15801646 146.722431,5.63886298 147.378466,5.30238382 C148.034501,4.96739792 148.752754,4.79915835 149.53472,4.79915835 C150.221118,4.79915835 150.881134,4.93205766 151.513277,5.19735853 C152.146415,5.4636549 152.688465,5.84592707 153.141418,6.3456683 C153.391786,6.62590167 153.590887,6.91210805 153.739714,7.20030543 C153.887546,7.48999606 153.992571,7.78217545 154.055785,8.07883458 C154.118502,8.37648921 154.157326,8.68509435 154.173254,9.00465 C154.187689,9.32470339 154.196151,9.6646668 154.196151,10.0240425 L154.196151,14.9199137 L155.812346,14.9199137 L155.812346,17.5903436 L149.720879,17.5903436 L149.720879,14.9199137 L151.338567,14.9199137 L151.338567,10.8667336 C151.338567,10.4769952 151.318159,10.0902432 151.279334,9.70797107 C151.240012,9.32470339 151.095665,8.96234123 150.845296,8.61740032 C150.579995,8.27445042 150.25148,8.0205978 149.861742,7.85683798 C149.471506,7.69208266 149.065341,7.61094937 148.643747,7.61094937 C148.206225,7.61094937 147.784132,7.69706016 147.378466,7.86828623 C146.971804,8.04001006 146.636818,8.30531093 146.371517,8.6646866 C146.104723,9.02406226 145.949425,9.4456567 145.902637,9.92996767 C145.85535,10.4147764 145.832454,10.8667336 145.832454,11.2888258 L145.832454,14.9199137 L147.449147,14.9199137 L147.449147,17.5903436 L141.357679,17.5903436 L141.357679,14.9199137 L142.973874,14.9199137 L142.973874,7.75181268 Z" id="Fill-19" fill="#FFFFFF"></path>
                            <path d="M166.027873,10.2116445 C165.777504,9.30524136 165.293193,8.58698778 164.57494,8.05588829 C163.857184,7.52528655 163.028928,7.25849243 162.091664,7.25849243 C161.669572,7.25849243 161.259923,7.33763472 160.861723,7.49343054 C160.463523,7.64972411 160.100165,7.86027246 159.773143,8.12557333 C159.444131,8.39236745 159.162902,8.70346134 158.928461,9.062837 C158.694519,9.42320816 158.530261,9.80548034 158.436684,10.2116445 L166.027873,10.2116445 Z M168.206028,13.9129152 C167.956655,14.5067312 167.633117,15.049279 167.233922,15.5410562 C166.835721,16.0328334 166.379284,16.4549256 165.863117,16.8058395 C165.348444,17.1567534 164.78947,17.4310138 164.188686,17.6261319 C163.586906,17.8207522 162.958745,17.918809 162.302212,17.918809 C161.381374,17.918809 160.522258,17.7505694 159.725857,17.4155835 C158.928461,17.0791044 158.2341,16.6181877 157.640284,16.0328334 C157.046965,15.4469814 156.578085,14.7566018 156.234637,13.9602015 C155.890194,13.1623079 155.71847,12.3046842 155.71847,11.382353 C155.71847,10.4605196 155.883225,9.59443424 156.210247,8.78210587 C156.53926,7.97027526 156.996195,7.26346994 157.582047,6.66168991 C158.167899,6.06090539 158.854297,5.58406068 159.643728,5.23314677 C160.431667,4.88173511 161.295264,4.70553153 162.232527,4.70553153 C163.106577,4.70553153 163.954245,4.88472161 164.774538,5.24409727 C165.594332,5.60347294 166.308604,6.09525016 166.91785,6.71992669 C167.542527,7.37645924 167.991,8.09919256 168.265758,8.88762892 C168.538027,9.67606528 168.674908,10.5157699 168.674908,11.4052496 L168.581331,12.4136915 L158.460576,12.4136915 C158.554153,12.8502185 158.718411,13.2524006 158.952353,13.6202381 C159.187291,13.9875777 159.471009,14.3036491 159.80699,14.56895 C160.14347,14.8352464 160.514294,15.041315 160.91996,15.1901423 C161.326622,15.3389696 161.755185,15.4116411 162.208138,15.4116411 C162.832814,15.4116411 163.404231,15.2911856 163.918905,15.049279 C164.434574,14.8078701 164.871599,14.4280867 165.230477,13.9129152 L168.206028,13.9129152 Z" id="Fill-21" fill="#FFFFFF"></path>
                            <g id="Group-25">
                                <mask id="mask-4" fill="white">
                                    <use xlink:href="#path-3"></use>
                                </mask>
                                <g id="Clip-24"></g>
                                <path d="M181.899485,13.3741006 C181.711833,14.0291399 181.411192,14.6398794 180.998059,15.2008439 C180.583931,15.7637994 180.09514,16.2441284 179.533678,16.6423286 C178.970723,17.040031 178.362472,17.3531159 177.705441,17.5795922 C177.049904,17.8060686 176.378439,17.9190579 175.691046,17.9190579 C174.785141,17.9190579 173.929011,17.7458408 173.125144,17.4028909 C172.32078,17.0594432 171.621938,16.5920558 171.028122,15.9972443 C170.434804,15.4049215 169.963434,14.7090667 169.611027,13.9126663 C169.260113,13.1152705 169.084905,12.2581446 169.084905,11.3353157 C169.084905,10.4771943 169.243688,9.64495589 169.564239,8.84059152 C169.884292,8.03672491 170.329281,7.32942184 170.899703,6.71967782 C171.469627,6.11142704 172.138105,5.62263632 172.903147,5.2557944 C173.668687,4.88945024 174.49545,4.7057804 175.386921,4.7057804 C176.089246,4.7057804 176.744784,4.84266172 177.35403,5.11592659 C177.962778,5.38968921 178.501842,5.77494789 178.970723,6.27468911 L178.970723,5.08008857 L181.430604,5.08008857 L181.430604,9.25023996 L178.760174,9.25023996 C178.415731,8.75049873 177.970742,8.33736605 177.424213,8.0088509 C176.877185,7.69676151 176.284862,7.53997019 175.644258,7.53997019 C175.113158,7.53997019 174.621381,7.64200898 174.168428,7.84409557 C173.715476,8.04767542 173.323746,8.32143804 172.996724,8.6648857 C172.668707,9.0088311 172.41137,9.41051553 172.223718,9.87143224 C172.036066,10.3323489 171.941992,10.8201442 171.941992,11.3353157 C171.941992,11.8664151 172.039053,12.3631699 172.235166,12.8230911 C172.430782,13.28351 172.699567,13.682208 173.044011,14.0186871 C173.386961,14.3551663 173.788645,14.6204671 174.249562,14.8150875 C174.710976,15.0102056 175.199269,15.1072669 175.713943,15.1072669 C176.323687,15.1072669 176.909539,14.9549553 177.471001,14.6503322 C178.033459,14.3462068 178.447089,13.9216258 178.713386,13.3741006 L181.899485,13.3741006 Z" id="Fill-23" fill="#FFFFFF" mask="url(#mask-4)"></path>
                            </g>
                            <polygon id="Fill-26" fill="#FFFFFF" points="186.96937 14.9198639 189.241102 14.9198639 189.241102 17.5902939 184.11079 17.5902939 184.11079 7.75176291 182.143183 7.75176291 182.143183 5.08033745 184.11079 5.08033745 184.11079 0.86240204 186.96937 0.86240204 186.96937 5.08033745 189.101732 5.08033745 189.101732 7.75176291 186.96937 7.75176291"></polygon>
                            <mask id="mask-6" fill="white">
                                <use xlink:href="#path-5"></use>
                            </mask>
                            <g id="Clip-29"></g>
                            <path d="M194.525268,3.88494051 L191.666688,3.88494051 L191.666688,0.86260114 L194.525268,0.86260114 L194.525268,3.88494051 Z M194.525268,14.920063 L196.14196,14.920063 L196.14196,17.590493 L190.026103,17.590493 L190.026103,14.920063 L191.66619,14.920063 L191.66619,7.75196201 L190.049995,7.75196201 L190.049995,5.0800388 L194.525268,5.0800388 L194.525268,14.920063 Z" id="Fill-28" fill="#FFFFFF" mask="url(#mask-6)"></path>
                            <path d="M202.804049,15.107466 C203.318722,15.107466 203.807513,15.0104047 204.267932,14.8147888 C204.727853,14.6201685 205.131031,14.3503879 205.474976,14.0069402 C205.818424,13.6639903 206.087209,13.2613104 206.282327,12.7993982 C206.478441,12.3389792 206.575502,11.8516817 206.575502,11.3355148 C206.575502,10.8203433 206.481925,10.3320503 206.294273,9.87113359 C206.107617,9.41021688 205.845302,9.00455045 205.509819,8.65313879 C205.174335,8.30222488 204.779619,8.02497801 204.326667,7.82139816 C203.873216,7.61931157 203.389901,7.51727278 202.873734,7.51727278 C202.35906,7.51727278 201.870269,7.61433407 201.409352,7.80994991 C200.948436,8.00556575 200.546751,8.27086662 200.203304,8.60635027 C199.859358,8.94282942 199.586093,9.3410296 199.383509,9.80144856 C199.179929,10.2613698 199.079384,10.7501605 199.079384,11.265332 C199.079384,11.7805035 199.172961,12.2727784 199.359617,12.7411614 C199.547269,13.2095444 199.809085,13.6201883 200.144071,13.9711022 C200.480551,14.3230116 200.875266,14.6007562 201.328219,14.8033406 C201.781172,15.0064227 202.273447,15.107466 202.804049,15.107466 M202.804049,17.9187592 C201.881717,17.9187592 201.027578,17.7430534 200.238146,17.3921395 C199.450208,17.0402301 198.758833,16.5648786 198.165514,15.9630986 C197.5712,15.3613186 197.107297,14.6594908 196.770818,13.8541309 C196.435334,13.0502643 196.267095,12.1946316 196.267095,11.2887262 C196.267095,10.3828208 196.443796,9.52868144 196.79471,8.72282382 C197.146122,7.91845946 197.618487,7.22111139 198.211805,6.62580212 C198.806119,6.03347935 199.503467,5.56459864 200.308827,5.22115099 C201.113191,4.87820108 201.96733,4.70548175 202.873734,4.70548175 C203.779639,4.70548175 204.627308,4.88168533 205.415744,5.23309699 C206.204678,5.5840109 206.892569,6.05637587 207.478421,6.64969413 C208.063775,7.2440079 208.528176,7.93787172 208.871126,8.73576533 C209.214574,9.53166794 209.387791,10.3748568 209.387791,11.265332 C209.387791,12.1871654 209.214574,13.0502643 208.871126,13.8541309 C208.528176,14.6594908 208.059295,15.3613186 207.465479,15.9630986 C206.871663,16.5648786 206.177302,17.0402301 205.381399,17.3921395 C204.584003,17.7430534 203.724887,17.9187592 202.804049,17.9187592" id="Fill-30" fill="#FFFFFF" mask="url(#mask-6)"></path>
                            <path d="M211.193878,7.75181268 L209.576189,7.75181268 L209.576189,5.08038722 L214.050964,5.08038722 L214.050964,6.86034203 C214.426267,6.15801646 214.940941,5.63886298 215.597972,5.30238382 C216.253509,4.96739792 216.971762,4.79915835 217.75323,4.79915835 C218.440623,4.79915835 219.10064,4.93205766 219.732285,5.19735853 C220.364925,5.4636549 220.908469,5.84592707 221.361421,6.3456683 C221.610794,6.62590167 221.809397,6.91210805 221.958224,7.20030543 C222.107051,7.48999606 222.212574,7.78217545 222.275291,8.07883458 C222.337012,8.37648921 222.375836,8.68509435 222.391764,9.00465 C222.406697,9.32470339 222.414661,9.6646668 222.414661,10.0240425 L222.414661,14.9199137 L224.032349,14.9199137 L224.032349,17.5903436 L217.940882,17.5903436 L217.940882,14.9199137 L219.557077,14.9199137 L219.557077,10.8667336 C219.557077,10.4769952 219.537665,10.0902432 219.498342,9.70797107 C219.458522,9.32470339 219.314672,8.96234123 219.0653,8.61740032 C218.798505,8.27445042 218.471484,8.0205978 218.081745,7.85683798 C217.690513,7.69208266 217.283852,7.61094937 216.863253,7.61094937 C216.425232,7.61094937 216.004136,7.69706016 215.597972,7.86828623 C215.191807,8.04001006 214.855328,8.30531093 214.590027,8.6646866 C214.324726,9.02406226 214.167935,9.4456567 214.122142,9.92996767 C214.075354,10.4147764 214.050964,10.8667336 214.050964,11.2888258 L214.050964,14.9199137 L215.667657,14.9199137 L215.667657,17.5903436 L209.576189,17.5903436 L209.576189,14.9199137 L211.193878,14.9199137 L211.193878,7.75181268 Z" id="Fill-31" fill="#FFFFFF" mask="url(#mask-6)"></path>
                        </g>
                    </g>
                </g>
            </g>
        </g>
    </g>
</svg>