<?xml version="1.0" encoding="UTF-8" standalone="no"?>
<svg width="22px" height="22px" viewBox="0 0 22 22" version="1.1" xmlns="http://www.w3.org/2000/svg" xmlns:xlink="http://www.w3.org/1999/xlink">
    <!-- Generator: Sketch 3.7.2 (28276) - http://www.bohemiancoding.com/sketch -->
    <title>swap-icon</title>
    <desc>Created with Sketch.</desc>
    <defs></defs>
    <g id="Page-1" stroke="none" stroke-width="1" fill="none" fill-rule="evenodd">
        <g id="swap-icon" fill="#ACACB4">
            <path d="M15,13.475352 L15,19 C15,19.5522847 14.5522847,20 14,20 C13.4477153,20 13,19.5522847 13,19 L13,13.475352 L10.7085417,13.475352 C10.2734354,13.475352 10.0459565,12.9580801 10.3400411,12.6374062 L13.6314994,9.04835593 C13.8296558,8.83228359 14.1703442,8.83228359 14.3685006,9.04835593 L17.6599589,12.6374062 C17.9540435,12.9580801 17.7265646,13.475352 17.2914583,13.475352 L15,13.475352 Z" id="arrow" transform="translate(14.000000, 14.443151) rotate(-180.000000) translate(-14.000000, -14.443151) "></path>
            <path d="M9,6.47535197 L9,12 C9,12.5522847 8.55228475,13 8,13 C7.44771525,13 7,12.5522847 7,12 L7,6.47535197 L4.70854168,6.47535197 C4.2734354,6.47535197 4.04595647,5.95808006 4.34004111,5.63740622 L7.63149943,2.04835593 C7.82965577,1.83228359 8.17034423,1.83228359 8.36850057,2.04835593 L11.6599589,5.63740622 C11.9540435,5.95808006 11.7265646,6.47535197 11.2914583,6.47535197 L9,6.47535197 Z" id="arrow"></path>
        </g>
    </g>
</svg>