<?xml version="1.0" encoding="UTF-8" standalone="no"?>
<svg width="16px" height="16px" viewBox="0 0 16 16" version="1.1" xmlns="http://www.w3.org/2000/svg" xmlns:xlink="http://www.w3.org/1999/xlink">
    <!-- Generator: Sketch 3.7.2 (28276) - http://www.bohemiancoding.com/sketch -->
    <title>close-icon</title>
    <desc>Created with Sketch.</desc>
    <defs></defs>
    <g id="Page-1" stroke="none" stroke-width="1" fill="none" fill-rule="evenodd">
        <path d="M6.58578645,7.53566887 L0.792893219,1.74277563 C0.402368927,1.35225134 0.402368927,0.719086361 0.792893219,0.328562069 C1.18341751,-0.061962223 1.81658249,-0.061962223 2.20710678,0.328562069 L7.99999997,6.12145525 L13.8285616,0.292893244 C14.2190858,-0.0976310618 14.8522508,-0.0976310841 15.2427751,0.292893194 C15.6332994,0.683417472 15.6332995,1.31658245 15.2427752,1.70710676 L9.41421353,7.53566882 L15.3600533,13.4815085 C15.7505775,13.8720328 15.7505775,14.5051978 15.3600533,14.8957221 C14.969529,15.2862464 14.336364,15.2862464 13.9458397,14.8957221 L8.00000002,8.94988243 L1.70710681,15.2427761 C1.31658253,15.6333004 0.683417549,15.6333004 0.292893244,15.2427761 C-0.0976310618,14.8522519 -0.0976310841,14.2190869 0.292893194,13.8285626 L6.58578645,7.53566887 Z" id="app-icon" fill="#ACACB4"></path>
    </g>
</svg>