<?xml version="1.0" encoding="UTF-8" standalone="no"?>
<svg width="22px" height="22px" viewBox="0 0 22 22" version="1.1" xmlns="http://www.w3.org/2000/svg" xmlns:xlink="http://www.w3.org/1999/xlink">
    <!-- Generator: Sketch 3.7.2 (28276) - http://www.bohemiancoding.com/sketch -->
    <title>dashboard-icon_active</title>
    <desc>Created with Sketch.</desc>
    <defs></defs>
    <g id="Symbols" stroke="none" stroke-width="1" fill="none" fill-rule="evenodd">
        <g id="dashboard-icon_active">
            <path d="M14.5057739,2.46324463 L14.5057739,2.46324463 L14.5057739,7.38973389 L19.4322632,7.38973389 L19.4322632,2.46324463 L14.5057739,2.46324463 Z M14.5057739,0 L14.5057739,0 L19.4322632,0 C20.7926756,0 21.8955078,1.10283219 21.8955078,2.46324463 L21.8955078,7.38973389 C21.8955078,8.75014633 20.7926756,9.85297852 19.4322632,9.85297852 L14.5057739,9.85297852 C13.1453615,9.85297852 12.0425293,8.75014633 12.0425293,7.38973389 L12.0425293,2.46324463 C12.0425293,1.10283219 13.1453615,0 14.5057739,0 L14.5057739,0 Z M2.46324463,2.46324463 L2.46324463,2.46324463 L2.46324463,7.38973389 L7.38973389,7.38973389 L7.38973389,2.46324463 L2.46324463,2.46324463 Z M2.46324463,0 L2.46324463,0 L7.38973389,0 C8.75014633,0 9.85297852,1.10283219 9.85297852,2.46324463 L9.85297852,7.38973389 C9.85297852,8.75014633 8.75014633,9.85297852 7.38973389,9.85297852 L2.46324463,9.85297852 C1.10283219,9.85297852 0,8.75014633 0,7.38973389 L0,2.46324463 C0,1.10283219 1.10283219,0 2.46324463,0 L2.46324463,0 Z M2.46324463,14.5057739 L2.46324463,14.5057739 L2.46324463,19.4322632 L7.38973389,19.4322632 L7.38973389,14.5057739 L2.46324463,14.5057739 Z M2.46324463,12.0425293 L2.46324463,12.0425293 L7.38973389,12.0425293 C8.75014633,12.0425293 9.85297852,13.1453615 9.85297852,14.5057739 L9.85297852,19.4322632 C9.85297852,20.7926756 8.75014633,21.8955078 7.38973389,21.8955078 L2.46324463,21.8955078 C1.10283219,21.8955078 0,20.7926756 0,19.4322632 L0,14.5057739 C0,13.1453615 1.10283219,12.0425293 2.46324463,12.0425293 L2.46324463,12.0425293 Z M14.5057739,14.5057739 L14.5057739,14.5057739 L14.5057739,19.4322632 L19.4322632,19.4322632 L19.4322632,14.5057739 L14.5057739,14.5057739 Z M14.5057739,12.0425293 L14.5057739,12.0425293 L19.4322632,12.0425293 C20.7926756,12.0425293 21.8955078,13.1453615 21.8955078,14.5057739 L21.8955078,19.4322632 C21.8955078,20.7926756 20.7926756,21.8955078 19.4322632,21.8955078 L14.5057739,21.8955078 C13.1453615,21.8955078 12.0425293,20.7926756 12.0425293,19.4322632 L12.0425293,14.5057739 C12.0425293,13.1453615 13.1453615,12.0425293 14.5057739,12.0425293 L14.5057739,12.0425293 Z" id="top-right" fill="#3A89E6"></path>
            <path d="M16.9216309,6.37910156 C17.750058,6.37910156 18.4216309,5.70752869 18.4216309,4.87910156 C18.4216309,4.05067444 17.750058,3.37910156 16.9216309,3.37910156 C16.0932037,3.37910156 15.4216309,4.05067444 15.4216309,4.87910156 C15.4216309,5.70752869 16.0932037,6.37910156 16.9216309,6.37910156 Z M16.9216309,18.4216309 C17.750058,18.4216309 18.4216309,17.750058 18.4216309,16.9216309 C18.4216309,16.0932037 17.750058,15.4216309 16.9216309,15.4216309 C16.0932037,15.4216309 15.4216309,16.0932037 15.4216309,16.9216309 C15.4216309,17.750058 16.0932037,18.4216309 16.9216309,18.4216309 Z M4.87910156,18.4216309 C5.70752869,18.4216309 6.37910156,17.750058 6.37910156,16.9216309 C6.37910156,16.0932037 5.70752869,15.4216309 4.87910156,15.4216309 C4.05067444,15.4216309 3.37910156,16.0932037 3.37910156,16.9216309 C3.37910156,17.750058 4.05067444,18.4216309 4.87910156,18.4216309 Z M4.87910156,6.37910156 C5.70752869,6.37910156 6.37910156,5.70752869 6.37910156,4.87910156 C6.37910156,4.05067444 5.70752869,3.37910156 4.87910156,3.37910156 C4.05067444,3.37910156 3.37910156,4.05067444 3.37910156,4.87910156 C3.37910156,5.70752869 4.05067444,6.37910156 4.87910156,6.37910156 Z" id="dots" fill="#FFAF50"></path>
        </g>
    </g>
</svg>