<?xml version="1.0" encoding="UTF-8" standalone="no"?>
<svg width="22px" height="22px" viewBox="0 0 22 22" version="1.1" xmlns="http://www.w3.org/2000/svg" xmlns:xlink="http://www.w3.org/1999/xlink">
    <!-- Generator: Sketch 3.7.2 (28276) - http://www.bohemiancoding.com/sketch -->
    <title>move-icon_active</title>
    <desc>Created with Sketch.</desc>
    <defs></defs>
    <g id="Symbols" stroke="none" stroke-width="1" fill="none" fill-rule="evenodd">
        <g id="move-icon_active">
            <path d="M18.5709226,8.76648391 C18.3388468,8.76648391 18.106771,8.67583056 17.9299945,8.4954489 C17.5755349,8.13376055 17.5755349,7.54913896 17.9299945,7.1874506 L20.0087048,5.06634727 L17.9299945,2.94524394 C17.5755349,2.58355559 17.5755349,1.998934 17.9299945,1.63724564 C18.284454,1.27555728 18.8573912,1.27555728 19.2118507,1.63724564 L21.290561,3.75834897 C21.997667,4.47895058 21.997667,5.65374396 21.290561,6.37434557 L19.2118507,8.4954489 C19.0350742,8.67583056 18.8029984,8.76648391 18.5709226,8.76648391" id="Fill-178" fill="#3A89E6"></path>
            <path d="M18.5709226,19.8668938 C18.3388468,19.8668938 18.106771,19.7762405 17.9299945,19.5958588 C17.5755349,19.2341705 17.5755349,18.6495489 17.9299945,18.2878605 L20.0087048,16.1667572 L17.9299945,14.0456539 C17.5755349,13.6839655 17.5755349,13.0993439 17.9299945,12.7376556 C18.284454,12.3759672 18.8573912,12.3759672 19.2118507,12.7376556 L21.290561,14.8587589 C21.997667,15.5793605 21.997667,16.7541539 21.290561,17.4747555 L19.2118507,19.5958588 C19.0350742,19.7762405 18.8029984,19.8668938 18.5709226,19.8668938" id="Fill-179" fill="#3A89E6"></path>
            <path d="M10.4120074,11.5415864 C9.91068742,11.5415864 9.5054613,11.1280961 9.5054613,10.6165522 C9.5054613,8.06623305 7.87911754,5.99138143 5.87927678,5.99138143 L1.34654613,5.99138143 C0.84522612,5.99138143 0.44,5.57789116 0.44,5.06634727 C0.44,4.55480338 0.84522612,4.14131311 1.34654613,4.14131311 L5.87927678,4.14131311 C8.87903792,4.14131311 11.3185536,7.04684541 11.3185536,10.6165522 C11.3185536,11.1280961 10.9133274,11.5415864 10.4120074,11.5415864" id="Fill-180" fill="#3A89E6"></path>
            <path d="M5.43927678,17.0917914 L0.90654613,17.0917914 C0.40522612,17.0917914 0,16.6783011 0,16.1667572 C0,15.6552133 0.40522612,15.241723 0.90654613,15.241723 L5.43927678,15.241723 C6.00224193,15.241723 6.54254342,15.0798421 7.04386343,14.7607053 C7.46722047,14.4915203 8.02746598,14.6228752 8.29217745,15.0576412 C8.55779547,15.4914823 8.42725282,16.0613033 8.00208269,16.3314133 C7.21973338,16.8290817 6.33313126,17.0917914 5.43927678,17.0917914" id="Fill-181" fill="#FFAF50"></path>
            <path d="M19.4774687,17.0917914 L14.9447381,17.0917914 C11.9449769,17.0917914 9.5054613,14.1862591 9.5054613,10.6165522 C9.5054613,7.04684541 11.9449769,4.14131311 14.9447381,4.14131311 L19.4774687,4.14131311 C19.9787887,4.14131311 20.3840149,4.55480338 20.3840149,5.06634727 C20.3840149,5.57789116 19.9787887,5.99138143 19.4774687,5.99138143 L14.9447381,5.99138143 C12.9448973,5.99138143 11.3185536,8.06623305 11.3185536,10.6165522 C11.3185536,13.1668714 12.9448973,15.241723 14.9447381,15.241723 L19.4774687,15.241723 C19.9787887,15.241723 20.3840149,15.6552133 20.3840149,16.1667572 C20.3840149,16.6783011 19.9787887,17.0917914 19.4774687,17.0917914" id="Fill-182" fill="#3A89E6"></path>
        </g>
    </g>
</svg>