<?xml version="1.0" encoding="UTF-8" standalone="no"?>
<svg width="22px" height="22px" viewBox="0 0 22 22" version="1.1" xmlns="http://www.w3.org/2000/svg" xmlns:xlink="http://www.w3.org/1999/xlink">
    <!-- Generator: Sketch 3.7.2 (28276) - http://www.bohemiancoding.com/sketch -->
    <title>search-icon_active</title>
    <desc>Created with Sketch.</desc>
    <defs></defs>
    <g id="Symbols" stroke="none" stroke-width="1" fill="none" fill-rule="evenodd">
        <g id="search-icon_active">
            <path d="M8.14,16.3921569 C3.65214667,16.3921569 0,12.7148497 0,8.19607843 C0,3.67730719 3.65214667,0 8.14,0 C12.6278533,0 16.28,3.67730719 16.28,8.19607843 C16.28,12.7148497 12.6278533,16.3921569 8.14,16.3921569 L8.14,16.3921569 Z M8.14,1.82135076 C4.64884444,1.82135076 1.80888889,4.68087146 1.80888889,8.19607843 C1.80888889,11.7112854 4.64884444,14.5708061 8.14,14.5708061 C11.6311556,14.5708061 14.4711111,11.7112854 14.4711111,8.19607843 C14.4711111,4.68087146 11.6311556,1.82135076 8.14,1.82135076 L8.14,1.82135076 Z" id="Fill-31" fill="#3A89E6"></path>
            <path d="M18.085015,21.3282383 L11.7083696,14.941448 C11.3505435,14.5821336 11.3505435,14.0004302 11.7083696,13.6420348 C12.0671133,13.2827204 12.6478926,13.2827204 13.0057188,13.6420348 L19.3823641,20.0288251 C19.5640297,20.2107797 19.8484556,20.2107797 20.0301212,20.0288251 C20.119119,19.9387668 20.1649941,19.8294103 20.1649941,19.7044313 C20.1649941,19.5794524 20.119119,19.4700959 20.0292037,19.3800375 L16.0710961,15.4147137 C15.7123524,15.0553993 15.7123524,14.473696 16.0710961,14.1153006 C16.4289222,13.7559862 17.0097016,13.7559862 17.3684452,14.1153006 L21.3274704,18.0806244 C21.7614492,18.5162126 22,19.0924022 22,19.7044313 C22,20.3164604 21.7614492,20.89265 21.3283879,21.3282383 C20.8806464,21.7757731 20.2934445,22 19.7062427,22 C19.1190408,22 18.5318389,21.7757731 18.085015,21.3282383 Z" id="Fill-32" fill="#3A89E6"></path>
            <path d="M4.47333333,9.05882353 C3.94709333,9.05882353 3.52,8.64010458 3.52,8.12418301 C3.52,5.54737908 5.65832667,3.45098039 8.28666667,3.45098039 C8.81290667,3.45098039 9.24,3.86969935 9.24,4.38562092 C9.24,4.90154248 8.81290667,5.32026144 8.28666667,5.32026144 C6.70985333,5.32026144 5.42666667,6.57828758 5.42666667,8.12418301 C5.42666667,8.64010458 4.99957333,9.05882353 4.47333333,9.05882353" id="Fill-33" fill="#FFAF50"></path>
        </g>
    </g>
</svg>