<?xml version="1.0" encoding="UTF-8" standalone="no"?>
<svg width="22px" height="22px" viewBox="0 0 22 22" version="1.1" xmlns="http://www.w3.org/2000/svg" xmlns:xlink="http://www.w3.org/1999/xlink">
    <!-- Generator: Sketch 3.7.2 (28276) - http://www.bohemiancoding.com/sketch -->
    <title>settings-icon_white</title>
    <desc>Created with Sketch.</desc>
    <defs></defs>
    <g id="Symbols" stroke="none" stroke-width="1" fill="none" fill-rule="evenodd">
        <g id="settings-icon_white" fill="#FFFFFF">
            <path d="M7.33333333,10.5686275 C7.33333333,8.54682745 8.88144314,6.90196078 10.7843137,6.90196078 C11.116298,6.90196078 11.4441412,6.95182745 11.7595608,7.05082745 C12.1253647,7.16522745 12.3344941,7.57296078 12.2268235,7.96089412 C12.1198431,8.34882745 11.7367843,8.57249412 11.3702902,8.45809412 C11.1811765,8.39869412 10.9837804,8.36862745 10.7843137,8.36862745 C9.64272941,8.36862745 8.71372549,9.35569412 8.71372549,10.5686275 C8.71372549,11.7815608 9.64272941,12.7686275 10.7843137,12.7686275 C11.925898,12.7686275 12.854902,11.7815608 12.854902,10.5686275 C12.854902,10.4028941 12.8376471,10.2364275 12.8031373,10.0750941 C12.7182431,9.67982745 12.9508392,9.28676078 13.3228549,9.19729412 C13.6914196,9.10416078 14.0634353,9.35496078 14.1483294,9.74949412 C14.2063059,10.0178941 14.2352941,10.2936275 14.2352941,10.5686275 C14.2352941,12.5904275 12.6871843,14.2352941 10.7843137,14.2352941 C8.88144314,14.2352941 7.33333333,12.5904275 7.33333333,10.5686275 Z" id="Fill-226"></path>
            <path d="M11.9112768,21.6441459 L10.1426334,21.6441459 C9.16722649,21.6441459 8.3739899,20.8351959 8.3739899,19.840467 L8.3739899,18.4741803 C8.11399931,18.3839964 7.84339686,18.2694628 7.58163763,18.1404997 L6.65309981,19.1099771 C6.32059484,19.4499706 5.87666534,19.6375532 5.40443753,19.638455 L5.40266889,19.638455 C4.92955676,19.638455 4.48562726,19.4508724 4.15223797,19.1099771 L2.9000384,17.8329725 C2.56664911,17.4929791 2.38271019,17.0402557 2.38271019,16.5577716 C2.38271019,16.0761893 2.56664911,15.623466 2.9000384,15.2825707 L3.84626265,14.3176025 C3.72422625,14.0695966 3.61191739,13.7936338 3.514642,13.5113581 L2.1837378,13.5275912 C1.20833093,13.5275912 0.41509434,12.7186412 0.41509434,11.7239123 L0.41509434,9.92023352 C0.41509434,8.92550465 1.20833093,8.1165547 2.1837378,8.1165547 L3.52436954,8.1165547 C3.61191739,7.85051207 3.72422625,7.57454921 3.85156858,7.30850659 L2.9000384,6.3615752 C2.56664911,6.02067991 2.38271019,5.56795652 2.38271019,5.08637428 C2.38271019,4.60479203 2.56664911,4.15116681 2.9000384,3.81117335 L4.15223797,2.53416874 C4.48562726,2.19327345 4.92955676,2.00569085 5.40266889,2.00569085 L5.40443753,2.00569085 C5.87666534,2.00659269 6.32059484,2.19417529 6.65398414,2.53507058 L7.59932406,3.49913691 C7.84339686,3.37468308 8.11399931,3.26014947 8.39079201,3.16094713 L8.3739899,1.80367882 C8.3739899,0.808949951 9.16722649,0 10.1426334,0 L11.9112768,0 C12.8857994,0 13.6799203,0.808949951 13.6799203,1.80367882 L13.6799203,3.16996553 C13.9399109,3.26014947 14.2105133,3.37468308 14.4713882,3.50364611 L15.4008104,2.53416874 C15.7333153,2.19417529 16.1772448,2.00659269 16.6494726,2.00569085 L16.6512413,2.00569085 C17.1234691,2.00569085 17.5673986,2.19327345 17.9016722,2.53416874 L19.1529874,3.81117335 C19.4872611,4.15116681 19.6712,4.60479203 19.6712,5.08637428 C19.6712,5.56795652 19.4872611,6.02067991 19.1529874,6.3615752 L18.2076475,7.32654337 C18.3296839,7.57454921 18.4419928,7.85051207 18.5392682,8.13278781 L19.8701724,8.1165547 C20.8446949,8.1165547 21.6388158,8.92550465 21.6388158,9.92023352 L21.6388158,11.7239123 C21.6388158,12.7186412 20.8446949,13.5275912 19.8701724,13.5275912 L18.5330779,13.5275912 C18.4375712,13.8044559 18.327031,14.0741058 18.2023416,14.3356393 L19.1529874,15.2825707 C19.4872611,15.623466 19.6712,16.0761893 19.6712,16.5577716 C19.6712,17.0402557 19.4872611,17.4929791 19.1529874,17.8329725 L17.9016722,19.1099771 C17.5673986,19.4508724 17.1234691,19.638455 16.6512413,19.638455 L16.6494726,19.638455 C16.1772448,19.6375532 15.7333153,19.4499706 15.399926,19.1090753 L14.4545861,18.1450089 C14.2105133,18.2694628 13.9399109,18.3839964 13.6631182,18.4831987 L13.6799203,19.840467 C13.6799203,20.8351959 12.8857994,21.6441459 11.9112768,21.6441459 L11.9112768,21.6441459 Z M7.59755542,16.3413301 C7.85400872,16.3413301 8.11134634,16.398146 8.35188185,16.5171888 C8.55350721,16.6163911 8.76309146,16.7047714 8.97798164,16.7814278 C9.67482716,17.0321391 10.1426334,17.712126 10.1426334,18.4741803 L10.1426334,19.840467 L11.9112768,19.840467 L11.9112768,18.4741803 C11.9112768,17.712126 12.379083,17.0321391 13.0759285,16.7814278 C13.2908187,16.7047714 13.500403,16.6163911 13.701144,16.5171888 C14.3714599,16.1871156 15.174424,16.3296062 15.705017,16.869808 L16.6512413,17.8347762 L17.9025565,16.5577716 L16.9572166,15.5928034 C16.4266236,15.0516998 16.287785,14.2301241 16.6105625,13.5492353 C16.7096065,13.3427141 16.7953857,13.1307818 16.8705531,12.9125367 C17.1163945,12.2009854 17.7822888,11.7239123 18.5295406,11.7239123 L19.8701724,11.7239123 L19.8701724,9.92023352 L18.5295406,9.92023352 C17.7822888,9.92023352 17.1155102,9.44225863 16.8705531,8.73070734 C16.7953857,8.51336404 16.7096065,8.30143178 16.6114468,8.09581239 C16.287785,7.4140218 16.4266236,6.59244609 16.9572166,6.05134245 L17.9025565,5.08637428 L16.6512413,3.80936967 L15.705017,4.77433784 C15.1753083,5.31453965 14.3705755,5.45703027 13.7020283,5.12695705 C13.500403,5.02775472 13.2908187,4.93937445 13.0759285,4.8627181 C12.379083,4.61200675 11.9112768,3.93201983 11.9112768,3.16996553 L11.9112768,1.80367882 L10.1426334,1.80367882 L10.1426334,3.16996553 C10.1426334,3.93201983 9.67482716,4.61200675 8.97798164,4.8627181 C8.76309146,4.93937445 8.55350721,5.02775472 8.35276618,5.12695705 C7.68333463,5.45703027 6.87948618,5.31453965 6.34889314,4.77433784 L5.40266889,3.80936967 L4.15135364,5.08637428 L5.09669357,6.05134245 C5.62728661,6.59244609 5.76612512,7.4140218 5.44246337,8.09491055 C5.34430366,8.30143178 5.25852445,8.51336404 5.1833571,8.73160918 C4.93839998,9.44225863 4.2716214,9.92023352 3.52436954,9.92023352 L2.1837378,9.92023352 L2.1837378,11.7239123 L3.52436954,11.7239123 C4.2716214,11.7239123 4.93839998,12.2018872 5.1833571,12.9134385 C5.25852445,13.1307818 5.34430366,13.3427141 5.44246337,13.5483335 C5.76612512,14.2301241 5.62728661,15.0516998 5.09669357,15.5928034 L4.15135364,16.5577716 L5.40266889,17.8347762 L6.34889314,16.869808 C6.68847268,16.5235017 7.14124541,16.3413301 7.59755542,16.3413301 L7.59755542,16.3413301 Z" id="Fill-227"></path>
        </g>
    </g>
</svg>